<svg version="1.1" id="Layer_1" xmlns="http://www.w3.org/2000/svg" xmlns:xlink="http://www.w3.org/1999/xlink" x="0px" y="0px"
	 width="1052.947px" height="395.885px" viewBox="0 -36.912 1052.947 395.885" enable-background="new 0 -36.912 1052.947 395.885"
	 xml:space="preserve">
<g id="street">
	<rect x="-0.329" y="309.529" fill="#837B73" width="1053.276" height="27.791"/>
	<rect x="-0.329" y="338.916" fill="#B8B3AF" width="1053.276" height="44.162"/>
	<rect x="-0.329" y="332.416" fill="#71685F" width="1053.276" height="13"/>
</g>
<g class="camion">
	<path display="inline" fill="#603813" d="M153.22,243.336l-1.072-3.75c-6.81-23.829-40.576-23.841-47.401-0.016l-1.079,3.766
		H153.22z"/>
	<path display="inline" fill="#404040" d="M163.016,309.889H81.053c-0.737,0-1.333-0.597-1.333-1.333v-4.161h84.629v4.161
		C164.349,309.292,163.752,309.889,163.016,309.889"/>
	<path display="inline" fill="#4D4D4D" d="M68.437,298.741H18.223v-3.861c0-13.507,4.026-26.707,11.563-37.914
		c4.273-6.354,11.428-10.164,19.085-10.164h14.966c2.541,0,4.6,2.059,4.6,4.599V298.741z"/>
	<path display="inline" fill="#808080" d="M169.25,298.741H68.437v-9.2h100.147c0.368,0,0.667,0.298,0.667,0.666V298.741z"/>
	<path display="inline" fill="#FDCD00" d="M79.143,240.768l-1.594-3.269c-1.284-2.635-3.959-4.306-6.891-4.306H58.087
		c-1.693,0-3.065,1.372-3.065,3.066v4.024c0,1.694,1.372,3.066,3.065,3.066h6.224c2.932,0,5.605,1.672,6.891,4.307l15.891,32.581
		c0.771,1.579,2.376,2.583,4.135,2.583h72.059c0.778,0,1.433-0.583,1.523-1.356l4.243-36.402c0.106-0.911-0.605-1.712-1.523-1.712
		h-84.25C81.519,243.351,79.914,242.349,79.143,240.768"/>
	<rect x="96.13" y="282.82" display="inline" fill="#666666" width="61.772" height="6.72"/>
	<path display="inline" fill="#666666" d="M171.837,304.49H15.253c-0.688,0-1.247-0.558-1.247-1.246v-3.258
		c0-0.688,0.559-1.246,1.247-1.246h156.584c0.688,0,1.246,0.559,1.246,1.246v3.258C173.083,303.933,172.526,304.49,171.837,304.49"
		/>
	<path display="inline" fill="#4F7F94" d="M45.239,253.893H32.263c-0.904,0.944-1.74,1.968-2.483,3.073
		c-4.869,7.238-8.262,15.312-10.062,23.759h25.521c0.847,0,1.533-0.687,1.533-1.534v-23.765
		C46.772,254.579,46.086,253.893,45.239,253.893"/>
	<path display="inline" fill="#4F7F94" d="M62.245,280.725h-9.592c-0.369,0-0.667-0.299-0.667-0.666v-25.5
		c0-0.368,0.298-0.666,0.667-0.666h9.592c0.367,0,0.666,0.298,0.666,0.666v25.5C62.911,280.426,62.612,280.725,62.245,280.725"/>
	<polygon display="inline" fill="#E6BA00" points="104.661,277.771 97.378,277.771 83.578,249.023 90.861,249.023 	"/>
	<polygon display="inline" fill="#E6BA00" points="122.048,277.771 114.765,277.771 100.965,249.023 108.248,249.023 	"/>
	<polygon display="inline" fill="#E6BA00" points="139.435,277.771 132.152,277.771 118.353,249.023 125.636,249.023 	"/>
	<polygon display="inline" fill="#E6BA00" points="156.822,277.771 149.539,277.771 135.739,249.023 143.022,249.023 	"/>
	<polygon display="inline" fill="#E6BA00" points="161.008,265.296 153.126,249.023 160.409,249.023 162.653,253.697 	"/>
	<path display="inline" fill="#F15A24" d="M21.262,295.734h-3.982c-0.369,0-0.667-0.299-0.667-0.666v-2.756
		c0-0.368,0.298-0.667,0.667-0.667h3.982c0.367,0,0.666,0.299,0.666,0.667v2.756C21.928,295.436,21.629,295.734,21.262,295.734"/>
	<path display="inline" fill="#B32D32" d="M169.819,296.185h-3.982c-0.369,0-0.667-0.298-0.667-0.666v-2.756
		c0-0.368,0.298-0.667,0.667-0.667h3.982c0.368,0,0.667,0.299,0.667,0.667v2.756C170.485,295.887,170.187,296.185,169.819,296.185"
		/>
	<path display="inline" fill="#666666" d="M58.073,287.624h4.214c0.345,0,0.624-0.279,0.624-0.624v-1.626
		c0-0.345-0.279-0.624-0.624-0.624h-4.214c-0.345,0-0.624,0.279-0.624,0.624V287C57.449,287.345,57.729,287.624,58.073,287.624"/>
	<path display="inline" fill="#F2F2F2" d="M27.921,293.69c0,0.989-0.803,1.792-1.792,1.792c-0.99,0-1.792-0.803-1.792-1.792
		c0-0.99,0.802-1.792,1.792-1.792C27.118,291.898,27.921,292.7,27.921,293.69"/>
	<path display="inline" fill="#333333" d="M129.848,306.216c0,8.15-6.607,14.757-14.757,14.757c-8.15,0-14.758-6.606-14.758-14.757
		c0-8.151,6.607-14.758,14.758-14.758C123.24,291.458,129.848,298.064,129.848,306.216"/>
	<path display="inline" fill="#4D4D4D" d="M124.2,306.216c0,5.03-4.078,9.109-9.109,9.109s-9.109-4.079-9.109-9.109
		c0-5.032,4.078-9.109,9.109-9.109S124.2,301.184,124.2,306.216"/>
	<path display="inline" fill="#333333" d="M59.893,306.216c0,8.15-6.607,14.757-14.758,14.757c-8.149,0-14.758-6.606-14.758-14.757
		c0-8.151,6.608-14.758,14.758-14.758C53.285,291.458,59.893,298.064,59.893,306.216"/>
	<path display="inline" fill="#4D4D4D" d="M54.244,306.216c0,5.03-4.078,9.109-9.109,9.109c-5.03,0-9.109-4.079-9.109-9.109
		c0-5.032,4.079-9.109,9.109-9.109C50.166,297.106,54.244,301.184,54.244,306.216"/>
	<path display="inline" fill="#333333" d="M162.054,306.216c0,8.15-6.607,14.757-14.757,14.757c-8.15,0-14.758-6.606-14.758-14.757
		c0-8.151,6.607-14.758,14.758-14.758C155.447,291.458,162.054,298.064,162.054,306.216"/>
	<path display="inline" fill="#4D4D4D" d="M156.406,306.216c0,5.03-4.078,9.109-9.109,9.109s-9.109-4.079-9.109-9.109
		c0-5.032,4.078-9.109,9.109-9.109S156.406,301.184,156.406,306.216"/>
	<path display="inline" fill="#754C24" d="M82.849,243.336L82.849,243.336c13.724-22.864,46.864-22.864,60.587,0H82.849z"/>
	<path display="inline" fill="#A67C52" d="M117.37,243.336L117.37,243.336c12.942-14.224,35.317-14.224,48.26,0H117.37z"/>
	<polygon display="inline" fill="#6492A6" points="41.925,280.712 43.969,280.712 34.769,253.895 32.725,253.895 	"/>
	<path display="inline" fill="#6492A6" d="M35.728,280.723h4.472l-9.117-25.517c0,0-1.729,2.165-2.73,3.976L35.728,280.723z"/>
	<path display="inline" fill="#404040" d="M28.324,304.49c0.965-8.411,8.152-15.046,16.82-15.046
		c8.632,0,15.787,6.688,16.801,15.046H28.324z"/>
	<path display="inline" fill="#C69C6D" d="M148.38,234.465c0,0.634,0.514,1.148,1.148,1.148c0.635,0,1.149-0.515,1.149-1.148
		s-0.515-1.148-1.149-1.148C148.895,233.316,148.38,233.831,148.38,234.465"/>
	<path display="inline" fill="#C69C6D" d="M143.268,232.225c0,0.824,0.668,1.493,1.494,1.493c0.825,0,1.494-0.669,1.494-1.493
		c0-0.825-0.669-1.494-1.494-1.494C143.936,230.73,143.268,231.399,143.268,232.225"/>
	<path display="inline" fill="#C69C6D" d="M145.393,236.188c0,0.412,0.334,0.746,0.747,0.746c0.412,0,0.747-0.334,0.747-0.746
		c0-0.413-0.334-0.747-0.747-0.747C145.728,235.441,145.393,235.775,145.393,236.188"/>
	<path display="inline" fill="#C69C6D" d="M137.925,240.101c0,1.031,0.836,1.867,1.867,1.867c1.032,0,1.867-0.836,1.867-1.867
		s-0.835-1.867-1.867-1.867C138.761,238.233,137.925,239.069,137.925,240.101"/>
	<path display="inline" fill="#C69C6D" d="M156.768,241.077c0,0.46,0.373,0.833,0.833,0.833c0.46,0,0.833-0.373,0.833-0.833
		s-0.373-0.833-0.833-0.833C157.141,240.244,156.768,240.617,156.768,241.077"/>
	<path display="inline" fill="#C69C6D" d="M154.814,234.838c0,0.271,0.219,0.488,0.489,0.488c0.27,0,0.488-0.218,0.488-0.488
		c0-0.27-0.219-0.488-0.488-0.488C155.033,234.35,154.814,234.568,154.814,234.838"/>
	<path display="inline" fill="#C69C6D" d="M138.988,233.086c0,0.27,0.218,0.488,0.488,0.488c0.27,0,0.488-0.219,0.488-0.488
		s-0.219-0.488-0.488-0.488C139.206,232.598,138.988,232.816,138.988,233.086"/>
	<path display="inline" fill="#8C6239" d="M102.824,229.525c0,1.075,0.872,1.946,1.947,1.946s1.946-0.871,1.946-1.946
		s-0.871-1.947-1.946-1.947S102.824,228.45,102.824,229.525"/>
	<path display="inline" fill="#8C6239" d="M104.621,235.216c0,0.62,0.504,1.123,1.124,1.123s1.122-0.503,1.122-1.123
		s-0.502-1.123-1.122-1.123S104.621,234.596,104.621,235.216"/>
	<path display="inline" fill="#8C6239" d="M99.306,232.895c0,0.827,0.67,1.498,1.497,1.498s1.497-0.671,1.497-1.498
		c0-0.826-0.67-1.498-1.497-1.498S99.306,232.068,99.306,232.895"/>
	<path display="inline" fill="#8C6239" d="M115.479,227.578c0,1.489,1.207,2.696,2.696,2.696c1.488,0,2.694-1.207,2.694-2.696
		c0-1.488-1.206-2.695-2.694-2.695C116.686,224.883,115.479,226.09,115.479,227.578"/>
	<path display="inline" fill="#8C6239" d="M113.532,232.819c0,0.579,0.469,1.049,1.048,1.049s1.049-0.47,1.049-1.049
		c0-0.578-0.47-1.047-1.049-1.047S113.532,232.241,113.532,232.819"/>
	<path display="inline" fill="#8C6239" d="M117.65,233.27c0,0.951,0.771,1.722,1.722,1.722s1.722-0.771,1.722-1.722
		s-0.771-1.723-1.722-1.723S117.65,232.318,117.65,233.27"/>
	<path display="inline" fill="#8C6239" d="M98.183,229.001c0,0.414,0.335,0.749,0.748,0.749c0.414,0,0.749-0.335,0.749-0.749
		c0-0.413-0.335-0.748-0.749-0.748C98.518,228.253,98.183,228.588,98.183,229.001"/>
	<path display="inline" fill="#754C24" d="M137.138,226.422c0,0.829,0.671,1.499,1.499,1.499s1.499-0.67,1.499-1.499
		c0-0.828-0.671-1.499-1.499-1.499S137.138,225.594,137.138,226.422"/>
	<path display="inline" fill="#754C24" d="M137.435,222.936c0,0.398,0.322,0.721,0.72,0.721s0.72-0.322,0.72-0.721
		c0-0.396-0.322-0.719-0.72-0.719S137.435,222.539,137.435,222.936"/>
	<path display="inline" fill="#754C24" d="M131.957,223.854c0,1.243,1.007,2.249,2.249,2.249s2.249-1.006,2.249-2.249
		c0-1.242-1.006-2.248-2.249-2.248S131.957,222.611,131.957,223.854"/>
</g>
<g id="tierra">
	<path fill="#603813" d="M135.336,325.237l-1.398-4.894c-8.887-31.093-52.945-31.106-61.852-0.021l-1.408,4.914H135.336z"/>
	<path fill="#754C24" d="M43.516,325.237c17.907-29.835,61.148-29.835,79.055,0H43.516"/>
	<path fill="#A67C52" d="M88.559,325.237L88.559,325.237c16.888-18.559,46.083-18.559,62.971,0H88.559z"/>
	<path fill="#C69C6D" d="M129.022,318.205c0,0.827,0.671,1.498,1.499,1.498c0.829,0,1.5-0.671,1.5-1.498c0-0.828-0.671-1.5-1.5-1.5
		C129.693,316.705,129.022,317.377,129.022,318.205"/>
	<path fill="#C69C6D" d="M111.745,316.796c0,1.077,0.873,1.949,1.949,1.949s1.949-0.872,1.949-1.949
		c0-1.076-0.873-1.949-1.949-1.949S111.745,315.72,111.745,316.796"/>
	<path fill="#C69C6D" d="M134.362,322.289c0,0.54,0.436,0.975,0.974,0.975s0.975-0.435,0.975-0.975c0-0.537-0.437-0.973-0.975-0.973
		S134.362,321.752,134.362,322.289"/>
	<path fill="#C69C6D" d="M115.379,321.016c0,1.345,1.09,2.436,2.436,2.436s2.436-1.091,2.436-2.436c0-1.346-1.09-2.436-2.436-2.436
		S115.379,319.67,115.379,321.016"/>
	<path fill="#C69C6D" d="M139.966,322.289c0,0.602,0.486,1.088,1.087,1.088c0.6,0,1.087-0.486,1.087-1.088
		c0-0.599-0.488-1.086-1.087-1.086C140.453,321.203,139.966,321.69,139.966,322.289"/>
	<path fill="#C69C6D" d="M137.417,318.691c0,0.353,0.285,0.638,0.637,0.638c0.353,0,0.638-0.285,0.638-0.638
		c0-0.352-0.285-0.637-0.638-0.637C137.703,318.055,137.417,318.34,137.417,318.691"/>
	<path fill="#C69C6D" d="M116.767,316.405c0,0.353,0.285,0.638,0.637,0.638c0.352,0,0.637-0.285,0.637-0.638
		c0-0.352-0.285-0.637-0.637-0.637C117.052,315.769,116.767,316.054,116.767,316.405"/>
	<path fill="#8C6239" d="M69.58,311.76c0,1.402,1.137,2.54,2.54,2.54c1.403,0,2.54-1.138,2.54-2.54c0-1.403-1.137-2.541-2.54-2.541
		C70.717,309.219,69.58,310.356,69.58,311.76"/>
	<path fill="#8C6239" d="M71.925,319.185c0,0.81,0.656,1.466,1.465,1.466c0.809,0,1.465-0.656,1.465-1.466s-0.656-1.466-1.465-1.466
		C72.581,317.719,71.925,318.375,71.925,319.185"/>
	<path fill="#8C6239" d="M64.988,316.155c0,1.08,0.875,1.955,1.955,1.955c1.078,0,1.954-0.875,1.954-1.955
		c0-1.079-0.875-1.954-1.954-1.954C65.863,314.201,64.988,315.076,64.988,316.155"/>
	<path fill="#8C6239" d="M86.091,309.22c0,1.941,1.575,3.517,3.517,3.517c1.943,0,3.518-1.575,3.518-3.517
		c0-1.943-1.575-3.518-3.518-3.518C87.666,305.702,86.091,307.276,86.091,309.22"/>
	<path fill="#8C6239" d="M83.551,316.058c0,0.756,0.612,1.369,1.368,1.369c0.755,0,1.367-0.613,1.367-1.369
		c0-0.755-0.612-1.367-1.367-1.367C84.163,314.69,83.551,315.303,83.551,316.058"/>
	<path fill="#8C6239" d="M88.925,316.645c0,1.24,1.006,2.247,2.247,2.247c1.241,0,2.247-1.007,2.247-2.247
		c0-1.241-1.006-2.247-2.247-2.247C89.931,314.397,88.925,315.403,88.925,316.645"/>
	<path fill="#8C6239" d="M63.522,311.075c0,0.539,0.437,0.978,0.977,0.978c0.54,0,0.977-0.438,0.977-0.978s-0.438-0.978-0.977-0.978
		C63.959,310.098,63.522,310.536,63.522,311.075"/>
	<path fill="#754C24" d="M110.117,307.71c0,1.081,0.876,1.956,1.956,1.956c1.081,0,1.957-0.875,1.957-1.956
		c0-1.08-0.875-1.956-1.957-1.956C110.993,305.754,110.117,306.63,110.117,307.71"/>
	<path fill="#754C24" d="M111.71,302.404c0,0.52,0.42,0.939,0.939,0.939c0.519,0,0.939-0.42,0.939-0.939
		c0-0.519-0.42-0.938-0.939-0.938C112.131,301.466,111.71,301.886,111.71,302.404"/>
	<path fill="#754C24" d="M103.805,302.845c0,1.619,1.313,2.935,2.935,2.935c1.621,0,2.934-1.315,2.934-2.935
		c0-1.62-1.313-2.935-2.934-2.935C105.119,299.91,103.805,301.225,103.805,302.845"/>
	<rect x="122.305" y="281.772" fill="#4D4D4D" width="4.163" height="43.465"/>
	<rect x="158.491" y="281.772" fill="#4D4D4D" width="4.164" height="43.465"/>
	<rect x="118.301" y="286.3" fill="#F2F2F2" width="48.356" height="26.842"/>
	<polygon fill="#B32D32" points="166.657,313.142 158.491,313.142 150.966,286.3 159.131,286.3 	"/>
	<polygon fill="#B32D32" points="150.325,313.142 142.16,313.142 134.634,286.3 142.8,286.3 	"/>
	<polygon fill="#B32D32" points="133.993,313.142 125.828,313.142 118.302,286.3 126.468,286.3 	"/>
	<path class="valiza1" fill="#E6BA00" d="M124.386,277.194L124.386,277.194c-1.724,0-3.121,1.397-3.121,3.121v1.457h6.242v-1.457
		C127.507,278.592,126.11,277.194,124.386,277.194"/>
	<path class="valiza2" fill="#E6BA00" d="M160.573,277.194L160.573,277.194c-1.724,0-3.122,1.397-3.122,3.121v1.457h6.243v-1.457
		C163.694,278.592,162.296,277.194,160.573,277.194"/>
</g>
<g class="grua">
	<path fill="#333333" d="M209.318,194.076c1.76,0,3.465-0.593,4.844-1.715c1.8-1.462,2.833-3.631,2.833-5.948
		c0-0.715-0.578-1.292-1.292-1.292s-1.292,0.577-1.292,1.292c0,1.534-0.685,2.974-1.879,3.944c-1.21,0.983-2.739,1.347-4.31,1.021
		c-1.911-0.397-3.461-1.948-3.86-3.858c-0.481-2.312,0.587-4.576,2.656-5.635c2.222-1.139,3.603-3.305,3.603-5.653l-0.279-35.601
		h-2.1l-0.206,35.601c0,1.375-0.842,2.658-2.195,3.354c-3.12,1.596-4.73,4.996-4.009,8.463c0.606,2.899,2.96,5.254,5.862,5.859
		C208.235,194.021,208.779,194.076,209.318,194.076"/>
	<path fill="#333333" d="M304.421,179.874c0.018,0,0.034,0,0.051,0c0.571-0.028,1.011-0.514,0.983-1.084l-0.69-14.012
		c-0.015-0.304-0.164-0.586-0.406-0.772c-0.242-0.186-0.554-0.253-0.85-0.188l-11.569,2.558v-11.727c0-0.308-0.138-0.6-0.375-0.797
		c-0.237-0.196-0.548-0.277-0.852-0.219l-11.932,2.279l-0.419-12.076c-0.01-0.295-0.146-0.572-0.374-0.76
		c-0.227-0.188-0.524-0.27-0.816-0.225l-12.322,1.902v-11.606c0-0.304-0.134-0.592-0.366-0.789c-0.232-0.196-0.539-0.283-0.84-0.229
		l-11.991,2.034v-11.489c0-0.571-0.462-1.034-1.034-1.034c-0.571,0-1.033,0.462-1.033,1.034v12.712c0,0.304,0.134,0.593,0.367,0.79
		c0.231,0.196,0.538,0.281,0.839,0.229l11.992-2.034v11.587c0,0.301,0.132,0.588,0.36,0.785c0.229,0.196,0.533,0.284,0.83,0.237
		l12.364-1.909l0.421,12.118c0.01,0.302,0.151,0.583,0.387,0.771s0.542,0.263,0.838,0.208l11.889-2.271v11.763
		c0,0.315,0.143,0.61,0.387,0.807c0.244,0.197,0.568,0.269,0.87,0.203l11.63-2.571l0.628,12.792
		C303.417,179.445,303.874,179.874,304.421,179.874"/>
	<path fill="#333333" d="M327.807,274.127c0.461,0,0.907-0.247,1.14-0.682c0.337-0.63,0.1-1.413-0.53-1.749l-14.756-7.893
		l12.439-12.476c0.285-0.286,0.42-0.688,0.365-1.089c-0.054-0.397-0.292-0.75-0.643-0.948l-13.591-7.702l11.031-11.457
		c0.256-0.267,0.387-0.629,0.357-0.996c-0.03-0.368-0.214-0.707-0.509-0.93l-12.536-9.479l9.633-11.874
		c0.444-0.547,0.368-1.349-0.173-1.804l-11.039-9.264l7.857-12.947c0.371-0.609,0.176-1.405-0.434-1.774
		c-0.607-0.372-1.404-0.178-1.775,0.435l-8.433,13.894c-0.331,0.545-0.215,1.251,0.274,1.66l10.915,9.16l-9.674,11.927
		c-0.221,0.271-0.321,0.62-0.279,0.968c0.042,0.351,0.224,0.665,0.504,0.875l12.44,9.407l-11.176,11.607
		c-0.276,0.288-0.406,0.688-0.348,1.082c0.057,0.396,0.294,0.741,0.642,0.94l13.565,7.685l-12.472,12.508
		c-0.288,0.288-0.423,0.697-0.363,1.102c0.061,0.404,0.308,0.757,0.668,0.949l16.29,8.712
		C327.392,274.079,327.601,274.127,327.807,274.127"/>
	
		<rect x="206.868" y="116.471" transform="matrix(-0.8699 0.4932 -0.4932 -0.8699 480.0157 107.8958)" fill="#333333" width="37.824" height="1.55"/>
	<rect x="208.553" y="127.285" fill="#4D4D4D" width="1.55" height="4.742"/>
	<polygon fill="#808080" points="244.718,129.585 240.407,118.047 209.983,131.622 212.847,139.287 	"/>
	<rect x="241.458" y="107.919" fill="#4D4D4D" width="1.55" height="10.648"/>
	
		<rect x="285.328" y="86.593" transform="matrix(-0.6177 0.7864 -0.7864 -0.6177 574.7976 5.3341)" fill="#333333" width="1.549" height="111.571"/>
	
		<rect x="333.503" y="176.652" transform="matrix(-0.9963 0.0863 -0.0863 -0.9963 686.8564 423.178)" fill="#333333" width="1.55" height="99.578"/>
	<rect x="317.083" y="175.545" fill="#4D4D4D" width="11.306" height="2.586"/>
	
		<rect x="320.379" y="179.977" transform="matrix(-0.991 0.1336 -0.1336 -0.991 671.9812 411.3571)" fill="#4D4D4D" width="3.618" height="96.498"/>
	
		<rect x="307.493" y="180.317" transform="matrix(-0.9981 0.0618 -0.0618 -0.9981 632.1183 436.9014)" fill="#4D4D4D" width="3.619" height="95.819"/>
	
		<rect x="277.065" y="104.508" transform="matrix(-0.6217 0.7832 -0.7832 -0.6217 564.7441 16.6237)" fill="#4D4D4D" width="2.585" height="80.363"/>
	
		<rect x="271.69" y="113.901" transform="matrix(-0.625 0.7806 -0.7806 -0.625 563.2627 36.0077)" fill="#4D4D4D" width="2.584" height="78.801"/>
	<path fill="#666666" d="M301.321,176.839c0,5.101,4.136,9.237,9.237,9.237c5.102,0,9.239-4.137,9.239-9.237
		c0-5.103-4.137-9.239-9.239-9.239C305.457,167.6,301.321,171.736,301.321,176.839"/>
	<path fill="#4D4D4D" d="M306.351,176.839c0,2.322,1.884,4.209,4.208,4.209c2.325,0,4.209-1.887,4.209-4.209
		c0-2.324-1.884-4.208-4.209-4.208C308.235,172.63,306.351,174.515,306.351,176.839"/>
	<path fill="#666666" d="M234.405,123.718c0,4.324,3.504,7.829,7.828,7.829c4.324,0,7.829-3.505,7.829-7.829
		s-3.505-7.829-7.829-7.829C237.909,115.89,234.405,119.395,234.405,123.718"/>
	<path fill="#4D4D4D" d="M238.667,123.718c0,1.97,1.597,3.566,3.566,3.566c1.97,0,3.566-1.597,3.566-3.566
		c0-1.97-1.596-3.566-3.566-3.566C240.263,120.152,238.667,121.748,238.667,123.718"/>
	<path fill="#666666" d="M203.73,136.495c0,3.092,2.506,5.599,5.599,5.599c3.092,0,5.597-2.506,5.597-5.599
		c0-3.091-2.505-5.597-5.597-5.597C206.237,130.898,203.73,133.404,203.73,136.495"/>
	<path fill="#4D4D4D" d="M206.779,136.495c0,1.409,1.142,2.551,2.549,2.551c1.409,0,2.551-1.142,2.551-2.551
		c0-1.408-1.142-2.549-2.551-2.549C207.92,133.946,206.779,135.087,206.779,136.495"/>
	<path fill="#666666" d="M239.384,107.919c0,1.573,1.276,2.849,2.849,2.849s2.849-1.276,2.849-2.849
		c0-1.573-1.276-2.848-2.849-2.848S239.384,106.346,239.384,107.919"/>
	<path fill="#666666" d="M207.362,126.573c0,1.086,0.88,1.967,1.966,1.967c1.087,0,1.967-0.881,1.967-1.967s-0.88-1.966-1.967-1.966
		C208.242,124.607,207.362,125.487,207.362,126.573"/>
	<path fill="#666666" d="M324.642,176.839c0,2.943,2.387,5.328,5.33,5.328s5.331-2.385,5.331-5.328c0-2.945-2.388-5.33-5.331-5.33
		S324.642,173.894,324.642,176.839"/>
	<path fill="#4D4D4D" d="M326.322,176.839c0,2.014,1.634,3.649,3.65,3.649s3.65-1.636,3.65-3.649c0-2.016-1.635-3.651-3.65-3.651
		S326.322,174.823,326.322,176.839"/>
	<path fill="#B32D32" d="M209.619,171.509l7.15-7.151c0.161-0.16,0.161-0.419,0-0.582l-7.15-7.149c-0.161-0.161-0.421-0.161-0.581,0
		l-7.151,7.149c-0.16,0.162-0.16,0.422,0,0.582l7.151,7.151C209.198,171.668,209.458,171.668,209.619,171.509"/>
	<path fill="#F2F2F2" d="M209.619,168.081l3.724-3.723c0.161-0.16,0.161-0.419,0-0.582l-3.724-3.723
		c-0.161-0.161-0.421-0.161-0.581,0l-3.724,3.723c-0.161,0.162-0.161,0.422,0,0.582l3.724,3.723
		C209.198,168.243,209.458,168.243,209.619,168.081"/>
	<path fill="#4F7F94" d="M281.644,244.522h-29.122c-2.534,0-4.632,1.966-4.799,4.493l-2.911,44.006H287.9l-1.449-43.847
		C286.365,246.58,284.237,244.522,281.644,244.522"/>
	<rect x="255.564" y="298.408" fill="#333333" width="38.482" height="6.476"/>
	<path fill="#333333" d="M324.975,326.489H222.768c-6.309,0-11.423-5.114-11.423-11.424c0-6.308,5.114-11.423,11.423-11.423h102.208
		c6.309,0,11.423,5.115,11.423,11.423C336.398,321.375,331.284,326.489,324.975,326.489"/>
	<path fill="#262626" d="M324.984,327.691H222.76c-6.957,0-12.618-5.658-12.618-12.617c0-6.975,5.661-12.633,12.618-12.633h102.224
		c6.958,0,12.618,5.658,12.618,12.617C337.602,322.033,331.942,327.691,324.984,327.691 M222.76,304.845
		c-5.631,0-10.213,4.582-10.213,10.214c0,5.647,4.582,10.228,10.213,10.228h102.224c5.631,0,10.213-4.58,10.213-10.212
		c0-5.647-4.582-10.229-10.213-10.229H222.76z"/>
	<path fill="#808080" d="M240.249,323.094h-5.233c-0.351,0-0.637-0.284-0.637-0.637v-4.361h6.507v4.361
		C240.886,322.81,240.601,323.094,240.249,323.094"/>
	<path fill="#808080" d="M250.603,323.094h-5.232c-0.353,0-0.637-0.284-0.637-0.637v-4.361h6.507v4.361
		C251.241,322.81,250.955,323.094,250.603,323.094"/>
	<path fill="#808080" d="M260.957,323.094h-5.232c-0.352,0-0.638-0.284-0.638-0.637v-4.361h6.508v4.361
		C261.595,322.81,261.309,323.094,260.957,323.094"/>
	<path fill="#808080" d="M271.311,323.094h-5.232c-0.353,0-0.638-0.284-0.638-0.637v-4.361h6.507v4.361
		C271.948,322.81,271.663,323.094,271.311,323.094"/>
	<path fill="#808080" d="M281.664,323.094h-5.232c-0.351,0-0.637-0.284-0.637-0.637v-4.361h6.508v4.361
		C282.302,322.81,282.016,323.094,281.664,323.094"/>
	<path fill="#808080" d="M292.019,323.094h-5.232c-0.353,0-0.637-0.284-0.637-0.637v-4.361h6.507v4.361
		C292.656,322.81,292.371,323.094,292.019,323.094"/>
	<path fill="#808080" d="M302.372,323.094h-5.232c-0.352,0-0.638-0.284-0.638-0.637v-4.361h6.508v4.361
		C303.01,322.81,302.724,323.094,302.372,323.094"/>
	<path fill="#808080" d="M312.727,323.094h-5.233c-0.352,0-0.637-0.284-0.637-0.637v-4.361h6.507v4.361
		C313.364,322.81,313.078,323.094,312.727,323.094"/>
	<path fill="#808080" d="M260.957,304.884h-5.232c-0.352,0-0.638,0.286-0.638,0.639v5.964h6.508v-5.964
		C261.595,305.17,261.309,304.884,260.957,304.884"/>
	<path fill="#808080" d="M292.019,304.884h-5.232c-0.353,0-0.637,0.286-0.637,0.639v5.964h6.507v-5.964
		C292.656,305.17,292.371,304.884,292.019,304.884"/>
	<rect x="228.584" y="310.815" fill="#666666" width="90.575" height="8.502"/>
	<path fill="#4D4D4D" d="M330.836,315.065c0,3.957-3.207,7.165-7.163,7.165c-3.956,0-7.163-3.208-7.163-7.165
		c0-3.955,3.208-7.162,7.163-7.162C327.629,307.903,330.836,311.11,330.836,315.065"/>
	<path fill="#666666" d="M327.924,315.065c0,2.348-1.903,4.252-4.251,4.252c-2.348,0-4.252-1.904-4.252-4.252s1.904-4.25,4.252-4.25
		C326.021,310.815,327.924,312.718,327.924,315.065"/>
	<path fill="#4D4D4D" d="M231.233,315.065c0,3.957-3.208,7.165-7.164,7.165s-7.163-3.208-7.163-7.165
		c0-3.955,3.207-7.162,7.163-7.162S231.233,311.11,231.233,315.065"/>
	<path fill="#666666" d="M228.322,315.065c0,2.348-1.904,4.252-4.252,4.252c-2.347,0-4.251-1.904-4.251-4.252s1.904-4.25,4.251-4.25
		C226.418,310.815,228.322,312.718,228.322,315.065"/>
	<polygon fill="#4D4D4D" points="287.9,293.021 287.129,269.706 245.683,279.861 244.812,293.021 	"/>
	<rect x="275.039" y="238.956" fill="#333333" width="5.015" height="8.018"/>
	<rect x="267.611" y="237.47" fill="#333333" width="4.142" height="8.015"/>
	<path fill="#4D4D4D" d="M280.583,234.547h-6.074c-0.352,0-0.637,0.286-0.637,0.638v3.771h7.349v-3.771
		C281.22,234.833,280.934,234.547,280.583,234.547"/>
	<path fill="#FDCD00" d="M346.019,294.298h-74.552v-23.475c0-1.058,0.856-1.913,1.913-1.913h70.727c1.056,0,1.913,0.855,1.913,1.913
		V294.298z"/>
	<path fill="#4D4D4D" d="M281.632,244.522h-29.123c-2.533,0-4.631,1.966-4.798,4.493l-0.027,0.406h38.763l-0.009-0.247
		C286.353,246.58,284.226,244.522,281.632,244.522"/>
	<polygon fill="#6492A6" points="248.034,279.27 256.369,249.422 258.908,249.422 250.754,278.618 	"/>
	<polygon fill="#6492A6" points="260.362,276.266 254.195,277.776 262.114,249.422 267.86,249.422 	"/>
	<path fill="#E6BA00" d="M344.743,300.236h-98.656c-0.704,0-1.275-0.571-1.275-1.275v-5.939h101.207v5.939
		C346.019,299.665,345.448,300.236,344.743,300.236"/>
	<path fill="#B32D32" d="M248.048,298.209h-3.236c-0.705,0-1.274-0.57-1.274-1.274v-1.196c0-0.704,0.57-1.274,1.274-1.274h3.236
		c0.353,0,0.638,0.286,0.638,0.639v2.468C248.686,297.923,248.401,298.209,248.048,298.209"/>
	<path fill="#F15A24" d="M342.754,298.209h3.236c0.705,0,1.275-0.57,1.275-1.274v-1.196c0-0.704-0.57-1.274-1.275-1.274h-3.236
		c-0.352,0-0.638,0.286-0.638,0.639v2.468C342.116,297.923,342.402,298.209,342.754,298.209"/>
	<path fill="#666666" d="M193.791,215.904l-1.238-0.785l14.89-17.317c0.441-0.695,1.197-1.111,2.021-1.111
		c0.826,0,1.581,0.416,2.023,1.111l14.889,17.317l-1.237,0.785l-14.889-17.318c-0.171-0.271-0.465-0.433-0.786-0.433
		s-0.614,0.162-0.785,0.433L193.791,215.904z"/>
	<path fill="#E6BA00" d="M219.696,239.676h-20.464c-0.865,0-1.612-0.605-1.791-1.454l-4.453-21.063h32.952l-4.454,21.063
		C221.308,239.07,220.562,239.676,219.696,239.676"/>
	<rect x="206.305" y="220.344" fill="#FDCD00" width="6.32" height="16.879"/>
	<polygon fill="#FDCD00" points="219.284,237.223 216.018,237.223 216.018,220.344 222.337,220.344 	"/>
	<polygon fill="#FDCD00" points="199.645,237.223 202.911,237.223 202.911,220.344 196.591,220.344 	"/>
	<path fill="#FDCD00" d="M226.701,214.977h-34.474c-0.68,0-1.232,0.551-1.232,1.233v1.041c0,0.68,0.552,1.23,1.232,1.23h34.474
		c0.681,0,1.233-0.551,1.233-1.23v-1.041C227.934,215.527,227.382,214.977,226.701,214.977"/>
	<path fill="#E6BA00" d="M210.46,202.063h-1.992c-0.681,0-1.234-0.551-1.234-1.233v-10.15c0-0.681,0.553-1.233,1.234-1.233h1.992
		c0.681,0,1.233,0.553,1.233,1.233v10.15C211.693,201.512,211.141,202.063,210.46,202.063"/>
</g>
<g class="mano">
	<path fill="#FFD7B6" d="M139.979,89.948l36.797,13.192c2.584,0.926,5.423,0.831,7.938-0.268l38.445-16.775l27.88-6.336
		c3.514-0.8,6.007-3.924,6.007-7.527l28.203,12.542c4.414,1.963,9.581-0.062,11.483-4.502c1.9-4.436-0.165-9.572-4.608-11.456
		l-60.261-25.567c-5.087-2.158-10.814-2.242-15.961-0.236L178.487,57.6l-27.726-7.702L139.979,89.948z"/>
	<polyline fill="#00978D" points="-59.39,49.47 132.955,96.459 151.054,29.836 -59.39,-27.174 	"/>
	<path fill="#90FFDE" d="M147.745,41.921l14.312,4.092c1.45,0.415,2.291,1.927,1.876,3.379L151.226,93.83
		c-0.416,1.452-1.928,2.292-3.379,1.877l-14.313-4.092L147.745,41.921z"/>
	
		<rect x="140.562" y="41.481" transform="matrix(0.9614 0.275 -0.275 0.9614 24.0137 -36.6163)" fill="#86E5C6" width="4.032" height="51.684"/>
	<path fill="#FFB89C" d="M257.047,72.233l-1.186-2.963c-1.438-3.597-5.281-5.611-9.058-4.748l-26.656,6.104l-30.913,13.74
		c-2.435,1.005-4.01-2.099-1.521-3.496l30.995-13.658l27.829-6.596c5.048-1.197,10.197,1.563,11.995,6.429l2.589,7.001
		L257.047,72.233z"/>
	<path fill="#FFC012" d="M142.093,84.562c0-1.848,1.499-3.347,3.347-3.347s3.346,1.499,3.346,3.347c0,1.848-1.498,3.346-3.346,3.346
		C143.592,87.909,142.093,86.41,142.093,84.562"/>
</g>
</svg>