<svg version="1.1" xmlns="http://www.w3.org/2000/svg" xmlns:xlink="http://www.w3.org/1999/xlink" x="0px" y="0px"
	 width="1052.947px" height="395.885px" viewBox="0 -36.912 1052.947 395.885" enable-background="new 0 -36.912 1052.947 395.885"
	 xml:space="preserve">
<g id="baranda_bicis">
	<polyline fill="none" points="0.68,136.392 1053.627,136.392 1053.627,348.771 0.68,348.771 	"/>
	<path fill="#7BA7B3" d="M-0.908,304.357h1054.08c0,0-66.896-62.396-82.722-73.659c-6.698-4.77-18.738-4.338-24.504,0.889
		c-13.348,12.105-35.259,31.979-47.879,43.424c-5.188,4.707-15.681,5.63-22.713,1.984c-1.964-1.021-4.02-2.072-6.065-3.098
		c-7.019-3.514-17.298-2.584-22.46,2.023c-0.111,0.103-0.229,0.207-0.341,0.308c-7.314,6.535-23.359,5.11-27.495-2.44l-8.354-15.258
		c-4.494-8.223-22.578-8.949-28.711-1.152c-11.458,14.578-25.24,30.449-31.418,26.976l-80.364-41.045
		c-4.75-2.427-11.324-2.882-16.805-1.164l-74.878,23.47c-4.388,1.375-9.551,1.374-13.938-0.003l-41.097-12.899
		c-2.58-0.813-4.742-2.045-6.261-3.582c-5.714-5.783-20.807-21.06-31.552-31.935c-5.687-5.754-18.729-6.233-25.437-0.931
		c-23.354,18.466-68.901,54.021-75.185,55.477c-7.145,1.654-60.272-18.23-77.04-24.619c-2.769-1.053-32.461,9.439-44.678,13.004
		c-2.763,0.807-5.844,1.07-8.857,0.782L121.83,204.745C94.318,195.617-0.908,304.357-0.908,304.357"/>
	<polyline fill="none" points="1054.884,-3.333 1054.884,358.407 0.68,358.407 	"/>
	<polyline fill="#575756" points="0.68,304.357 1053.627,304.357 1053.627,359.38 0.68,359.38 	"/>
	<polyline fill="#878787" points="0.68,315.242 1053.627,315.242 1053.627,321.337 0.68,321.337 	"/>
	<polyline fill="#4A4A49" points="-3.93,275.128 1056.877,275.128 1056.877,280.904 -3.93,280.904 	"/>
	<path class="baranda_bici" fill="#4A4A49" d="M389.727,306.725h-4.977c-1.795,0-3.252-1.374-3.252-3.067v-21.13c0-1.692,1.457-3.065,3.252-3.065h4.977
		c1.797,0,3.25,1.373,3.25,3.065v21.13C392.977,305.351,391.524,306.725,389.727,306.725"/>
	<path class="baranda_bici" fill="#4A4A49" d="M457.293,306.725h-4.977c-1.797,0-3.252-1.374-3.252-3.067v-21.13c0-1.692,1.455-3.065,3.252-3.065h4.977
		c1.795,0,3.25,1.373,3.25,3.065v21.13C460.543,305.351,459.088,306.725,457.293,306.725"/>
	<path class="baranda_bici" fill="#4A4A49" d="M524.859,306.725h-4.979c-1.795,0-3.25-1.374-3.25-3.067v-21.13c0-1.692,1.455-3.065,3.25-3.065h4.979
		c1.795,0,3.25,1.373,3.25,3.065v21.13C528.109,305.351,526.654,306.725,524.859,306.725"/>
	<path class="baranda_bici" fill="#4A4A49" d="M592.426,306.725h-4.978c-1.795,0-3.252-1.374-3.252-3.067v-21.13c0-1.692,1.457-3.065,3.252-3.065h4.978
		c1.795,0,3.25,1.373,3.25,3.065v21.13C595.676,305.351,594.221,306.725,592.426,306.725"/>
	<path class="baranda_bici" fill="#4A4A49" d="M659.991,306.725h-4.978c-1.795,0-3.252-1.374-3.252-3.067v-21.13c0-1.692,1.457-3.065,3.252-3.065h4.978
		c1.797,0,3.252,1.373,3.252,3.065v21.13C663.243,305.351,661.788,306.725,659.991,306.725"/>
	<path class="baranda_bici" fill="#4A4A49" d="M727.557,306.725h-4.977c-1.795,0-3.252-1.374-3.252-3.067v-21.13c0-1.692,1.456-3.065,3.252-3.065h4.977
		c1.797,0,3.25,1.373,3.25,3.065v21.13C730.807,305.351,729.354,306.725,727.557,306.725"/>
	<path class="baranda_bici" fill="#4A4A49" d="M795.124,306.725h-4.978c-1.795,0-3.252-1.374-3.252-3.067v-21.13c0-1.692,1.457-3.065,3.252-3.065h4.978
		c1.797,0,3.252,1.373,3.252,3.065v21.13C798.376,305.351,796.92,306.725,795.124,306.725"/>
	<path class="baranda_bici" fill="#4A4A49" d="M862.689,306.725h-4.977c-1.797,0-3.252-1.374-3.252-3.067v-21.13c0-1.692,1.455-3.065,3.252-3.065h4.977
		c1.795,0,3.25,1.373,3.25,3.065v21.13C865.939,305.351,864.484,306.725,862.689,306.725"/>
	<path class="baranda_bici" fill="#4A4A49" d="M930.256,306.725h-4.979c-1.795,0-3.25-1.374-3.25-3.067v-21.13c0-1.692,1.455-3.065,3.25-3.065h4.979
		c1.797,0,3.252,1.373,3.252,3.065v21.13C933.508,305.351,932.053,306.725,930.256,306.725"/>
	<path class="baranda_bici" fill="#4A4A49" d="M997.822,306.725h-4.979c-1.795,0-3.25-1.374-3.25-3.067v-21.13c0-1.692,1.455-3.065,3.25-3.065h4.979
		c1.798,0,3.25,1.373,3.25,3.065v21.13C1001.072,305.351,999.62,306.725,997.822,306.725"/>
	<path class="baranda_bici" fill="#4A4A49" d="M181.96,307.593h-4.977c-1.797,0-3.252-1.375-3.252-3.067v-21.13c0-1.693,1.455-3.066,3.252-3.066h4.977
		c1.795,0,3.25,1.373,3.25,3.066v21.13C185.21,306.218,183.755,307.593,181.96,307.593"/>
	<path class="baranda_bici" fill="#4A4A49" d="M255.527,307.593h-4.979c-1.795,0-3.25-1.375-3.25-3.067v-21.13c0-1.693,1.455-3.066,3.25-3.066h4.979
		c1.795,0,3.25,1.373,3.25,3.066v21.13C258.777,306.218,257.322,307.593,255.527,307.593"/>
	<path class="baranda_bici" fill="#4A4A49" d="M323.093,307.593h-4.977c-1.795,0-3.252-1.375-3.252-3.067v-21.13c0-1.693,1.457-3.066,3.252-3.066h4.977
		c1.795,0,3.25,1.373,3.25,3.066v21.13C326.343,306.218,324.888,307.593,323.093,307.593"/>
	<path class="baranda_bici" fill="#4A4A49" d="M23.394,307.593h-4.977c-1.795,0-3.252-1.375-3.252-3.067v-21.13c0-1.693,1.457-3.066,3.252-3.066h4.977
		c1.797,0,3.25,1.373,3.25,3.066v21.13C26.644,306.218,25.191,307.593,23.394,307.593"/>
	<path class="baranda_bici" fill="#4A4A49" d="M104.96,307.593h-4.977c-1.797,0-3.252-1.375-3.252-3.067v-21.13c0-1.693,1.455-3.066,3.252-3.066h4.977
		c1.795,0,3.25,1.373,3.25,3.066v21.13C108.21,306.218,106.755,307.593,104.96,307.593"/>
</g>
<g id="Layer_1">
	<g id="bici" class="auto">
		<polygon fill="#FCCDAE" points="193.393,296.274 195.264,290.923 202.707,292.745 200.611,297.666 		"/>
		<path fill="#0D4C75" d="M189.357,217.802c0,0,18.917,36.896,20.194,39.196c1.277,2.301-16.521,36.052-16.521,36.052l11.031,2.49
			c0,0,15.29-35.393,15.506-37.622c0.216-2.229-11.298-37.932-11.298-37.932L189.357,217.802z"/>
		<polygon fill="#9E978F" points="191.167,298.691 193.309,294.628 201.935,296.451 200.935,299.543 194.157,301.419 		"/>
		<path fill="#5E2E10" d="M190.413,305.894h26.329c0,0-0.116-3.524-1.5-4.475c-1.385-0.948-11.314-3.354-12.7-3.592
			c-1.385-0.237-3.958,2.016-6.826,2.016c-2.869,0-3.439-2.114-4.254-2.846C190.67,296.285,189.086,303.329,190.413,305.894"/>
		<rect x="190.413" y="305.894" fill="#B8825F" width="26.329" height="1.062"/>
		<path fill="#CCE3E3" d="M162.557,245.157c-20.546,0-37.202,16.656-37.202,37.202s16.655,37.201,37.202,37.201
			c20.546,0,37.202-16.655,37.202-37.201S183.103,245.157,162.557,245.157 M162.557,311.815c-16.269,0-29.456-13.188-29.456-29.456
			s13.187-29.455,29.456-29.455c16.268,0,29.456,13.188,29.456,29.455S178.825,311.815,162.557,311.815"/>
		<path fill="#2B2B2B" d="M162.557,244.199c-21.075,0-38.16,17.085-38.16,38.16s17.085,38.16,38.16,38.16
			c21.075,0,38.161-17.085,38.161-38.16S183.632,244.199,162.557,244.199 M162.557,314.084c-17.521,0-31.725-14.204-31.725-31.725
			c0-17.521,14.204-31.726,31.725-31.726c17.521,0,31.725,14.204,31.725,31.726C194.282,299.88,180.078,314.084,162.557,314.084"/>
		<path fill="#C71B08" d="M254.981,231.648c-0.588,0-1.142-0.355-1.366-0.938c-0.668-1.739-2.192-7.07-3.011-9.937
			c-0.402-1.407-0.43-3.438,0.696-4.93c0.592-0.784,1.733-1.72,3.81-1.72h7.234c0.808,0,1.463,0.655,1.463,1.463
			c0,0.809-0.655,1.463-1.463,1.463h-7.234c-1.055,0-1.371,0.418-1.474,0.556c-0.382,0.506-0.472,1.477-0.22,2.359
			c0.75,2.626,2.308,8.076,2.93,9.695c0.291,0.754-0.086,1.601-0.841,1.89C255.333,231.617,255.155,231.648,254.981,231.648"/>
		<path fill="#2B2B2B" d="M274.859,274.498c-4.258,0-7.71,3.521-7.71,7.861c0,4.342,3.452,7.861,7.71,7.861s7.71-3.52,7.71-7.861
			C282.569,278.019,279.117,274.498,274.859,274.498"/>
		<g opacity="0.4">
			<g>
				<defs>
					<rect id="SVGID_1_" x="268.973" y="276.308" width="11.814" height="11.983"/>
				</defs>
				<clipPath id="SVGID_2_">
					<use xlink:href="#SVGID_1_"  overflow="visible"/>
				</clipPath>
				<path clip-path="url(#SVGID_2_)" fill="#CCE3E3" d="M273.69,288.291c-0.049,0-0.099-0.005-0.149-0.018
					c-0.122-0.028-0.243-0.061-0.362-0.096c-0.351-0.105-0.551-0.48-0.449-0.839c0.104-0.356,0.471-0.563,0.822-0.457
					c0.094,0.029,0.189,0.055,0.286,0.077c0.355,0.084,0.578,0.446,0.497,0.809C274.264,288.08,273.991,288.291,273.69,288.291
					 M276.339,288.212c-0.287,0-0.551-0.192-0.635-0.486c-0.103-0.357,0.099-0.733,0.45-0.837c0.095-0.027,0.188-0.059,0.279-0.093
					c0.344-0.127,0.723,0.055,0.848,0.406c0.124,0.35-0.054,0.737-0.397,0.863c-0.118,0.043-0.237,0.083-0.358,0.119
					C276.462,288.203,276.4,288.212,276.339,288.212 M271.094,286.812c-0.172,0-0.343-0.068-0.473-0.203
					c-0.088-0.091-0.172-0.185-0.254-0.281c-0.24-0.281-0.21-0.708,0.067-0.951c0.276-0.246,0.694-0.214,0.933,0.067
					c0.064,0.076,0.131,0.149,0.2,0.221c0.256,0.267,0.251,0.693-0.01,0.955C271.428,286.747,271.261,286.812,271.094,286.812
					 M278.843,286.577c-0.154,0-0.31-0.055-0.435-0.166c-0.275-0.245-0.304-0.672-0.063-0.952c0.064-0.075,0.126-0.151,0.186-0.231
					c0.223-0.296,0.639-0.351,0.929-0.124c0.29,0.227,0.344,0.649,0.122,0.945c-0.077,0.103-0.156,0.201-0.238,0.298
					C279.211,286.5,279.028,286.577,278.843,286.577 M269.692,284.138c-0.307,0-0.582-0.22-0.647-0.538
					c-0.025-0.125-0.047-0.251-0.065-0.379c-0.051-0.369,0.2-0.711,0.562-0.764c0.358-0.049,0.697,0.204,0.749,0.573
					c0.014,0.1,0.03,0.197,0.05,0.294c0.074,0.366-0.155,0.724-0.513,0.799C269.782,284.132,269.737,284.138,269.692,284.138
					 M280.088,283.824c-0.032,0-0.065-0.003-0.097-0.008c-0.361-0.054-0.612-0.396-0.559-0.765c0.014-0.099,0.025-0.198,0.033-0.298
					c0.031-0.372,0.349-0.647,0.715-0.616c0.364,0.031,0.635,0.357,0.604,0.729c-0.011,0.128-0.025,0.255-0.043,0.382
					C280.694,283.583,280.411,283.824,280.088,283.824 M269.931,281.115c-0.079,0-0.16-0.014-0.237-0.045
					c-0.341-0.133-0.512-0.523-0.38-0.871c0.045-0.121,0.093-0.238,0.145-0.354c0.152-0.34,0.545-0.489,0.877-0.333
					c0.333,0.154,0.479,0.555,0.327,0.894c-0.041,0.091-0.078,0.183-0.114,0.276C270.448,280.951,270.197,281.115,269.931,281.115
					 M279.675,280.822c-0.252,0-0.493-0.147-0.604-0.396c-0.041-0.092-0.083-0.182-0.129-0.27c-0.172-0.328-0.049-0.737,0.274-0.912
					s0.724-0.049,0.895,0.279c0.059,0.113,0.115,0.229,0.167,0.345c0.151,0.34,0.003,0.739-0.331,0.894
					C279.858,280.803,279.766,280.822,279.675,280.822 M271.734,278.705c-0.202,0-0.402-0.095-0.532-0.273
					c-0.218-0.3-0.156-0.723,0.138-0.943c0.101-0.077,0.206-0.15,0.312-0.22c0.307-0.201,0.717-0.11,0.915,0.202
					c0.197,0.313,0.108,0.731-0.199,0.933c-0.082,0.054-0.162,0.11-0.24,0.169C272.009,278.661,271.871,278.705,271.734,278.705
					 M277.734,278.523c-0.124,0-0.249-0.036-0.36-0.109c-0.081-0.055-0.164-0.105-0.249-0.154c-0.319-0.181-0.433-0.593-0.254-0.918
					c0.178-0.326,0.581-0.441,0.901-0.259c0.11,0.063,0.218,0.129,0.324,0.199c0.306,0.203,0.393,0.622,0.194,0.934
					C278.162,278.415,277.951,278.523,277.734,278.523 M274.528,277.669c-0.346,0-0.637-0.274-0.66-0.632
					c-0.023-0.372,0.253-0.693,0.618-0.717c0.125-0.008,0.25-0.013,0.377-0.013c0.365,0,0.673,0.303,0.673,0.676
					c0,0.372-0.285,0.675-0.651,0.675c-0.009,0-0.041-0.001-0.05-0.001c-0.07,0-0.167,0.004-0.265,0.01
					C274.556,277.669,274.542,277.669,274.528,277.669"/>
			</g>
		</g>
		<path fill="#CCE3E3" d="M274.859,245.157c-20.546,0-37.202,16.656-37.202,37.202s16.656,37.201,37.202,37.201
			c20.546,0,37.202-16.655,37.202-37.201S295.405,245.157,274.859,245.157 M274.859,311.815c-16.268,0-29.456-13.188-29.456-29.456
			s13.188-29.455,29.456-29.455c16.268,0,29.456,13.188,29.456,29.455S291.127,311.815,274.859,311.815"/>
		<path fill="#2B2B2B" d="M274.859,244.199c-21.075,0-38.16,17.085-38.16,38.16s17.085,38.16,38.16,38.16
			c21.075,0,38.161-17.085,38.161-38.16S295.934,244.199,274.859,244.199 M274.859,314.084c-17.521,0-31.725-14.204-31.725-31.725
			c0-17.521,14.204-31.726,31.725-31.726s31.725,14.204,31.725,31.726C306.584,299.88,292.38,314.084,274.859,314.084"/>
		<path fill="#798787" d="M209.059,289.496c0,1.223-0.99,2.212-2.211,2.212s-2.211-0.989-2.211-2.212
			c0-1.221,0.99-2.211,2.211-2.211S209.059,288.275,209.059,289.496"/>
		<path fill="#C71B08" d="M255.459,233.968c0.566,0,1.026,0.458,1.026,1.024v1.509c0,0.565-0.459,1.025-1.026,1.025h-63.552
			c-0.566,0-1.025-0.46-1.025-1.025v-1.509c0-0.566,0.459-1.024,1.025-1.024H255.459z"/>
		<path fill="#C71B08" d="M253.185,234.415c0.38-0.42,1.029-0.451,1.448-0.071l1.117,1.014c0.419,0.38,0.451,1.029,0.07,1.448
			l-42.696,47.075c-0.38,0.418-1.029,0.45-1.448,0.069l-1.118-1.013c-0.419-0.381-0.451-1.028-0.07-1.448L253.185,234.415z"/>
		<path fill="#C71B08" d="M208.125,288.856c0.145,0.548-0.181,1.108-0.729,1.254l-1.458,0.387c-0.548,0.146-1.108-0.181-1.254-0.729
			l-18.787-67.411c-0.146-0.548,0.181-1.108,0.728-1.254l1.458-0.387c0.547-0.146,1.108,0.181,1.254,0.729L208.125,288.856z"/>
		<path fill="#A81707" d="M193.188,231.774c0.232,0.877-0.291,1.776-1.167,2.009l-2.337,0.619c-0.877,0.233-1.776-0.288-2.009-1.166
			l-3.381-12.75c-0.233-0.877,0.29-1.777,1.167-2.01l2.336-0.62c0.877-0.231,1.777,0.291,2.009,1.167L193.188,231.774z"/>
		<path fill="#C71B08" d="M276.54,282.084c0.2,0.53-0.067,1.121-0.596,1.322l-1.411,0.532c-0.53,0.2-1.121-0.066-1.322-0.597
			l-19.452-51.509c-0.2-0.53,0.067-1.121,0.597-1.322l1.411-0.532c0.529-0.201,1.121,0.066,1.321,0.597L276.54,282.084z"/>
		<path fill="#A81707" d="M260.839,238.715c0.321,0.849-0.107,1.797-0.956,2.117l-2.261,0.854c-0.849,0.321-1.797-0.107-2.118-0.956
			l-3.533-10.596c-0.321-0.849,0.107-1.797,0.957-2.117l2.261-0.854c0.849-0.321,1.797,0.107,2.118,0.955L260.839,238.715z"/>
		<path fill="#0D0D0D" d="M203.479,221.291c-4.815,0-9.713,3.769-15.575,3.769c-5.861,0-12.093-3.683-12.943-6.799
			c-0.85-3.116,3.116-5.101,6.043-3.589c2.928,1.511,5.005,3.211,9.538,3.211c4.533,0,9.525-0.284,11.562,0.189
			C204.14,218.543,204.14,220.45,203.479,221.291"/>
		<path fill="#CCE3E3" d="M274.859,278.95c-1.847,0-3.344,1.526-3.344,3.409c0,1.884,1.497,3.409,3.344,3.409
			s3.344-1.525,3.344-3.409C278.203,280.477,276.706,278.95,274.859,278.95"/>
		<path fill="#292E2E" d="M274.859,280.654c-0.923,0-1.672,0.764-1.672,1.705s0.749,1.704,1.672,1.704
			c0.923,0,1.672-0.763,1.672-1.704S275.782,280.654,274.859,280.654"/>
		<path fill="#272B2B" d="M220.982,270.204c0,0.462-0.374,0.835-0.836,0.835h-13.329c-0.462,0-0.836-0.373-0.836-0.835v-1.066
			c0-0.461,0.374-0.836,0.836-0.836h13.329c0.462,0,0.836,0.375,0.836,0.836V270.204z"/>
		<path fill="#272B2B" d="M209.965,308.856c0,0.462-0.375,0.836-0.836,0.836H195.8c-0.462,0-0.836-0.374-0.836-0.836v-1.065
			c0-0.462,0.374-0.836,0.836-0.836h13.329c0.461,0,0.836,0.374,0.836,0.836V308.856z"/>
		<polygon fill="#1A1C1C" points="202.695,308.335 200.897,308.335 205.919,290.455 207.717,290.455 		"/>
		<polygon fill="#1A1C1C" points="208.289,288.458 206.491,288.458 211.512,270.578 213.31,270.578 		"/>
		<path fill="#C71B08" d="M164.033,283.596c-0.305,0.477-0.939,0.616-1.416,0.311l-1.27-0.813c-0.477-0.306-0.616-0.939-0.311-1.416
			l28.876-46.126c0.306-0.478,0.939-0.615,1.417-0.311l1.27,0.814c0.477,0.305,0.616,0.938,0.311,1.416L164.033,283.596z"/>
		<path fill="#535C5C" d="M163.447,276.982c-0.023,0-0.046-0.001-0.07-0.003l-0.417-0.038c-0.345-0.032-0.599-0.336-0.567-0.682
			c0.032-0.345,0.335-0.599,0.682-0.567l0.416,0.039c0.345,0.03,0.599,0.336,0.567,0.681
			C164.029,276.734,163.762,276.977,163.447,276.982"/>
		<path fill="#535C5C" d="M207.213,280.975c-0.023,0.001-0.046,0-0.069-0.003l-0.842-0.076c-0.162-0.015-0.304-0.09-0.406-0.201
			c-0.121,0.091-0.274,0.139-0.436,0.124l-0.842-0.076c-0.162-0.015-0.304-0.09-0.406-0.202c-0.12,0.092-0.274,0.139-0.436,0.125
			l-0.842-0.076c-0.162-0.016-0.304-0.091-0.406-0.202c-0.12,0.092-0.273,0.138-0.436,0.125l-0.841-0.077
			c-0.163-0.015-0.305-0.09-0.407-0.201c-0.12,0.091-0.271,0.14-0.435,0.124l-0.842-0.076c-0.162-0.015-0.305-0.09-0.406-0.202
			c-0.12,0.092-0.273,0.141-0.436,0.125l-0.842-0.076c-0.162-0.016-0.304-0.091-0.406-0.201c-0.121,0.091-0.274,0.137-0.436,0.124
			l-0.841-0.077c-0.163-0.015-0.304-0.09-0.406-0.201c-0.12,0.091-0.273,0.138-0.436,0.125l-0.842-0.077
			c-0.162-0.015-0.304-0.09-0.406-0.202c-0.121,0.092-0.273,0.14-0.436,0.126l-0.842-0.077c-0.162-0.015-0.305-0.09-0.406-0.201
			c-0.12,0.091-0.273,0.138-0.435,0.124l-0.842-0.076c-0.163-0.016-0.305-0.091-0.406-0.202c-0.12,0.092-0.273,0.14-0.436,0.126
			l-0.842-0.077c-0.162-0.016-0.304-0.091-0.406-0.202c-0.121,0.091-0.273,0.139-0.436,0.125l-0.842-0.077
			c-0.162-0.015-0.304-0.09-0.406-0.201c-0.12,0.092-0.274,0.138-0.436,0.125l-0.841-0.077c-0.162-0.016-0.305-0.091-0.406-0.202
			c-0.12,0.092-0.272,0.14-0.435,0.126l-0.842-0.077c-0.162-0.015-0.304-0.09-0.406-0.202c-0.12,0.091-0.272,0.14-0.436,0.125
			l-0.842-0.077c-0.162-0.015-0.304-0.09-0.406-0.201c-0.12,0.092-0.275,0.139-0.436,0.125l-0.842-0.077
			c-0.162-0.015-0.303-0.091-0.405-0.202c-0.121,0.092-0.274,0.139-0.436,0.126l-0.842-0.077c-0.162-0.015-0.304-0.09-0.406-0.201
			c-0.121,0.091-0.272,0.139-0.436,0.124l-0.842-0.076c-0.162-0.016-0.304-0.091-0.406-0.202c-0.121,0.092-0.273,0.14-0.436,0.125
			l-0.842-0.076c-0.163-0.016-0.305-0.091-0.406-0.202c-0.12,0.091-0.272,0.14-0.436,0.125l-0.842-0.077
			c-0.162-0.015-0.304-0.09-0.406-0.201c-0.121,0.091-0.274,0.138-0.436,0.125l-0.841-0.077c-0.163-0.016-0.304-0.091-0.406-0.202
			c-0.121,0.092-0.275,0.14-0.436,0.125l-0.842-0.076c-0.162-0.015-0.304-0.09-0.406-0.202c-0.12,0.092-0.271,0.139-0.435,0.125
			l-0.841-0.076c-0.163-0.016-0.305-0.091-0.407-0.202c-0.12,0.092-0.273,0.139-0.436,0.125l-0.842-0.077
			c-0.162-0.016-0.304-0.091-0.406-0.202c-0.121,0.092-0.273,0.139-0.436,0.125l-0.841-0.076c-0.162-0.015-0.304-0.09-0.406-0.202
			c-0.12,0.092-0.274,0.138-0.436,0.126l-0.842-0.077c-0.345-0.032-0.599-0.337-0.567-0.683c0.031-0.345,0.334-0.597,0.681-0.566
			l0.842,0.076c0.162,0.015,0.304,0.09,0.405,0.202c0.121-0.092,0.274-0.14,0.436-0.125l0.842,0.077
			c0.162,0.015,0.304,0.09,0.406,0.201c0.12-0.092,0.273-0.139,0.436-0.125l0.841,0.077c0.163,0.015,0.304,0.09,0.406,0.201
			c0.12-0.091,0.274-0.137,0.436-0.125l0.841,0.077c0.163,0.015,0.305,0.09,0.406,0.202c0.121-0.091,0.273-0.138,0.436-0.125
			l0.841,0.077c0.162,0.015,0.304,0.09,0.406,0.201c0.12-0.092,0.273-0.139,0.436-0.125l0.842,0.077
			c0.161,0.015,0.303,0.09,0.405,0.201c0.12-0.092,0.273-0.139,0.436-0.125l0.841,0.077c0.163,0.015,0.304,0.09,0.406,0.201
			c0.12-0.09,0.275-0.137,0.435-0.125l0.842,0.077c0.162,0.015,0.305,0.09,0.406,0.201c0.121-0.091,0.274-0.138,0.436-0.124
			l0.842,0.077c0.162,0.015,0.304,0.089,0.406,0.201c0.121-0.091,0.275-0.138,0.436-0.125l0.842,0.077
			c0.162,0.015,0.304,0.09,0.406,0.201c0.12-0.091,0.273-0.14,0.436-0.125l0.841,0.077c0.162,0.015,0.304,0.09,0.406,0.201
			c0.12-0.092,0.274-0.139,0.436-0.124l0.842,0.076c0.163,0.015,0.305,0.091,0.407,0.202c0.12-0.091,0.274-0.139,0.435-0.125
			l0.841,0.076c0.163,0.015,0.304,0.09,0.407,0.201c0.12-0.091,0.274-0.137,0.436-0.124l0.842,0.077
			c0.162,0.015,0.304,0.09,0.406,0.201c0.12-0.092,0.272-0.139,0.436-0.125l0.841,0.076c0.163,0.016,0.304,0.091,0.406,0.202
			c0.12-0.091,0.273-0.139,0.436-0.125l0.842,0.077c0.162,0.015,0.304,0.09,0.406,0.201c0.121-0.091,0.274-0.138,0.436-0.124
			l0.841,0.076c0.163,0.016,0.305,0.091,0.406,0.202c0.121-0.091,0.274-0.139,0.436-0.125l0.842,0.076
			c0.162,0.015,0.304,0.09,0.406,0.202c0.121-0.091,0.274-0.139,0.436-0.125l0.842,0.077c0.162,0.015,0.304,0.09,0.405,0.201
			c0.121-0.092,0.274-0.14,0.436-0.125l0.842,0.077c0.162,0.016,0.304,0.091,0.406,0.201c0.121-0.091,0.272-0.14,0.436-0.124
			l0.841,0.075c0.163,0.016,0.304,0.091,0.406,0.203c0.12-0.091,0.274-0.138,0.436-0.125l0.841,0.076
			c0.162,0.016,0.305,0.091,0.407,0.202c0.12-0.091,0.275-0.138,0.436-0.125l0.841,0.077c0.162,0.016,0.304,0.091,0.406,0.202
			c0.12-0.092,0.273-0.14,0.436-0.126l0.842,0.076c0.162,0.016,0.304,0.091,0.405,0.203c0.121-0.092,0.274-0.14,0.436-0.126
			l0.842,0.077c0.162,0.016,0.304,0.091,0.406,0.202c0.121-0.092,0.273-0.138,0.436-0.125l0.842,0.077
			c0.344,0.03,0.599,0.336,0.567,0.681C207.795,280.726,207.529,280.969,207.213,280.975"/>
		<path fill="#535C5C" d="M208.472,281.09c-0.023,0-0.047-0.001-0.07-0.003l-0.417-0.038c-0.344-0.032-0.599-0.336-0.566-0.682
			c0.031-0.345,0.336-0.598,0.681-0.567l0.416,0.038c0.345,0.031,0.599,0.337,0.567,0.682
			C209.054,280.841,208.787,281.083,208.472,281.09"/>
		<path fill="#535C5C" d="M159.494,288.621c-0.023-0.004-0.046-0.008-0.069-0.014l-0.406-0.098c-0.336-0.082-0.543-0.42-0.462-0.757
			c0.082-0.337,0.419-0.544,0.757-0.462l0.406,0.098c0.337,0.081,0.544,0.42,0.462,0.757
			C160.106,288.459,159.807,288.659,159.494,288.621"/>
		<path fill="#535C5C" d="M202.219,298.917c-0.023-0.003-0.046-0.007-0.069-0.013l-0.822-0.197
			c-0.158-0.039-0.288-0.133-0.373-0.259c-0.132,0.073-0.291,0.098-0.449,0.06l-0.822-0.198c-0.159-0.037-0.288-0.133-0.372-0.258
			c-0.132,0.073-0.292,0.098-0.45,0.062l-0.822-0.199c-0.158-0.038-0.288-0.133-0.372-0.259c-0.132,0.073-0.291,0.098-0.449,0.062
			l-0.821-0.199c-0.159-0.038-0.288-0.133-0.373-0.257c-0.132,0.072-0.29,0.098-0.449,0.06l-0.822-0.197
			c-0.158-0.039-0.288-0.134-0.373-0.259c-0.132,0.072-0.291,0.099-0.449,0.06l-0.822-0.198c-0.159-0.038-0.289-0.133-0.373-0.257
			c-0.132,0.072-0.291,0.096-0.449,0.06l-0.822-0.198c-0.159-0.038-0.288-0.133-0.372-0.259c-0.132,0.073-0.291,0.097-0.45,0.061
			l-0.821-0.198c-0.159-0.038-0.289-0.133-0.373-0.258c-0.132,0.073-0.291,0.098-0.449,0.061l-0.822-0.198
			c-0.158-0.038-0.288-0.134-0.372-0.258c-0.133,0.072-0.291,0.097-0.449,0.06l-0.822-0.197c-0.158-0.039-0.288-0.134-0.373-0.259
			c-0.132,0.073-0.291,0.099-0.449,0.061l-0.821-0.198c-0.159-0.038-0.288-0.134-0.373-0.259c-0.132,0.073-0.29,0.098-0.449,0.061
			l-0.821-0.198c-0.159-0.038-0.288-0.133-0.373-0.258c-0.132,0.073-0.292,0.098-0.45,0.061l-0.821-0.198
			c-0.159-0.038-0.288-0.134-0.373-0.259c-0.132,0.073-0.29,0.099-0.448,0.061l-0.822-0.198c-0.158-0.038-0.288-0.133-0.372-0.259
			c-0.132,0.074-0.29,0.099-0.45,0.061l-0.821-0.197c-0.158-0.038-0.288-0.134-0.373-0.259c-0.132,0.073-0.292,0.097-0.449,0.061
			l-0.821-0.198c-0.158-0.038-0.288-0.133-0.372-0.259c-0.133,0.073-0.292,0.098-0.45,0.061l-0.822-0.197
			c-0.158-0.038-0.288-0.134-0.373-0.259c-0.132,0.073-0.29,0.099-0.449,0.061l-0.822-0.198c-0.158-0.038-0.288-0.133-0.373-0.259
			c-0.132,0.074-0.29,0.099-0.449,0.061l-0.822-0.197c-0.158-0.038-0.288-0.134-0.373-0.259c-0.132,0.073-0.29,0.099-0.449,0.061
			l-0.822-0.198c-0.158-0.038-0.288-0.133-0.373-0.259c-0.132,0.073-0.291,0.098-0.449,0.061l-0.822-0.197
			c-0.158-0.038-0.288-0.134-0.372-0.259c-0.132,0.073-0.292,0.098-0.449,0.061l-0.822-0.198c-0.158-0.038-0.288-0.133-0.373-0.259
			c-0.132,0.073-0.29,0.098-0.449,0.061l-0.822-0.197c-0.158-0.038-0.288-0.134-0.373-0.259c-0.132,0.073-0.291,0.098-0.449,0.06
			l-0.822-0.197c-0.158-0.039-0.288-0.133-0.372-0.259c-0.132,0.073-0.291,0.097-0.45,0.061l-0.821-0.197
			c-0.159-0.038-0.288-0.134-0.372-0.259c-0.132,0.072-0.292,0.097-0.45,0.061l-0.822-0.198c-0.336-0.081-0.543-0.42-0.462-0.757
			c0.082-0.337,0.418-0.542,0.757-0.462l0.821,0.197c0.158,0.038,0.288,0.134,0.373,0.259c0.132-0.074,0.291-0.099,0.449-0.061
			l0.821,0.198c0.158,0.038,0.288,0.133,0.373,0.259c0.132-0.074,0.291-0.099,0.449-0.062l0.821,0.198
			c0.159,0.038,0.289,0.134,0.373,0.259c0.132-0.072,0.291-0.096,0.449-0.061l0.822,0.198c0.159,0.038,0.288,0.133,0.373,0.259
			c0.132-0.073,0.291-0.098,0.449-0.061l0.822,0.197c0.158,0.038,0.288,0.134,0.372,0.259c0.132-0.073,0.291-0.099,0.449-0.061
			l0.822,0.198c0.158,0.038,0.288,0.133,0.373,0.258c0.132-0.073,0.291-0.097,0.449-0.06l0.822,0.197
			c0.158,0.038,0.288,0.134,0.372,0.259c0.132-0.072,0.292-0.097,0.449-0.061l0.822,0.198c0.159,0.038,0.289,0.133,0.373,0.259
			c0.132-0.073,0.292-0.097,0.449-0.061l0.822,0.197c0.159,0.038,0.288,0.134,0.373,0.258c0.132-0.071,0.292-0.096,0.449-0.06
			l0.822,0.198c0.158,0.038,0.288,0.133,0.372,0.259c0.132-0.074,0.29-0.099,0.45-0.061l0.821,0.198
			c0.158,0.037,0.288,0.133,0.372,0.258c0.132-0.073,0.292-0.099,0.45-0.061l0.822,0.198c0.158,0.038,0.288,0.133,0.372,0.259
			c0.133-0.073,0.292-0.097,0.449-0.061l0.822,0.198c0.159,0.038,0.288,0.133,0.374,0.258c0.132-0.072,0.291-0.097,0.449-0.061
			l0.821,0.198c0.158,0.038,0.288,0.133,0.373,0.259c0.132-0.073,0.29-0.098,0.449-0.061l0.822,0.198
			c0.158,0.038,0.288,0.133,0.373,0.258c0.132-0.073,0.29-0.098,0.449-0.061l0.821,0.198c0.158,0.038,0.288,0.133,0.372,0.258
			c0.133-0.072,0.292-0.096,0.45-0.06l0.821,0.198c0.158,0.038,0.289,0.133,0.373,0.258c0.132-0.072,0.291-0.098,0.449-0.061
			l0.821,0.198c0.158,0.038,0.288,0.134,0.373,0.259c0.133-0.073,0.292-0.098,0.45-0.061l0.821,0.198
			c0.158,0.038,0.288,0.133,0.373,0.258c0.132-0.073,0.291-0.099,0.449-0.061l0.822,0.198c0.158,0.038,0.288,0.134,0.373,0.259
			c0.132-0.073,0.289-0.099,0.449-0.061l0.821,0.198c0.158,0.038,0.288,0.133,0.373,0.258c0.132-0.072,0.291-0.097,0.449-0.061
			l0.821,0.198c0.159,0.038,0.288,0.134,0.373,0.259c0.132-0.072,0.292-0.096,0.449-0.061l0.821,0.198
			c0.158,0.039,0.288,0.134,0.372,0.259c0.132-0.074,0.291-0.099,0.449-0.061l0.822,0.197c0.159,0.039,0.288,0.134,0.373,0.259
			c0.132-0.073,0.291-0.098,0.449-0.061l0.822,0.198c0.158,0.038,0.288,0.133,0.372,0.259c0.132-0.073,0.291-0.098,0.449-0.061
			l0.821,0.197c0.337,0.082,0.544,0.421,0.463,0.757C202.831,298.755,202.532,298.957,202.219,298.917"/>
		<path fill="#535C5C" d="M203.447,299.213c-0.023-0.003-0.046-0.007-0.069-0.013l-0.407-0.098
			c-0.336-0.082-0.543-0.421-0.462-0.757c0.081-0.337,0.42-0.542,0.756-0.463l0.407,0.098c0.336,0.082,0.543,0.42,0.462,0.757
			C204.059,299.051,203.76,299.253,203.447,299.213"/>
		<path fill="#2B2B2B" d="M162.557,274.498c-4.258,0-7.71,3.521-7.71,7.861c0,4.342,3.452,7.861,7.71,7.861
			c4.258,0,7.709-3.52,7.709-7.861C170.267,278.019,166.815,274.498,162.557,274.498"/>
		<g opacity="0.4">
			<g>
				<defs>
					<rect id="SVGID_3_" x="156.671" y="276.308" width="11.814" height="11.983"/>
				</defs>
				<clipPath id="SVGID_4_">
					<use xlink:href="#SVGID_3_"  overflow="visible"/>
				</clipPath>
				<path clip-path="url(#SVGID_4_)" fill="#CCE3E3" d="M161.388,288.291c-0.049,0-0.099-0.005-0.149-0.018
					c-0.123-0.028-0.244-0.061-0.362-0.096c-0.351-0.105-0.551-0.48-0.449-0.839c0.103-0.356,0.471-0.563,0.822-0.457
					c0.094,0.029,0.189,0.055,0.285,0.077c0.356,0.084,0.579,0.446,0.497,0.809C161.961,288.08,161.689,288.291,161.388,288.291
					 M164.037,288.212c-0.287,0-0.551-0.192-0.635-0.486c-0.103-0.357,0.099-0.733,0.45-0.837c0.095-0.027,0.188-0.059,0.279-0.093
					c0.344-0.127,0.724,0.055,0.848,0.406c0.125,0.35-0.054,0.737-0.398,0.863c-0.118,0.043-0.237,0.083-0.358,0.119
					C164.161,288.203,164.098,288.212,164.037,288.212 M158.792,286.812c-0.172,0-0.343-0.068-0.473-0.203
					c-0.087-0.091-0.172-0.185-0.254-0.281c-0.239-0.281-0.21-0.708,0.066-0.951c0.277-0.246,0.695-0.214,0.934,0.067
					c0.064,0.076,0.13,0.149,0.199,0.221c0.256,0.267,0.251,0.693-0.01,0.955C159.126,286.747,158.959,286.812,158.792,286.812
					 M166.542,286.577c-0.154,0-0.31-0.055-0.435-0.166c-0.275-0.245-0.304-0.672-0.063-0.952c0.064-0.075,0.127-0.151,0.186-0.231
					c0.222-0.296,0.638-0.351,0.928-0.124c0.29,0.227,0.344,0.649,0.122,0.945c-0.077,0.103-0.156,0.201-0.239,0.298
					C166.91,286.5,166.726,286.577,166.542,286.577 M157.39,284.138c-0.307,0-0.583-0.22-0.647-0.538
					c-0.026-0.125-0.047-0.251-0.065-0.379c-0.051-0.369,0.2-0.711,0.563-0.764c0.358-0.049,0.697,0.204,0.749,0.573
					c0.014,0.1,0.031,0.197,0.05,0.294c0.074,0.366-0.156,0.724-0.513,0.799C157.479,284.132,157.435,284.138,157.39,284.138
					 M167.787,283.824c-0.033,0-0.065-0.003-0.098-0.008c-0.362-0.054-0.612-0.396-0.558-0.765c0.014-0.099,0.025-0.198,0.033-0.298
					c0.031-0.372,0.349-0.647,0.715-0.616c0.364,0.031,0.635,0.357,0.604,0.729c-0.011,0.128-0.025,0.255-0.043,0.382
					C168.392,283.583,168.109,283.824,167.787,283.824 M157.629,281.115c-0.079,0-0.16-0.014-0.237-0.045
					c-0.341-0.133-0.512-0.523-0.381-0.871c0.045-0.121,0.094-0.238,0.146-0.354c0.152-0.34,0.544-0.489,0.877-0.333
					c0.333,0.154,0.479,0.555,0.328,0.894c-0.042,0.091-0.079,0.183-0.114,0.276C158.146,280.951,157.895,281.115,157.629,281.115
					 M167.373,280.822c-0.252,0-0.492-0.147-0.604-0.396c-0.041-0.092-0.083-0.182-0.129-0.27c-0.171-0.328-0.049-0.737,0.274-0.912
					s0.724-0.049,0.896,0.279c0.059,0.113,0.114,0.229,0.167,0.345c0.15,0.34,0.002,0.739-0.33,0.894
					C167.557,280.803,167.464,280.822,167.373,280.822 M159.433,278.705c-0.203,0-0.403-0.095-0.532-0.273
					c-0.218-0.3-0.156-0.723,0.138-0.943c0.101-0.077,0.206-0.15,0.312-0.22c0.307-0.201,0.717-0.11,0.915,0.202
					c0.198,0.313,0.108,0.731-0.199,0.933c-0.081,0.054-0.162,0.11-0.239,0.169C159.708,278.661,159.569,278.705,159.433,278.705
					 M165.432,278.523c-0.124,0-0.249-0.036-0.36-0.109c-0.082-0.055-0.164-0.105-0.249-0.154c-0.319-0.181-0.433-0.593-0.255-0.918
					c0.178-0.326,0.582-0.441,0.901-0.259c0.111,0.063,0.219,0.129,0.325,0.199c0.306,0.203,0.393,0.622,0.194,0.934
					C165.86,278.415,165.648,278.523,165.432,278.523 M162.226,277.669c-0.346,0-0.638-0.274-0.66-0.632
					c-0.023-0.372,0.254-0.693,0.619-0.717c0.125-0.008,0.25-0.013,0.376-0.013c0.366,0,0.673,0.303,0.673,0.676
					c0,0.372-0.285,0.675-0.65,0.675c-0.009,0-0.042-0.001-0.05-0.001c-0.071,0-0.168,0.004-0.265,0.01
					C162.254,277.669,162.24,277.669,162.226,277.669"/>
			</g>
		</g>
		<path fill="#C71B08" d="M161.375,284.421c-0.559-0.09-0.939-0.616-0.849-1.175l0.241-1.489c0.09-0.56,0.617-0.938,1.176-0.849
			l45.34,6.868c0.559,0.09,0.939,0.617,0.849,1.176l-0.241,1.488c-0.089,0.56-0.616,0.939-1.175,0.85L161.375,284.421z"/>
		<path fill="#CCE3E3" d="M162.557,278.95c-1.847,0-3.344,1.526-3.344,3.409c0,1.884,1.497,3.409,3.344,3.409
			s3.344-1.525,3.344-3.409C165.901,280.477,164.404,278.95,162.557,278.95"/>
		<path fill="#292E2E" d="M162.557,280.654c-0.924,0-1.672,0.764-1.672,1.705s0.748,1.704,1.672,1.704
			c0.923,0,1.672-0.763,1.672-1.704S163.48,280.654,162.557,280.654"/>
		<polygon fill="#CCE3E3" points="214.689,285.901 213.426,283.946 207.652,287.678 207.652,280.803 205.325,280.803 
			205.325,287.678 199.552,283.946 198.288,285.901 204.345,289.815 198.288,293.729 199.552,295.685 205.325,291.953 
			205.325,298.828 207.652,298.828 207.652,291.953 213.426,295.685 214.689,293.729 208.632,289.815 		"/>
		<path fill="#4D5757" d="M217.104,287.059c-0.205-0.25-0.459-0.563-0.512-0.728c-0.062-0.189-0.041-0.593-0.023-0.947
			c0.039-0.783,0.089-1.758-0.51-2.581c-0.603-0.828-1.55-1.081-2.311-1.285c-0.339-0.092-0.725-0.194-0.879-0.307
			c-0.148-0.108-0.372-0.453-0.551-0.731c-0.431-0.665-0.966-1.493-1.952-1.813c-0.249-0.082-0.514-0.122-0.789-0.122
			c-0.659,0-1.263,0.23-1.796,0.435c-0.338,0.129-0.722,0.275-0.933,0.275s-0.594-0.146-0.933-0.275
			c-0.533-0.204-1.137-0.435-1.796-0.435c-0.275,0-0.541,0.04-0.79,0.122c-0.985,0.318-1.521,1.147-1.952,1.813
			c-0.179,0.278-0.402,0.623-0.551,0.731c-0.154,0.112-0.54,0.215-0.879,0.307c-0.761,0.204-1.707,0.457-2.31,1.285
			c-0.599,0.822-0.549,1.797-0.51,2.581c0.018,0.354,0.038,0.758-0.023,0.947c-0.054,0.164-0.308,0.478-0.512,0.728
			c-0.503,0.619-1.13,1.389-1.13,2.438c0,1.051,0.626,1.82,1.13,2.438c0.204,0.251,0.458,0.564,0.512,0.729
			c0.062,0.189,0.041,0.592,0.023,0.947c-0.039,0.783-0.088,1.757,0.51,2.58c0.604,0.829,1.55,1.083,2.311,1.286
			c0.34,0.092,0.725,0.194,0.879,0.307c0.148,0.108,0.372,0.453,0.551,0.73c0.431,0.665,0.966,1.494,1.952,1.814
			c0.249,0.08,0.514,0.121,0.79,0.121c0.659,0,1.263-0.23,1.796-0.434c0.339-0.129,0.722-0.276,0.933-0.276s0.595,0.147,0.933,0.276
			c0.533,0.203,1.138,0.434,1.796,0.434c0.275,0,0.541-0.041,0.79-0.121c0.985-0.32,1.521-1.148,1.951-1.814
			c0.179-0.276,0.402-0.622,0.551-0.73c0.154-0.112,0.54-0.215,0.879-0.307c0.76-0.204,1.707-0.457,2.31-1.286
			c0.599-0.823,0.549-1.797,0.51-2.58c-0.018-0.355-0.039-0.758,0.023-0.947c0.053-0.164,0.308-0.478,0.512-0.729
			c0.504-0.618,1.13-1.389,1.13-2.438C218.233,288.447,217.607,287.678,217.104,287.059 M206.848,296.975
			c-4.129,0-7.477-3.349-7.477-7.479c0-4.128,3.348-7.477,7.477-7.477s7.477,3.349,7.477,7.477
			C214.325,293.626,210.977,296.975,206.848,296.975"/>
		<path fill="#4B5454" d="M211.7,289.496c0,2.681-2.173,4.854-4.853,4.854c-2.68,0-4.853-2.173-4.853-4.854
			c0-2.679,2.172-4.853,4.853-4.853C209.527,284.644,211.7,286.817,211.7,289.496"/>
		<path fill="#5D6969" d="M210.013,289.496c0,1.75-1.417,3.167-3.166,3.167c-1.749,0-3.166-1.417-3.166-3.167
			c0-1.748,1.417-3.165,3.166-3.165C208.596,286.331,210.013,287.748,210.013,289.496"/>
		<path fill="#343B3B" d="M208.278,289.496c0,0.791-0.641,1.432-1.431,1.432c-0.791,0-1.431-0.641-1.431-1.432
			c0-0.789,0.64-1.43,1.431-1.43C207.638,288.066,208.278,288.707,208.278,289.496"/>
		<polygon fill="#FCCDAE" points="240.394,154.254 232.582,157.083 234.394,167.131 245.476,161.438 		"/>
		<path fill="#E6B28F" d="M264.219,205.336c-0.631,0.075-7.03-0.7-7.853-0.742c-0.822-0.043-22.19-2.534-25.041-2.354
			c0,0,2.216-19.283,1.953-25.235l-11.893,0.36c0,0,0.283,19.874,1.07,24.452c0.788,4.579,1.407,5.491,4.166,6.164
			c2.758,0.673,29.571,1.519,29.571,1.519s0.588,3.478,2.839,3.916c2.25,0.439,4.378,0.325,4.378,0.325s2.989,0.73,3.643-0.935
			C267.707,211.142,264.851,205.261,264.219,205.336"/>
		<path fill="#141414" d="M221.093,181.717l13.01-1.73c0,0,2.481-18.18-7.065-16.762S221.093,181.717,221.093,181.717"/>
		<polygon fill="#FCCDAE" points="205.57,258.326 208.633,253.065 216.596,254.797 213.31,259.556 		"/>
		<polygon fill="#9E978F" points="204.464,259.573 205.981,256.247 214.689,258.298 213.481,260.595 207.454,262.302 		"/>
		<path fill="#5E2E10" d="M202.976,267.241h26.329c0,0-0.115-3.525-1.5-4.474c-1.385-0.95-11.314-3.357-12.699-3.594
			c-1.385-0.237-3.958,2.017-6.827,2.017c-2.869,0-3.439-2.113-4.254-2.847C203.233,257.632,201.648,264.677,202.976,267.241"/>
		<rect x="202.976" y="267.241" fill="#B8825F" width="26.329" height="1.061"/>
		<path fill="#116399" d="M205.417,254.104l11.31,3.813c0,0,26.305-24.085,29.862-28.006c3.557-3.922,3.76-7.871,0.021-9.206
			c-3.739-1.334-39.109-15.288-41.115-15.47c-2.006-0.183-29.38,3.83-29.38,3.83s0.307,8.22,5.198,10.54
			c15.7,7.449,47.241,10.306,47.241,10.306L205.417,254.104z"/>
		<path fill="#242424" d="M206.468,205.477c0,0-15.206,5.598-30.122,5.449c-5.39-0.055-8.722-4.073-8.722-4.073
			c0.127-1.522,8.916-26.397,34.78-40.773c8.046-4.472,18.717-8.18,30.048-9.53c0,0,3.714,14.58,0,20.356
			C228.739,182.683,221.46,179.884,206.468,205.477"/>
		<path fill="#303030" d="M230.88,156.549l1.989-0.425c0,0,1.524,5.296,1.989,10.859l-0.755,1.373L230.88,156.549z"/>
		<path fill="#FCCDAE" d="M241.123,158.634c0,0,3.448,4.075,5.852,5.434c2.403,1.358,9.927,4.075,10.45,3.448
			c0.522-0.627,3.135-6.688,3.657-9.927c0,0,2.926,0.627,3.344,0.731c0,0-0.522-6.793-1.149-10.346c0,0,1.149-5.643-0.523-9.301
			c-1.672-3.657-17.523-8.777-23.339-2.403S241.123,158.634,241.123,158.634"/>
		<path fill="#632704" d="M248.884,154.598c0,0-1.315-4.467,0.282-6.533c1.597-2.067,4.791-2.818,4.885-6.67
			c0.094-3.851,8.027,1.148,9.556,0.949c1.528-0.197,5.236-7.524,0-11.376c0,0,1.238,1.879,0.819,4.228c0,0,0.24-4.134-5.772-6.576
			c0,0,1.503,1.737,1.691,4.627c0,0-2.349-4.627-8.079-4.627c0,0,2.066,0.939,2.912,2.349c0,0-4.133-2.349-13.621,0.657
			s-4.939,14.654-4.348,16.908c0.59,2.255,0.498,5.01-1.287,5.385c0,0,3.23,2.285,4.264,0.688c1.033-1.597,1.841-5.039,1.841-5.039
			s2.818-0.469,3.1-0.094c0.282,0.376,0.094,5.125,0.094,5.125H248.884z"/>
		<path fill="#FCCDAE" d="M245.536,146.465c0.802,1.739,0.297,3.682-1.129,4.34c-1.426,0.658-3.232-0.218-4.035-1.956
			c-0.802-1.738-0.297-3.682,1.128-4.34S244.733,144.727,245.536,146.465"/>
		<path fill="#1C1B1A" d="M259.834,149.778c0,0.737-0.598,1.335-1.335,1.335s-1.335-0.598-1.335-1.335
			c0-0.738,0.598-1.336,1.335-1.336S259.834,149.04,259.834,149.778"/>
		<path fill="#FFFFFF" d="M258.96,149.431c0,0.255-0.207,0.462-0.461,0.462s-0.461-0.207-0.461-0.462s0.207-0.461,0.461-0.461
			S258.96,149.176,258.96,149.431"/>
		<path fill="#632704" d="M260.682,146.668c0,0.311-0.251,0.563-0.562,0.563h-3.864c-0.311,0-0.563-0.252-0.563-0.563
			s0.252-0.563,0.563-0.563h3.864C260.431,146.105,260.682,146.357,260.682,146.668"/>
		<path fill="#FFFFFF" d="M255.693,159.069c0,0,1.57,1.027,4.688,1.551c0,0-0.274,0.92-0.523,1.62
			C259.859,162.24,257.277,161.525,255.693,159.069"/>
		<path fill="#996208" d="M176.024,197.638l4.339,1.288c11.469-33.538,41.687-40.461,41.687-40.461
			c3.449-0.784,6.433-1.344,6.433-1.344C207.447,158.432,185.132,167.184,176.024,197.638"/>
		<path fill="#996208" d="M205.563,205.779c0,0,5.761-5.202,10.477-14.398c1.919-2.438,3.34-3.752,3.34-3.752l2.372-2.031
			c0,0-3.044,11.959-11.23,21.786L205.563,205.779z"/>
		
			<rect x="175.252" y="198.025" transform="matrix(0.9609 0.2767 -0.2767 0.9609 62.4891 -41.3343)" fill="#825207" width="4.891" height="5.432"/>
		
			<rect x="204.561" y="206.471" transform="matrix(0.9609 0.2769 -0.2769 0.9609 66.0137 -49.1382)" fill="#825207" width="4.892" height="5.433"/>
		<path fill="#996208" d="M202.745,232.81c-0.102,0.352-0.468,0.554-0.819,0.453l-32.737-9.435
			c-0.351-0.102-0.554-0.468-0.452-0.819l6.255-21.705c0.101-0.352,0.467-0.555,0.818-0.453l32.738,9.435
			c0.351,0.102,0.553,0.468,0.453,0.819L202.745,232.81z"/>
		<path fill="#AB7010" d="M203.656,225.339c-0.304,1.054-1.403,1.661-2.457,1.358l-27.903-8.042
			c-1.053-0.304-1.661-1.403-1.357-2.456l4.316-14.979c0.304-1.054,1.403-1.661,2.457-1.357l27.903,8.041
			c1.053,0.304,1.661,1.403,1.357,2.456L203.656,225.339z"/>
		<path fill="#D1B62E" d="M191.169,224.901c-0.101,0.351-0.468,0.554-0.819,0.453l-7.153-2.063
			c-0.351-0.102-0.554-0.468-0.453-0.819l0.746-2.585c0.101-0.352,0.468-0.555,0.819-0.453l7.154,2.063
			c0.352,0.101,0.554,0.468,0.453,0.818L191.169,224.901z"/>
		<path fill="#AB931F" d="M190.307,223.91c-0.05,0.176-0.233,0.277-0.409,0.227l-5.669-1.635c-0.176-0.05-0.277-0.233-0.227-0.408
			l0.346-1.199c0.05-0.176,0.234-0.278,0.409-0.227l5.67,1.634c0.176,0.05,0.277,0.234,0.227,0.409L190.307,223.91z"/>
		<path fill="#6E4605" d="M181.351,199.443c-0.05,0.176-0.233,0.276-0.409,0.226l-5.42-1.562c-0.176-0.051-0.277-0.234-0.227-0.41
			l0.243-0.841c0.05-0.176,0.234-0.277,0.41-0.227l5.42,1.562c0.176,0.051,0.277,0.234,0.226,0.41L181.351,199.443z"/>
		<path fill="#6E4605" d="M210.66,207.89c-0.051,0.176-0.233,0.276-0.409,0.227l-5.42-1.563c-0.176-0.05-0.277-0.233-0.227-0.409
			l0.243-0.842c0.05-0.176,0.234-0.277,0.409-0.226l5.42,1.562c0.176,0.051,0.277,0.234,0.226,0.409L210.66,207.89z"/>
		<path fill="#FCCDAE" d="M218.76,178.65c0,0,1.348,21.636,2.407,26.579c1.059,4.944,1.748,5.904,4.638,6.482
			c2.891,0.58,30.681,0,30.681,0s0.793,3.756,3.146,4.108s4.548,0.108,4.548,0.108s3.132,0.629,3.72-1.222
			c0.588-1.85-2.679-8.098-3.329-7.98c-0.649,0.117-7.312-0.37-8.166-0.37s-23.096-1.52-26.037-1.163c0,0,1.268-21.133,0.68-27.602
			L218.76,178.65z"/>
		<path fill="#2B2B2B" d="M265.574,215.2c0,1.927-1.562,3.488-3.488,3.488c-1.926,0-3.487-1.562-3.487-3.488
			s1.562-3.488,3.487-3.488C264.012,211.712,265.574,213.273,265.574,215.2"/>
		<path fill="#CCE3E3" d="M263.895,215.2c0,0.999-0.81,1.809-1.809,1.809c-0.999,0-1.808-0.81-1.808-1.809s0.81-1.808,1.808-1.808
			C263.085,213.393,263.895,214.201,263.895,215.2"/>
		<path fill="#303030" d="M217.781,182.503l14.023-1.571c0,0,3.893-17.895-5.755-17.67S217.781,182.503,217.781,182.503"/>
		<g opacity="0.2">
			<g>
				<defs>
					<rect id="SVGID_5_" x="240.783" y="145.486" width="4.165" height="2.639"/>
				</defs>
				<clipPath id="SVGID_6_">
					<use xlink:href="#SVGID_5_"  overflow="visible"/>
				</clipPath>
				<path clip-path="url(#SVGID_6_)" fill="#632704" d="M240.783,146.001c1.527-1.098,3.979-0.461,4.165,2.124
					c0,0-0.785-1.917-2.406-2.266C241.542,145.644,240.783,146.001,240.783,146.001"/>
			</g>
		</g>
	</g>
	<g id="mano">
		<path fill="#FFD7B6" d="M139.979,89.948l36.797,13.192c2.584,0.926,5.423,0.831,7.938-0.268l38.445-16.775l27.88-6.336
			c3.514-0.8,6.007-3.924,6.007-7.527l28.203,12.542c4.414,1.963,9.581-0.062,11.483-4.502c1.9-4.436-0.165-9.572-4.608-11.456
			l-60.261-25.567c-5.087-2.158-10.814-2.242-15.961-0.236L178.487,57.6l-27.726-7.702L139.979,89.948z"/>
		<polyline fill="#00978D" points="-59.39,49.47 132.955,96.459 151.054,29.836 -59.39,-27.174 		"/>
		<path fill="#90FFDE" d="M147.745,41.921l14.312,4.092c1.45,0.415,2.291,1.927,1.876,3.379L151.226,93.83
			c-0.416,1.452-1.928,2.292-3.379,1.877l-14.313-4.092L147.745,41.921z"/>
		
			<rect x="140.562" y="41.481" transform="matrix(0.9614 0.275 -0.275 0.9614 24.0137 -36.6163)" fill="#86E5C6" width="4.032" height="51.684"/>
		<path fill="#FFB89C" d="M257.047,72.233l-1.186-2.963c-1.438-3.597-5.281-5.611-9.058-4.748l-26.656,6.104l-30.913,13.74
			c-2.435,1.005-4.01-2.099-1.521-3.496l30.995-13.658l27.829-6.596c5.048-1.197,10.197,1.563,11.995,6.429l2.589,7.001
			L257.047,72.233z"/>
		<path fill="#FFC012" d="M142.093,84.562c0-1.848,1.499-3.347,3.347-3.347s3.346,1.499,3.346,3.347
			c0,1.848-1.498,3.346-3.346,3.346C143.592,87.909,142.093,86.41,142.093,84.562"/>
	</g>
</g>
</svg>