<svg version="1.1" xmlns="http://www.w3.org/2000/svg" xmlns:xlink="http://www.w3.org/1999/xlink" x="0px" y="0px"
	 width="1052.947px" height="395.885px" viewBox="0 -36.912 1052.947 395.885" enable-background="new 0 -36.912 1052.947 395.885"
	 xml:space="preserve">
<g id="mesa">
	<rect y="148.986" fill="#364C54" width="1056.974" height="209.986"/>
	<g>
		<g>
			<defs>
				<polyline id="SVGID_1_" points="1052.947,-32.867 1052.947,358.973 0,358.973 0,-32.867 				"/>
			</defs>
			<clipPath id="SVGID_2_">
				<use xlink:href="#SVGID_1_"  overflow="visible"/>
			</clipPath>
			<g opacity="0.7" clip-path="url(#SVGID_2_)">
				<g>
					<defs>
						<rect id="SVGID_3_" x="102.336" y="225.765" width="335.204" height="102.019"/>
					</defs>
					<clipPath id="SVGID_4_">
						<use xlink:href="#SVGID_3_"  overflow="visible"/>
					</clipPath>
					<polygon clip-path="url(#SVGID_4_)" fill="#D6D6D6" points="102.336,279.896 257.445,327.783 437.54,262.199 293.881,225.765 
											"/>
				</g>
			</g>
		</g>
		<polygon fill="#FFFFFF" points="103.091,277.519 255.017,324.422 431.413,260.185 290.703,224.498 		"/>
		<g>
			<path fill="#FF3600" d="M315.515,245.171l-0.339-0.031c-0.116-0.009-0.116,0.19,0,0.18l0.339-0.029
				C315.591,245.283,315.591,245.177,315.515,245.171"/>
			
				<ellipse transform="matrix(0.9778 0.2097 -0.2097 0.9778 69.2875 -45.523)" fill="none" stroke="#FF3600" stroke-width="3" stroke-miterlimit="10" cx="249.34" cy="304.012" rx="19.107" ry="11.464"/>
			<path fill="none" stroke="#FF3600" stroke-width="2" stroke-miterlimit="10" d="M260.277,309.679
				c-2.578,2.214-7.418,3.099-12.58,1.992c-6.609-1.418-11.397-5.597-11.223-9.598"/>
			<path fill="none" stroke="#FF3600" stroke-width="2" stroke-miterlimit="10" d="M239.667,297.465
				c2.73-1.548,6.904-2.056,11.314-1.11c4.943,1.061,8.869,3.666,10.459,6.587"/>
			
				<line fill="none" stroke="#FF3600" stroke-width="2" stroke-miterlimit="10" x1="233.179" y1="295.617" x2="268.271" y2="304.708"/>
			
				<line fill="none" stroke="#FF3600" stroke-width="2" stroke-miterlimit="10" x1="230.53" y1="300.346" x2="266.785" y2="311.507"/>
			<path fill="#595959" d="M289.832,232.581c2.925-0.98,5.883-1.05,8.104-0.464c0.752,0.198,1.375,0.482,1.563,0.729l-1.58,0.417
				c-0.189-0.226-0.585-0.476-1.269-0.659c-1.781-0.479-3.738-0.169-5.233,0.338c-1.689,0.574-2.193,1.2-0.467,1.701
				c0.724,0.21,1.637,0.31,2.318,0.334l-1.106,0.52c-0.935-0.031-2.053-0.234-2.754-0.44
				C287.128,234.383,287.209,233.46,289.832,232.581"/>
			<path fill="#595959" d="M296.42,234.354c2.407-0.853,5.353-1.224,7.72-0.599c2.436,0.643,1.583,1.636-0.793,2.524
				c-2.474,0.927-5.409,1.289-7.767,0.594C293.211,236.175,294.024,235.203,296.42,234.354 M301.895,235.874
				c1.979-0.733,2.216-1.257,0.873-1.618c-1.368-0.368-3.035-0.164-4.896,0.502c-1.835,0.659-2.276,1.222-0.917,1.615
				C298.29,236.761,299.854,236.629,301.895,235.874"/>
			<polygon fill="#595959" points="308.758,235.085 310.307,235.494 308.47,238.274 313.448,236.326 314.862,236.699 
				306.552,239.986 305.529,239.686 307.776,236.382 301.913,238.623 300.5,238.207 			"/>
			<polygon fill="#595959" points="322.344,238.68 320.882,239.288 318.53,238.653 311.635,241.481 310.2,241.059 317.084,238.264 
				314.731,237.63 316.185,237.05 			"/>
			<path fill="#595959" d="M315.282,242.554l8.384-3.524l2.479,0.655c1.369,0.362,1.94,0.883,0.091,1.686
				c-0.969,0.42-2.464,0.71-3.944,0.476c0.272,0.2,0.274,0.327,0.057,0.588l-0.779,0.897c-0.147,0.185-0.127,0.272,0.085,0.335
				l0.312,0.09l-1.044,0.456c-0.322-0.03-0.801-0.163-1.013-0.226c-0.522-0.153-0.577-0.387-0.292-0.703l1.131-1.275
				c0.215-0.242,0.073-0.309-0.228-0.395l-0.357-0.101l-3.446,1.463L315.282,242.554z M321.542,240.928l0.895,0.248
				c0.938,0.26,1.692,0.078,2.283-0.176c0.842-0.361,0.508-0.549-0.252-0.754l-0.807-0.218L321.542,240.928z"/>
			<path fill="#595959" d="M328.333,244.863l-2.609-0.748l-2.756,0.698l-1.456-0.429l11.499-2.884l0.875,0.231l-5.445,4.69
				l-1.446-0.426L328.333,244.863z M327.471,243.664l1.708,0.483l1.592-1.332L327.471,243.664z"/>
			<polygon fill="#595959" points="342.746,244.207 341.242,244.948 338.889,244.314 331.799,247.765 330.364,247.342 
				337.444,243.925 335.091,243.29 336.586,242.579 			"/>
			
				<line fill="none" stroke="#595959" stroke-width="0.75" stroke-linecap="round" stroke-miterlimit="10" x1="269.291" y1="237.073" x2="380.771" y2="269.701"/>
			
				<line fill="none" stroke="#595959" stroke-width="0.75" stroke-linecap="round" stroke-miterlimit="10" x1="256.618" y1="240.86" x2="368.099" y2="273.488"/>
			
				<line fill="none" stroke="#595959" stroke-width="0.75" stroke-linecap="round" stroke-miterlimit="10" x1="243.946" y1="244.647" x2="355.426" y2="277.276"/>
			
				<line fill="none" stroke="#595959" stroke-width="0.75" stroke-linecap="round" stroke-miterlimit="10" x1="231.273" y1="248.435" x2="342.754" y2="281.063"/>
			
				<line fill="none" stroke="#595959" stroke-width="0.75" stroke-linecap="round" stroke-miterlimit="10" x1="218.601" y1="252.222" x2="330.081" y2="284.851"/>
			
				<line fill="none" stroke="#595959" stroke-width="0.75" stroke-linecap="round" stroke-miterlimit="10" x1="205.928" y1="256.009" x2="317.408" y2="288.638"/>
			
				<line fill="none" stroke="#595959" stroke-width="0.75" stroke-linecap="round" stroke-miterlimit="10" x1="193.256" y1="259.797" x2="304.736" y2="292.424"/>
			
				<line fill="none" stroke="#595959" stroke-width="0.75" stroke-linecap="round" stroke-miterlimit="10" x1="180.583" y1="263.583" x2="292.063" y2="296.212"/>
			<path fill="#406279" d="M222.339,289.415c-3.065-2.576-7.054-3.58-10.916-4.28c-2.632-0.478-7.138-1.414-9.403,0.594
				c-1.956,1.735,2.231,3.821,3.514,4.485c3.817,1.975,8.161,2.708,12.379,3.264c1.301,0.171,7.53,1.789,6.971-1.381
				c-0.158-0.896-1.256-1.561-1.931-2.045c-1.704-1.22-3.623-2.134-5.591-2.839c-1.885-0.675-3.849-1.138-5.831-1.415
				c-0.993-0.14-3.987-0.968-4.69,0.065c-1.15,1.688,3.662,3.419,4.557,3.801c1.998,0.849,4.073,1.497,6.13,2.182
				c1.153,0.383,2.306,0.768,3.44,1.202c0.695,0.266,1.788,0.215,1.821,1.107c0.039,1.086-1.465,0.086-2.162-0.119
				c-5.396-1.59-10.716-1.38-16.284-0.905c0.052,0.193,0.105,0.388,0.158,0.582c4.82-2.656,9.386-5.724,13.506-9.383
				c0.315-0.278-0.109-0.848-0.456-0.59c-1.88,1.395-2.756,3.579-1.267,5.642c1.748,2.419,5.215,3.064,7.994,3.203
				c0.415,0.021,0.511-0.643,0.099-0.73c-8.105-1.726-17.141-3.339-23.761-8.678c-0.367-0.295-0.89,0.224-0.521,0.521
				c6.74,5.438,15.831,7.114,24.084,8.873l0.1-0.73c-1.871-0.095-3.786-0.403-5.45-1.317c-2.502-1.372-3.616-4.121-0.898-6.133
				c-0.151-0.198-0.304-0.396-0.456-0.593c-4.088,3.618-8.528,6.713-13.29,9.375c-0.258,0.146-0.159,0.611,0.158,0.582
				c4.394-0.399,8.9-0.838,13.267,0.045c1.479,0.3,5.285,2.392,6.439,0.709c0.055-0.079,0.055-0.214,0-0.294
				c-1.098-1.614-3.849-2.085-5.592-2.674c-2.976-1.003-6.05-1.869-8.834-3.353c-0.563-0.3-2.328-1.035-1.581-2.109
				c0.149-0.214,1.958,0.113,2.189,0.136c1.828,0.179,3.639,0.516,5.404,1.021c1.658,0.475,3.278,1.1,4.803,1.907
				c0.558,0.296,1.109,0.608,1.635,0.958c0.979,0.653,3.646,2.129,0.321,3.354c-1.171,0.432-4.155-0.464-5.344-0.632
				c-1.839-0.26-3.676-0.568-5.482-1.011c-1.603-0.392-3.193-0.884-4.702-1.558c-0.834-0.373-4.192-1.824-4.264-2.751
				c-0.105-1.366,1.164-2.013,2.22-2.186c0.74-0.12,1.471-0.164,2.219-0.149c1.714,0.033,3.415,0.32,5.094,0.645
				c3.498,0.677,7.168,1.528,10.005,3.799C222.28,289.723,222.478,289.531,222.339,289.415"/>
			<path fill="#595959" d="M339.372,247.29c2.407-0.853,5.353-1.224,7.721-0.599c2.435,0.643,1.582,1.636-0.793,2.524
				c-2.475,0.927-5.41,1.289-7.767,0.594C336.164,249.112,336.977,248.139,339.372,247.29 M344.847,248.811
				c1.978-0.732,2.217-1.257,0.872-1.618c-1.368-0.368-3.035-0.164-4.895,0.503c-1.836,0.658-2.277,1.221-0.918,1.614
				C341.242,249.697,342.807,249.566,344.847,248.811"/>
			<g>
				<path fill="#FF3600" d="M238.106,298.065c0.176,0.051,0.309,0.15,0.396,0.301c0.087,0.151,0.107,0.311,0.06,0.48l-0.78,2.74
					l-0.608-0.173l0.325-1.142l-1.813-0.516l-0.325,1.142l-0.604-0.173l0.781-2.74c0.047-0.169,0.149-0.295,0.303-0.376
					c0.154-0.082,0.319-0.098,0.496-0.048L238.106,298.065z M237.662,299.697l0.299-1.05l-1.813-0.516l-0.299,1.049L237.662,299.697
					z"/>
				<path fill="#FF3600" d="M239.223,300.556l-0.38,1.334l-0.604-0.172l0.953-3.343l2.396,0.682
					c0.176,0.051,0.309,0.151,0.396,0.302c0.088,0.15,0.107,0.31,0.06,0.479l-0.229,0.805c-0.047,0.166-0.149,0.291-0.305,0.373
					c-0.157,0.083-0.321,0.101-0.494,0.051L239.223,300.556z M241.443,299.639l-1.813-0.516l-0.243,0.856l1.813,0.516
					L241.443,299.639z"/>
				<path fill="#FF3600" d="M244.572,303.521l-0.849-0.241l-0.674-1.635l-0.517-0.147l-0.381,1.335l-0.603-0.173l0.952-3.343
					l2.396,0.684c0.177,0.049,0.309,0.149,0.396,0.3c0.087,0.15,0.108,0.312,0.061,0.48l-0.23,0.804
					c-0.047,0.166-0.148,0.291-0.305,0.374c-0.156,0.082-0.32,0.1-0.493,0.05l-0.402-0.114L244.572,303.521z M244.751,300.581
					l-1.813-0.517l-0.244,0.856l1.813,0.516L244.751,300.581z"/>
				<path fill="#FF3600" d="M249.31,301.907l-0.609,2.139c-0.048,0.17-0.149,0.295-0.303,0.377
					c-0.154,0.081-0.319,0.097-0.496,0.046l-2.266-0.646c-0.172-0.049-0.303-0.149-0.392-0.303c-0.09-0.154-0.111-0.313-0.065-0.479
					l0.61-2.138c0.048-0.169,0.149-0.295,0.302-0.377c0.155-0.082,0.32-0.097,0.497-0.046l2.281,0.649
					c0.173,0.049,0.302,0.148,0.386,0.3C249.338,301.582,249.357,301.741,249.31,301.907z M248.089,303.899l0.625-2.19l-2.315-0.659
					l-0.624,2.19L248.089,303.899z"/>
				<path fill="#FF3600" d="M252.303,303.953c0.036,0.04,0.076,0.098,0.121,0.172c0.005,0.02,0,0.055-0.015,0.107l-0.229,0.805
					c-0.048,0.166-0.149,0.29-0.306,0.373c-0.156,0.082-0.32,0.1-0.494,0.05l-2.396-0.683l0.953-3.342l2.396,0.682
					c0.176,0.05,0.309,0.15,0.396,0.302c0.088,0.15,0.108,0.31,0.06,0.479l-0.229,0.805c-0.019,0.068-0.05,0.12-0.092,0.154
					C252.45,303.872,252.395,303.904,252.303,303.953z M251.795,304.08l-1.812-0.516l-0.232,0.809l1.813,0.516L251.795,304.08z
					 M252.189,302.699l-1.813-0.517l-0.229,0.806l1.813,0.516L252.189,302.699z"/>
				<path fill="#FF3600" d="M255.811,303.107c0.176,0.051,0.309,0.151,0.396,0.301c0.088,0.151,0.109,0.312,0.061,0.48l-0.781,2.74
					l-0.608-0.173l0.325-1.142l-1.813-0.516l-0.325,1.142l-0.604-0.173l0.78-2.74c0.048-0.17,0.15-0.295,0.303-0.376
					c0.154-0.082,0.32-0.099,0.497-0.048L255.811,303.107z M255.368,304.739l0.299-1.05l-1.813-0.516l-0.299,1.049L255.368,304.739z
					"/>
				<path fill="#FF3600" d="M255.944,306.76l0.952-3.343l2.396,0.682c0.18,0.052,0.312,0.151,0.397,0.299
					c0.085,0.148,0.103,0.31,0.054,0.48l-0.609,2.14c-0.048,0.168-0.149,0.295-0.302,0.376c-0.155,0.082-0.32,0.098-0.497,0.047
					L255.944,306.76z M256.711,306.355l1.813,0.516l0.625-2.19l-1.813-0.516L256.711,306.355z"/>
				<path fill="#FF3600" d="M263.721,306.011l-0.609,2.139c-0.048,0.17-0.149,0.295-0.303,0.376
					c-0.154,0.082-0.319,0.098-0.496,0.048l-2.266-0.646c-0.172-0.049-0.303-0.149-0.392-0.304c-0.09-0.152-0.111-0.313-0.065-0.478
					l0.61-2.138c0.048-0.17,0.149-0.295,0.303-0.377c0.155-0.081,0.319-0.097,0.496-0.047l2.281,0.649
					c0.173,0.05,0.302,0.15,0.386,0.301C263.75,305.687,263.768,305.845,263.721,306.011z M262.5,308.004l0.625-2.19l-2.315-0.659
					l-0.624,2.19L262.5,308.004z"/>
			</g>
		</g>
	</g>
</g>
<g id="lapicera">
	<g opacity="0.3">
		<g>
			<defs>
				<rect id="SVGID_5_" x="114.427" y="226.919" width="125.007" height="38.904"/>
			</defs>
			<clipPath id="SVGID_6_">
				<use xlink:href="#SVGID_5_"  overflow="visible"/>
			</clipPath>
			<path clip-path="url(#SVGID_6_)" fill="#808080" d="M131.422,254.441c-5.025,2.42-5.501,6.463-10.853,8.365
				c-1.713,0.61-3.687-0.118-5.951,1.077c-0.469,0.573-0.016,1.508,0.669,1.788c0.685,0.281,1.462,0.113,2.183-0.058l74.228-17.667
				c14.682-3.494,29.45-7.018,43.308-12.993c2.158-0.932,4.661-2.522,4.41-4.86c-0.174-1.619-1.741-2.803-3.345-3.084
				c-1.603-0.279-3.237,0.138-4.811,0.552c-29.86,7.858-59.722,15.717-89.583,23.576L131.422,254.441z"/>
		</g>
	</g>
	<path fill="#0091AF" d="M192.763,240.922c-19.45,5.171-28.806,7.878-49.98,13.049l-8.371,1.724
		c-1.284,0.179-3.069-0.331-4.216-2.752c-1.012-2.139-1.425-2.418-0.803-4.303c0,0,36.82-12.089,59.967-18.962
		c0,0,3.724-1.291,5.413,3.402C197.068,239.453,192.763,240.922,192.763,240.922"/>
	<path fill="#999999" d="M110.635,256.618c0.506,1.167,1.159,1.446,2.036,1.294c1.31-0.228,0.809-2.312,2.039-2.804
		c1.834-0.733,4.106,0.862,6.572,1.388c1.399,0.299,5.276,0.904,6.647,0.492c4.924-1.477,3.42-3.371,5.389-4.11
		c-0.018,0.248,0.389-1.995-0.51-3.122c-1.472-1.849-2.664-1.384-2.664-1.384c-1.231,0.246-3.693-0.246-6.894,1.23
		c-3.499,1.615-3.693,1.724-7.14,2.955c-1.061,0.378-3.758,1.143-4.72,1.727C110.63,254.747,110.29,255.797,110.635,256.618"/>
	<path d="M124.423,250.525c-0.437,0.168-0.705,0.671-0.638,1.041c-3.256,0.806-6.344,1.376-9.868,2.215
		c-1.466,0.35-2.448,0.587-3.247,1.363c-0.2,0.465-0.232,1.006-0.035,1.474c0.017,0.041,0.037,0.072,0.055,0.111
		c0.446-1.467,2.724-2.424,3.831-2.646c3.114-0.622,6.449-1.522,9.533-1.813c0.114,0.125,0.369,0.503,0.873,0.571
		c0.941,0.125,1.947-0.337,1.813-1.275C126.64,250.873,126,249.92,124.423,250.525"/>
	<path fill="#33A7BF" d="M187.271,230.45c-0.896-0.684,0.595-2.795,1.673-3.118c9.887-2.967,24.053-7.146,34.101-9.307
		c2.441-0.525,7.931-0.899,10.341-0.247c2.41,0.652,3.619,2.806,3.458,5.297c-0.169,2.655-2.724,4.435-5.046,5.733
		c-8.882,4.969-25.351,9.427-35.097,12.359c-1.324,0.398-3.345,0.881-3.967-0.355c0,0,3.449-0.842,0.594-7.393
		C191.074,228.245,187.271,230.45,187.271,230.45"/>
	<path fill="#999999" d="M211.802,220.989c-0.086-0.949-0.198-1.156-1.125-1.369c-0.929-0.214-2.76-0.438-3.693-0.247
		c-8.572,1.764-15.179,3.621-23.39,6.647c0,0,0.153,2.697-1.937,3.312c-1.799,0.529-2.914-0.121-3.399-1.094
		c-0.687-1.372,0.31-2.813,1.509-3.653s9.802-3.421,11.725-3.996c9.989-2.98,12.804-3.779,22.796-6.747
		c3.047-0.905,6.231-1.819,9.362-1.271s5.734,1.699,5.766,4.878l-16.38,4.585L211.802,220.989z"/>
	<path fill="#002E4D" d="M196.702,241.168c1.274-0.383,2.665-0.794,4.136-1.227c1.044-2.268,1.285-5.394,0.609-7.837
		c-0.915-3.313-2.587-5.952-5.948-6.669c-0.036-0.008-0.08-0.013-0.122-0.019c-1.699,0.501-3.337,0.988-4.889,1.452
		c1.589,0.087,3.172,0.749,4.387,1.799c1.861,1.607,2.931,3.984,3.363,6.405c0.402,2.251-0.244,4.33-1.544,6.098
		C196.696,241.169,196.699,241.169,196.702,241.168"/>
	<path fill="#002E4D" d="M233.387,217.778c-0.583-0.158-1.35-0.255-2.206-0.305c1.194,0.721,2.208,1.873,2.891,3.186
		c1.056,2.032,1.192,4.084,0.678,6.146c1.144-1.012,2-2.23,2.096-3.729C237.005,220.585,235.796,218.431,233.387,217.778"/>
	<g opacity="0.25">
		<g>
			<defs>
				<rect id="SVGID_7_" x="111.027" y="216.126" width="125.832" height="41.824"/>
			</defs>
			<clipPath id="SVGID_8_">
				<use xlink:href="#SVGID_7_"  overflow="visible"/>
			</clipPath>
			<path clip-path="url(#SVGID_8_)" fill="#808080" d="M236.388,220.326c-0.675,0.193-1.364,0.424-2.029,0.48
				c-2.264,0.194-4.101-1.681-6.15-2.663c-0.169-0.08-0.34-0.145-0.512-0.213l1.719-0.481c-0.002-0.267-0.03-0.514-0.067-0.753
				c-8.738-1.687-17.751,0.685-26.36,3.053c-2.166,0.597-4.333,1.192-6.499,1.788c-4.644,1.276-9.299,2.558-13.771,4.348
				c-1.086,0.434-2.253,0.986-2.738,2.051c-0.218,0.479-0.176,1.065,0.039,1.548c0.465,0.067,1.007,0.035,1.638-0.151
				c2.09-0.614,1.938-3.312,1.938-3.312c8.211-3.026,14.817-4.884,23.389-6.647c0.933-0.191,2.766,0.033,3.693,0.247
				c0.928,0.213,1.04,0.42,1.125,1.369l1.114,0.944c0.215,0.666,0.631,1.442,0.202,1.564c-0.81,0.231-4.048,1.156-7.171,1.851
				c-6.109,1.357-12.763,2.399-14.604,4.006c0.046,0.581,0.068,0.858,0.114,1.44c0.4,0.313,0.794,0.739,1.166,1.305
				c-0.042-0.002-0.116-0.051-0.127-0.009c-0.572,2.056-1.524,2.175-3.545,3.127c-4.075,1.918-8.445,3.316-12.788,4.508
				c-11.581,3.18-23.07,6.713-34.742,9.537c-7.569,1.831-7.91,1.49-8.237,1.208c-0.026-0.079-0.056-0.156-0.088-0.231
				c-0.108,0.053-0.216,0.104-0.32,0.16c-2.283,1.202-4.452,2.794-7,3.193c-1.597,0.25-3.226,0.008-4.84,0.047
				c-1.474,0.036-2.932,0.308-4.382,0.578c-1.409,0.263-2.863,0.544-4.051,1.348c-0.632,0.428-1.163,1.05-1.473,1.744
				c0.441,0.582,0.977,0.72,1.644,0.603c1.31-0.228,0.809-2.312,2.039-2.804c1.834-0.733,4.105,0.862,6.571,1.388
				c1.399,0.3,5.276,0.904,6.647,0.492c2.229-0.668,3.14-1.423,3.653-2.116c0.244,0.464,1.033,0.781,2.83,0.822l8.371-1.724
				c21.173-5.171,30.53-7.878,49.979-13.049c0,0,0.013-0.004,0.032-0.012c0.681,1.105,2.62,0.646,3.907,0.258
				c10.92-3.286,30.284-8.488,37.953-14.175c1.287-0.955,2.118-2.421,2.196-4.021C236.898,222.014,236.738,221.111,236.388,220.326"
				/>
		</g>
	</g>
</g>
<g id="Manos" class="manos">
	<path fill="#FFD6AB" d="M218.532,86.66l27.251,6.555c0,0,9.758,3.393,13.477,2.133c3.719-1.259,17.632-7.725,17.632-7.725
		l5.484,20.277c0,0,20.902,7.277,34.479,10.173c13.576,2.897,30.313,14.331,30.313,14.331s2.065,4.06-0.294,9.802
		c-0.535,1.301-0.996,2.552-1.391,3.709c-1.432,4.209-5.131,7.231-9.538,7.804l-3.378,10.427c-0.964,2.976-3.71,5.011-6.838,5.071
		l-1.744,0.031l-3.673,9.822c-0.868,2.322-3.315,3.65-5.735,3.109l-4.575-1.021l-3.048,8.768c-0.877,2.523-3.329,4.152-5.996,3.979
		c-8.919-0.58-28.665-2.156-37.337-5.17l-11.384-3.957c0,0-34.4-43.674-37.087-46.431c-2.688-2.757-13.874-5.187-13.874-5.187
		L218.532,86.66z"/>
	<g opacity="0.35">
		<g>
			<defs>
				
					<rect id="SVGID_9_" x="201.338" y="86.395" transform="matrix(0.9917 -0.1288 0.1288 0.9917 -14.3063 36.4632)" width="147.023" height="84.96"/>
			</defs>
			<clipPath id="SVGID_10_">
				<use xlink:href="#SVGID_9_"  overflow="visible"/>
			</clipPath>
			<path clip-path="url(#SVGID_10_)" fill="#FFD6AB" d="M215.923,93.689l15.867,6.877c-3.11,11.797,2.333,21.218,18.685,10.655
				c5.081-3.282,26.987-1.949,32.952-2.96c3.378,1.155,53.95,7.391,64.197,10.179c-23.622,9.819-38.141,1.999-46.295,0.948
				c-12.792-1.649-13.408,3.063-11.064,9.032c1.892,4.818,0.296,5.668-5.309,7.864c-4.833,1.892-6.23,10.514-1.008,15.906
				c-1.602,2.064-3.781,1.972-6.273,2.762c-5.171,1.638-5.885,6.672-4.408,11.544c1.05,3.466-9.804,12.245-14.522,0.171
				c-1.318-3.373-4.1-5.934-5.149-9.399c-0.907-2.996-1.655-6.064-1.792-9.19c-0.041-0.954-0.031-1.931-0.364-2.825
				c-0.286-0.768-0.807-1.421-1.32-2.06c-3.074-3.83-6.214-7.721-10.288-10.465c-3.542-2.388-8.57-3.704-11.916-1.049
				c-1.984,1.574-2.866,4.205-2.991,6.734c-0.243,4.891,2.133,9.835,6.103,12.702c2.51,1.814,5.557,2.817,7.945,4.787
				c2.389,1.971,3.978,5.559,2.307,8.167c-0.788,1.229-2.083,1.933-3.494,2.417c-9.762-12.322-21.135-26.601-22.635-28.138
				c-2.688-2.757-13.874-5.187-13.874-5.187L215.923,93.689z"/>
		</g>
	</g>
	<path fill="#FFFFFF" d="M234.062,87.438c0,0-13.864,47.923-14.797,52.704c-0.932,4.779-8.47,24.741-8.47,24.741l-33.559-7.29
		l41.269-80.803L234.062,87.438z"/>
	<path fill="#CC9966" d="M268.977,117.221c-2.424,4.226-8.994,5.235-12.247,4.104c-3.253-1.131-11.224-6.333-11.224-6.333
		s7.606-7.2,13.12-12.575c5.514-5.375,20.528-21.3,20.528-21.3s7.566,4.452,14.171,7.477s22.173,3.333,22.173,3.333l16.274-12.207
		l25.604,41.71c0,0-2.743,2.533-11.813,9.88c0,0-12.16-8.547-31.84-13.601c-15.954-4.097-25.448-5.949-25.448-5.949
		c-7.218-2.147-9.927-1.413-9.927-1.413S271.837,112.23,268.977,117.221"/>
	<path fill="#CC9966" d="M224.56,168.959c0,0,9.846-9.835,20.754-20.907c3.995-0.252,7.308,2.364,9.403,5.801
		c0.951,1.703-0.617,3.993-2.188,6.358c-0.385,0.492-0.729,1.062-1.061,1.648c-0.253,0.417-0.488,0.834-0.691,1.246
		c0.229-0.405,0.457-0.829,0.691-1.246c0.333-0.549,0.697-1.101,1.061-1.648c0.836-1.065,1.862-1.748,3.35-1.367
		c6.085,2.324,10.42,6.032,8.754,11.671c-0.637,0.856-0.675,0.8,0,0c2.035-1.765,6.031-0.74,7.745,0.58
		c1.143,0.881,1.537,3.914,0.788,6.066c3.145-3.492,6.487-5.469,9.98-2.322c3.361,2.133,5.974,6.419,4.477,10.728
		c-0.243,2.088-2.002,4.373-2.311,5.955c-0.025,0.389-0.057,0.773-0.084,1.16c-1.596,4.254-4.885,11.51-8.736,11.463
		c-5.443-0.07-11.384-3.959-11.384-3.959l-0.595-4.582c0,0-5.58,1.824-9.362-0.336c-3.084-1.762-4.137-4.443-4.137-4.443
		s-2.949,1.33-3.721,1.188c-3.838-0.703-10.329-5.254-11.49-8.209c-1.16-2.955,2.361-5.742,2.361-5.742s-5.543-0.833-8.994-3.491
		C225.72,171.915,224.56,168.959,224.56,168.959"/>
	<polygon fill="#FFFFFF" points="322.056,74.988 367.18,149.324 402.201,133.981 354.871,54.534 	"/>
	<g opacity="0.35">
		<g>
			<defs>
				
					<rect id="SVGID_11_" x="282.275" y="143.29" transform="matrix(0.9917 -0.1288 0.1288 0.9917 -18.9354 42.1628)" width="68.717" height="48.488"/>
			</defs>
			<clipPath id="SVGID_12_">
				<use xlink:href="#SVGID_11_"  overflow="visible"/>
			</clipPath>
			<path clip-path="url(#SVGID_12_)" fill="#AD815C" d="M285.313,191.523c0.308-1.582,2.068-3.867,2.311-5.955
				c0.292-0.84,0.423-1.682,0.428-2.502c0.357-0.041,0.714-0.055,1.07-0.018c1.257,0.127,2.368,0.828,3.506,1.375
				c2.857,1.375,6.148,1.842,9.273,1.283c1.281-0.229,2.472-0.889,3.214-1.957c1.912-2.762-0.478-5.835-3.1-7.224
				c-2.316-1.227-5.033-1.833-6.917-3.656c6.461,1.25,12.921,2.5,19.381,3.75c2.035,0.394,4.184-0.187,5.618-1.682
				c3.729-3.889-1.279-9.187-6.011-10.331c-4.451-1.076-9.753-1.02-12.62-4.589c5.052,0.633,10.105,1.265,15.156,1.898
				c4.721,0.591,9.845,1.117,13.701-2.237c1.983-1.725,2.879-4.478,1.986-6.949c-0.978-2.704-3.59-3.505-6.014-4.191
				c-5.269-1.489-10.538-2.979-15.806-4.47c6.949-1.965,14.241,0.853,21.428,1.561c5.845,0.576,12.887-1.366,15.743-5.97
				c-0.175,0.811-0.423,1.66-0.787,2.547c-0.534,1.301-0.996,2.552-1.391,3.71c-1.431,4.208-5.13,7.231-9.538,7.803l-3.378,10.427
				c-0.964,2.976-3.71,5.012-6.838,5.071l-1.744,0.031l-3.672,9.823c-0.87,2.323-3.316,3.649-5.736,3.108l-4.575-1.021l-3.048,8.768
				c-0.877,2.523-3.33,4.15-5.997,3.977c-3.826-0.246-9.642-0.68-15.721-1.328C285.263,192.223,285.291,191.873,285.313,191.523"/>
		</g>
	</g>
	<g opacity="0.15">
		<g>
			<defs>
				
					<rect id="SVGID_13_" x="173.732" y="91.832" transform="matrix(0.9917 -0.1288 0.1288 0.9917 -14.8907 27.161)" width="57.734" height="73.805"/>
			</defs>
			<clipPath id="SVGID_14_">
				<use xlink:href="#SVGID_13_"  overflow="visible"/>
			</clipPath>
			<path clip-path="url(#SVGID_14_)" fill="#808080" d="M177.237,157.593l19.317-59.956c1.421-1.583,2.9-3.115,4.443-4.582
				c0.823-0.782,1.748-1.587,2.878-1.696c1.232-0.118,2.365,0.617,3.384,1.321c5.209,3.599,10.418,7.199,15.629,10.8
				c1.684,1.164,3.882,2.262,5.859,2.455c-4.116,14.395-8.956,31.509-9.482,34.208c-0.932,4.779-8.47,24.741-8.47,24.741
				L177.237,157.593z"/>
		</g>
	</g>
	<polygon fill="#002E4D" points="227.156,83.317 188.331,170.531 -140.666,-61.031 -52.499,-127.701 	"/>
	<g opacity="0.15">
		<g>
			<defs>
				
					<rect id="SVGID_15_" x="74.849" y="35.314" transform="matrix(0.9917 -0.1288 0.1288 0.9917 -12.8234 20.1127)" width="148.564" height="147.826"/>
			</defs>
			<clipPath id="SVGID_16_">
				<use xlink:href="#SVGID_15_"  overflow="visible"/>
			</clipPath>
		</g>
	</g>
	<g opacity="0.15">
		<g>
			<defs>
				
					<rect id="SVGID_17_" x="333.198" y="53.561" transform="matrix(0.9917 -0.1288 0.1288 0.9917 -10.009 47.9028)" width="64.495" height="95.587"/>
			</defs>
			<clipPath id="SVGID_18_">
				<use xlink:href="#SVGID_17_"  overflow="visible"/>
			</clipPath>
			<path clip-path="url(#SVGID_18_)" fill="#808080" d="M337.774,65.19l17.096-10.656l47.33,79.447l-35.021,15.343L331.53,90.595
				c2.978-3.453,8.812-4.925,9.807-9.441c0.386-1.751-0.1-3.562-0.582-5.288C339.762,72.307,338.768,68.749,337.774,65.19"/>
		</g>
	</g>
	<polygon fill="#2C3838" points="337.232,55.282 396.222,153.264 818.55,-127.701 697.056,-221.402 466.067,-36.912 	"/>
	<g opacity="0.15">
		<g>
			<defs>
				
					<rect id="SVGID_19_" x="340.849" y="6.453" transform="matrix(0.9917 -0.1288 0.1288 0.9917 -6.6903 53.646)" width="141.35" height="144.218"/>
			</defs>
			<clipPath id="SVGID_20_">
				<use xlink:href="#SVGID_19_"  overflow="visible"/>
			</clipPath>
		</g>
	</g>
	<g opacity="0.15">
		<g>
			<defs>
				<polygon id="SVGID_21_" points="113.12,374.986 520.974,374.986 444.244,243.287 105.556,265.389 				"/>
			</defs>
			<clipPath id="SVGID_22_">
				<use xlink:href="#SVGID_21_"  overflow="visible"/>
			</clipPath>
		</g>
	</g>
</g>
</svg>