<svg version="1.1" id="Layer_1" xmlns="http://www.w3.org/2000/svg" xmlns:xlink="http://www.w3.org/1999/xlink" x="0px" y="0px"
	 width="1052.947px" height="395.885px" viewBox="0 -36.912 1052.947 395.885" enable-background="new 0 -36.912 1052.947 395.885"
	 xml:space="preserve">
<g id="street">
	<rect x="-0.329" y="284.529" fill="#837B73" width="1053.276" height="27.791"/>
	<rect x="-0.329" y="313.916" fill="#B8B3AF" width="1053.276" height="44.162"/>
	<rect x="-0.329" y="307.416" fill="#71685F" width="1053.276" height="13"/>
</g>
<path opacity="0.3" fill="#66CCCC" d="M1044.039,142.626h-1.137V86.647l-29.531,15.393v86.77h-15.844V44.663h-17.475V23.452h-19.688
	v21.211h-8.037V188.81h-11.652v-19.592l-25.855,18.267v-47.784h-6.705v-9.11h-4.067v9.11h-4.128v-9.11h-4.067v9.11h-4.596v27.32
	h-31.699V72.108h-8.542V44.042h-8.905V32.186h-6.907l-0.928-14.207l-16.804,14.034l-0.011,0.173h-7.023v11.856h-8.902v28.066h-8.543
	v20.224l-5.627,5.238v57.613h-14.274v-13.295h-11.896v13.295h-3.678V118.43l-48.912-20.419V18.008h-11.437v-5.375H662.61v5.375
	h-7.953v155.633h-23.076V59.902h-7.406v-5.539h-34.908V35.527H576.57v24.375h-10.58v113.739h-7.41v-43.433l-9.378-7.873v-10.1
	c0,0-1.326-1.196-3.837-2.438V73.991c0,0-0.993-2.125-3.313-4.213v-4.137c0,0-0.549-1.249-1.919-2.594v-3.904
	c0,0-0.804-1.852-2.982-3.279v-2.49c0,0-0.682-1.558-2.559-2.609v-1.792c0,0-0.592-2.013-2.303-3.004v-3.99
	c0,0-0.498-2.613-2.009-3.083l0.158-20.156c0,0-0.396-1.638-0.554-0.298c-0.151,1.288-0.594,19.045-0.629,20.453
	c-1.472,0.45-2.121,2.545-2.121,3.085v4.545c-1.091,0.886-1.601,2.049-1.601,2.448v2.339c-1.166,0.811-1.707,1.719-1.707,2.062
	v3.084c-1.453,1.078-2.129,2.235-2.129,2.686v3.964c-1.167,1.068-1.723,2.09-1.723,2.534v4.095c-1.912,1.755-2.75,3.576-2.75,4.255
	v36.979c-0.839,0.39-1.683,0.804-2.55,1.267v9.578l-9.168,8.395v154.03h547.44V116.386h-8.908V142.626z"/>
<path opacity="0.3" fill="#66CCCC" d="M496.243,143.813h-1.137V87.834l-29.531,15.393v86.77h-15.844V45.849h-17.475V24.638h-19.688
	v21.211h-8.037v144.147H392.88v-19.592l-25.855,18.267v-47.783h-6.705v-9.11h-4.067v9.11h-4.128v-9.11h-4.067v9.11h-4.596v27.319
	h-31.699V73.294h-8.542V45.228h-8.905V33.372h-6.907l-0.928-14.207l-16.804,14.034l-0.011,0.173h-7.023v11.856h-8.902v28.066h-8.543
	v20.224l-5.627,5.238v57.613h-14.274v-13.295h-11.896v13.295h-3.678v-36.754l-48.912-20.419V19.195h-11.437V13.82h-34.558v5.375
	h-7.953v155.633H83.785V61.089h-7.406V55.55H41.471V36.713H28.774v24.375h-10.58v113.739h-7.41v-43.433l-9.378-7.873v-10.1
	c0,0-1.326-1.196-3.837-2.438V75.177c0,0-0.993-2.125-3.313-4.213v-4.137c0,0-0.549-1.249-1.919-2.594V60.33
	c0,0-0.804-1.852-2.982-3.279v-2.49c0,0-0.682-1.558-2.559-2.609v-1.792c0,0-0.592-2.013-2.303-3.004v-3.99
	c0,0-0.498-2.613-2.009-3.083l0.158-20.156c0,0-0.396-1.638-0.554-0.298c-0.151,1.288-0.594,19.045-0.629,20.453
	c-1.472,0.45-2.121,2.545-2.121,3.085v4.545c-1.091,0.886-1.601,2.049-1.601,2.448v2.339c-1.166,0.811-1.707,1.719-1.707,2.062
	v3.084c-1.453,1.078-2.129,2.235-2.129,2.686v3.964c-1.167,1.068-1.723,2.09-1.723,2.534v4.095c-1.912,1.755-2.75,3.576-2.75,4.255
	v36.979c-0.839,0.39-1.683,0.804-2.55,1.267V123l-9.168,8.395v154.03h547.44V117.573h-8.908V143.813z"/>
<g id="mano" class="mano">
	<path fill="#FFD7B6" d="M139.979,89.948l36.797,13.192c2.584,0.926,5.423,0.831,7.938-0.268l38.445-16.775l27.88-6.336
		c3.514-0.8,6.007-3.924,6.007-7.527l28.203,12.542c4.414,1.963,9.581-0.062,11.483-4.502c1.9-4.436-0.165-9.572-4.608-11.456
		l-60.261-25.567c-5.087-2.158-10.814-2.242-15.961-0.236L178.487,57.6l-27.726-7.702L139.979,89.948z"/>
	<polyline fill="#00978D" points="-59.39,49.47 132.955,96.459 151.054,29.836 -59.39,-27.174 	"/>
	<path fill="#90FFDE" d="M147.745,41.921l14.312,4.092c1.45,0.415,2.291,1.927,1.876,3.379L151.226,93.83
		c-0.416,1.452-1.928,2.292-3.379,1.877l-14.313-4.092L147.745,41.921z"/>
	
		<rect x="140.562" y="41.481" transform="matrix(0.9614 0.275 -0.275 0.9614 24.0137 -36.6163)" fill="#86E5C6" width="4.032" height="51.684"/>
	<path fill="#FFB89C" d="M257.047,72.233l-1.186-2.963c-1.438-3.597-5.281-5.611-9.058-4.748l-26.656,6.104l-30.913,13.74
		c-2.435,1.005-4.01-2.099-1.521-3.496l30.995-13.658l27.829-6.596c5.048-1.197,10.197,1.563,11.995,6.429l2.589,7.001
		L257.047,72.233z"/>
	<path fill="#FFC012" d="M142.093,84.562c0-1.848,1.499-3.347,3.347-3.347s3.346,1.499,3.346,3.347c0,1.848-1.498,3.346-3.346,3.346
		C143.592,87.909,142.093,86.41,142.093,84.562"/>
</g>
<g>
	<rect x="53.264" y="279.986" fill="#60554B" width="337.876" height="12.688"/>
	<g>
		<g>
			<rect x="139.249" y="193.243" fill="#71685F" width="0.865" height="16.869"/>
		</g>
		<g>
			<path class="luz" fill="#F8E9CB" d="M146.34,216.426c0-1.015-0.231-1.982-0.639-2.848c-1.066-2.25-3.362-3.805-6.021-3.805
				c-2.653,0-4.949,1.555-6.017,3.805c-0.409,0.865-0.639,1.833-0.639,2.848c0,3.677,2.981,6.658,6.656,6.658
				C143.36,223.084,146.34,220.103,146.34,216.426z"/>
		</g>
		<g>
			<path fill="#71685F" d="M145.702,213.578c-1.066-2.25-3.362-3.805-6.021-3.805c-2.653,0-4.949,1.555-6.017,3.805H145.702z"/>
		</g>
	</g>
	<rect x="86.401" y="174.76" fill="#60554B" width="293.194" height="14.699"/>
	<g>
		<polygon fill="#4E4237" points="96.543,186.83 92.311,186.83 92.311,217.194 96.543,212.153 		"/>
		<polygon fill="#4E4237" points="92.311,223.782 92.311,278.163 96.543,278.163 96.543,218.735 		"/>
		<polygon fill="#71685F" points="127.135,187.805 123.891,185.079 96.543,212.153 96.543,218.735 		"/>
		<polygon fill="#4E4237" points="96.543,212.153 92.311,217.194 92.311,223.782 96.543,218.735 		"/>
	</g>
	<g>
		<g>
			<rect x="184.285" y="194.646" fill="#4E4237" width="206.772" height="85.853"/>
			<rect x="193.381" y="218.749" fill="#568C86" width="183.479" height="50.698"/>
			<rect x="226.536" y="216.355" fill="#4E4237" width="3.316" height="53.473"/>
			<rect x="301.334" y="219.234" fill="#4E4237" width="4.213" height="42.722"/>
			<rect x="227.64" y="257.197" fill="#4E4237" width="151.436" height="12.631"/>
			<rect x="182.373" y="218.066" opacity="0.5" fill="#CCCCCC" width="207.502" height="15.333"/>
			<g>
				<polygon fill="#D8713F" points="202.253,204.255 379.102,204.255 395.317,218.682 183.828,218.682 				"/>
				<g>
					<polygon fill="#F8E9CB" points="197.288,218.59 190.18,218.59 207.282,204.349 213.213,204.349 					"/>
					<polygon fill="#F8E9CB" points="213.182,218.59 206.084,218.59 220.546,204.349 226.478,204.349 					"/>
					<polygon fill="#F8E9CB" points="229.081,218.59 221.976,218.59 233.803,204.349 239.73,204.349 					"/>
					<polygon fill="#F8E9CB" points="244.975,218.59 237.868,218.59 247.061,204.349 252.995,204.349 					"/>
					<polygon fill="#F8E9CB" points="260.871,218.59 253.759,218.59 260.322,204.349 266.259,204.349 					"/>
					<polygon fill="#F8E9CB" points="276.762,218.59 269.655,218.59 273.583,204.349 279.519,204.349 					"/>
					<polygon fill="#F8E9CB" points="292.656,218.59 285.556,218.59 286.85,204.349 292.78,204.349 					"/>
					<polygon fill="#F8E9CB" points="308.551,218.59 301.447,218.59 300.109,204.349 306.039,204.349 					"/>
					<polygon fill="#F8E9CB" points="324.441,218.59 317.34,218.59 313.369,204.349 319.298,204.349 					"/>
					<polygon fill="#F8E9CB" points="340.343,218.59 333.234,218.59 326.637,204.349 332.563,204.349 					"/>
					<polygon fill="#F8E9CB" points="356.227,218.59 349.127,218.59 339.888,204.349 345.817,204.349 					"/>
					<polygon fill="#F8E9CB" points="372.136,218.59 365.019,218.59 353.154,204.349 359.083,204.349 					"/>
					<polygon fill="#F8E9CB" points="388.022,218.59 380.92,218.59 366.417,204.349 372.342,204.349 					"/>
				</g>
				<rect x="183.455" y="218.498" fill="#A2552F" width="211.862" height="3.228"/>
			</g>
			<rect x="53.264" y="184.299" fill="#574B41" width="344.972" height="10.607"/>
			<g>
				<rect x="272.193" y="105.772" fill="#4E4237" width="3.91" height="69.161"/>
				<rect x="346.574" y="105.772" fill="#4E4237" width="3.915" height="69.161"/>
				<rect x="266.969" y="110.993" fill="#4E4237" width="90.044" height="54.809"/>
				<rect x="270.234" y="114.259" fill="#F8E9CB" width="82.858" height="48.28"/>
				<rect x="266.969" y="107.08" fill="#4E4237" width="89.06" height="0.98"/>
				<rect x="266.969" y="168.084" fill="#4E4237" width="89.06" height="0.979"/>
			</g>
			<rect x="229.632" y="260.577" fill="#F8E9CB" width="71.994" height="7.272"/>
			<rect x="305.675" y="260.102" fill="#F8E9CB" width="71.381" height="7.277"/>
		</g>
	</g>
	<polygon fill="#4E4237" points="95.754,269.621 95.754,261.329 69.22,261.329 69.22,268.828 53.264,268.828 53.264,280.499 
		184.329,280.499 184.329,269.621 	"/>
	<g>
		<g>
			<rect x="137.376" y="246.25" fill="#4E4237" width="4.616" height="23.063"/>
			<rect x="118.925" y="245.382" fill="#D8713F" width="41.514" height="5.192"/>
		</g>
		<g>
			<rect x="110.979" y="259.948" fill="#4E4237" width="2.953" height="9.365"/>
			<rect x="118.729" y="259.948" fill="#4E4237" width="2.953" height="9.365"/>
			<polygon fill="#D8713F" points="104.89,257.077 104.89,260.03 110.979,260.03 113.932,260.03 118.729,260.03 121.682,260.03 
				127.771,260.03 127.771,257.077 			"/>
		</g>
		<g>
			<rect x="157.682" y="259.948" fill="#4E4237" width="2.953" height="9.365"/>
			<rect x="165.433" y="259.948" fill="#4E4237" width="2.953" height="9.365"/>
			<polygon fill="#D8713F" points="151.595,257.077 151.595,260.03 157.682,260.03 160.635,260.03 165.433,260.03 168.385,260.03 
				174.474,260.03 174.474,257.077 			"/>
		</g>
	</g>
	<g>
		<g>
			<g>
				<rect x="62.959" y="200.72" fill="#D8713F" width="19.286" height="21.202"/>
			</g>
			<g>
				<rect x="62.959" y="200.72" fill="#A2552F" width="19.286" height="3.242"/>
			</g>
			<g>
				<g>
					<rect x="63.913" y="194.855" fill="#71685F" width="1.621" height="5.97"/>
				</g>
				<g>
					<rect x="79.669" y="194.855" fill="#71685F" width="1.617" height="5.97"/>
				</g>
			</g>
		</g>
		<g id="_x35_0_1_">
			<path fill="#4E4237" d="M76.958,216.104c0.006,0.104,0.268,0.635,0.95,0.683c0.431,0.027,1.392-0.348,1.384-1.368
				c-0.01-1.164-1.378-1.577-1.378-1.577H68.05c0.224,3.646,3.326,4.427,3.326,4.427l-3.123,0.02v0.607h10.2v-0.636h-4.222
				C76.157,217.646,76.958,216.104,76.958,216.104z M78.038,214.836c0.381,0,0.687,0.306,0.687,0.686
				c0,0.381-0.305,0.687-0.687,0.687c-0.379,0-0.685-0.306-0.685-0.687C77.353,215.142,77.659,214.836,78.038,214.836z"/>
			<path fill="#4E4237" d="M71.605,211.223c0.455,0.082,1.478,0.118,1.869,1.326c-0.018,0.349,0.014,0.566-0.104,0.826
				c0.166-0.315,0.563-1.154,0.655-1.959c0.054-0.463-0.204-1.325-0.649-1.325c-0.443,0-1.739,0.475-1.406-0.39
				c0.456-0.805,1.384-1.795,1.518-2.818c0.068-0.691-0.573-1.546-1.518-1.456c0,0,1.767,0.024,0.761,2.129
				c-0.321,0.503-0.792,1.178-2.274,2.317c-0.352,0.373-0.789,0.759-0.655,1.112C70.041,211.185,70.258,211.223,71.605,211.223z"/>
		</g>
	</g>
	<g>
		<rect x="192.524" y="276.062" fill="#71685F" width="34.516" height="5.642"/>
		<rect x="191.835" y="281.518" fill="#695E55" width="35.892" height="5.646"/>
		<rect x="191.835" y="287.029" fill="#574B41" width="35.892" height="5.645"/>
	</g>
	<g>
		<path fill="#4E4237" d="M345.17,138.009c-0.346,0-0.667,0.074-0.958,0.197c0.509-1.811,0.896-3.631,0.896-5.25
			c0-3.103-1.938-5.187-4.823-5.187c-0.174,0-0.346,0.012-0.518,0.032c0.076-0.255,0.146-0.491,0.21-0.713
			c0.438-1.491,0.681-2.31,0.681-3.14c0-2.022-1.775-3.666-3.955-3.666c-1.689,0-3.055,0.986-3.468,2.476
			c-0.711,2.394-1.445,5.234-2.128,8.118c-0.594-1.214-1.51-2.068-2.712-2.436c-0.834-0.539-1.87-0.85-2.872-0.85
			c-2.682,0-4.864,1.873-6.427,4.462c-0.34-2.705-2.19-4.534-4.752-4.534c-1.327,0-2.575,0.589-3.757,1.785
			c-0.657-0.487-1.483-0.773-2.395-0.773c-1.241,0-2.325,0.599-2.952,1.538c-0.461-1.487-1.835-2.55-3.523-2.55
			c-1.512,0-2.813,0.779-3.552,2.037c-0.579-1.182-1.833-1.964-3.356-1.964c-1.014,0-1.931,0.341-2.642,0.922
			c0.002-0.098,0.011-0.197,0.011-0.295c0-1.481,0-5.422-3.526-7.049l-0.427-0.198h-0.019c-0.419-0.202-1.092-0.471-1.938-0.471
			c-5.708,0-7.093,7.601-8.314,14.305c-0.573,3.136-1.276,6.992-2.278,8.445c-1.659,0.895-3.274,2.6-3.274,4.578
			c0,1.425,1.103,2.543,2.508,2.543c0.765,0,1.281-0.282,1.56-0.436c0.129-0.07,0.325-0.177,1.191-0.177
			c0.271,0,0.545,0.072,1.042,0.209c0.835,0.231,1.979,0.549,3.806,0.549c2.426,0,4.693-1.2,6.56-2.735
			c1.043,2.366,3.177,2.699,4.257,2.699c1.144,0,2.192-0.368,3.135-1.096c0.874,0.772,1.973,1.096,2.98,1.096
			c1.074,0,2.088-0.372,3.059-1.086c0.721,0.763,1.729,1.194,2.729,1.194c1.667,0,3.056-1.042,3.518-2.651
			c0.888,1.749,2.635,2.651,4.37,2.651c1.973,0,3.623-1.234,4.915-2.777c1.244,1.785,3.133,2.813,5.54,2.813
			c1.929,0,3.644-0.669,5.131-1.727c0.613,1.03,1.689,1.691,2.973,1.691c2.218,0,3.033-1.442,3.496-3.201
			c0.776,2.108,2.701,3.201,4.607,3.201c4.345,0,6.411-5.754,7.293-8.209l0.178-0.487c0.188-0.499,0.284-0.972,0.284-1.41
			C347.533,139.071,346.516,138.009,345.17,138.009z M284.063,143.29c-0.421,0-0.813-0.024-1.186-0.064
			c0.866-1.792,1.553-3.969,2.148-6.235c0.811,1.08,2.062,1.514,3.198,1.514c0.361,0,0.698-0.054,1.023-0.132
			c-0.109,0.555-0.217,1.108-0.311,1.651C288.044,141.124,285.772,143.29,284.063,143.29z M324.729,144.268
			c-0.116,0-0.182-0.014-0.2-0.014h-0.004c-0.044-0.06-0.291-0.465-0.291-1.747c0-0.607,0.056-1.244,0.155-1.891
			c0.677,0.575,1.609,0.927,2.653,0.927c0.306,0,0.793-0.038,1.346-0.216C327.285,142.92,325.813,144.268,324.729,144.268z"/>
		<g>
			<path fill="#D8713F" d="M290.033,128.216c0,1.52-0.18,3.148-0.18,4.632c0,0.687,0.107,1.338,0.107,1.918
				c0,1.084-0.832,1.591-1.736,1.591c-1.194,0-1.917-0.763-1.917-2.352c0-2.498,1.411-5.862,1.411-8.321
				c0-0.725-0.109-1.375-0.435-1.918c-0.146,0-0.254,0-0.543,0.074c-2.17,0.651-3.219,16.714-7.415,20.911
				c1.264,0.216,2.711,0.687,4.737,0.687c3.257,0,6.513-3.909,6.983-4.668c0.18-0.29,0.434-0.469,0.579-0.469
				c0.145,0,0.252,0.108,0.252,0.326c0,0.144-0.036,0.288-0.107,0.507c-0.436,1.266-4.595,7.235-9.262,7.235
				c-2.642,0-3.474-0.761-4.848-0.761c-2.172,0-2.134,0.615-2.751,0.615c-0.216,0-0.361-0.144-0.361-0.397
				c0-1.122,1.34-2.352,2.497-2.859c3.798-4.089,2.64-22.32,9.224-22.32c0.761,0,1.302,0.469,1.485,0.469
				C289.635,123.984,290.033,125.973,290.033,128.216z"/>
			<path fill="#D8713F" d="M293.832,144.352c0,0.979,0.254,1.521,0.797,1.521c2.099,0,3.474-6.983,5.101-14.474
				c0.252-1.192,1.122-1.735,1.989-1.735c0.796,0,1.555,0.543,1.555,1.483c0,1.447-3.038,11.577-3.038,14.073
				c0,0.653,0.146,0.976,0.471,0.976c1.302,0,3.51-4.629,3.907-5.426c0.218-0.433,0.436-0.615,0.615-0.615
				c0.146,0,0.253,0.11,0.253,0.361c0,0.146-0.036,0.361-0.144,0.617c-0.507,1.266-2.857,7.199-5.897,7.199
				c-1.086,0-2.388-0.581-2.462-3.041c-0.974,1.883-2.168,3.041-3.653,3.041c-2.024,0-2.713-1.557-2.713-3.871
				c0-3.51,1.52-8.756,2.244-13.097c0.18-1.122,1.122-1.629,1.954-1.629c0.795,0,1.556,0.471,1.556,1.339
				c0,0.108,0,0.254-0.038,0.361C295.169,137.188,293.832,142,293.832,144.352z"/>
			<path fill="#D8713F" d="M305.228,148.44c-0.759,0-1.592-0.543-1.592-1.629c0-0.108,0.036-0.216,0.036-0.324
				c0.653-5.428,1.483-9.082,3.185-14.869c0.18-0.653,0.761-0.942,1.337-0.942c0.869,0,1.773,0.615,1.773,1.665
				c0,0.94-0.615,2.425-0.833,3.364c1.485-3.4,3.33-6.041,5.211-6.041c2.135,0,2.678,1.955,2.678,3.292
				c0,4.089-3.51,10.348-3.51,12.554c0,0.471,0.182,0.761,0.576,0.761c1.594,0,4.089-4.776,4.524-5.5
				c0.218-0.361,0.507-0.615,0.687-0.615c0.11,0,0.182,0.072,0.182,0.253c0,0.146-0.035,0.361-0.146,0.651
				c-0.434,1.304-3.074,7.381-6.221,7.381c-1.447,0-2.823-1.014-2.823-3.184c0-3.256,3.474-9.803,3.474-12.229
				c0-0.469-0.182-0.866-0.579-0.866c-1.339,0-4.521,5.606-5.933,12.154l-0.108,0.253c-0.182,1.012-0.325,1.881-0.436,2.677
				C306.565,148.041,305.915,148.44,305.228,148.44z"/>
			<path fill="#D8713F" d="M326.828,131.183c-2.027,0-4.74,6.838-4.74,11.324c0,2.424,0.723,3.907,2.642,3.907
				c2.856,0,5.462-3.582,6.475-5.644c0.182-0.397,0.399-0.543,0.579-0.543c0.146,0,0.255,0.11,0.255,0.363
				c0,0.144-0.038,0.324-0.109,0.543c-1.266,3.111-4.196,7.343-8.357,7.343c-3.617,0-5.029-2.967-5.029-6.656
				c0-5.391,3.11-12.084,6.982-12.084c0.796,0,1.519,0.325,1.954,0.687c1.627,0.29,2.244,2.172,2.244,4.125
				c0,2.605-0.725,4.849-2.68,4.849c-0.83,0-1.627-0.471-1.627-1.122c0-1.447,2.278-2.679,2.278-5.68
				C327.694,131.834,327.189,131.183,326.828,131.183z"/>
			<path fill="#D8713F" d="M339.959,145.582c0,0.579,0.18,0.906,0.651,0.906c1.193,0,2.388-2.787,3.907-5.718
				c0.182-0.361,0.469-0.615,0.652-0.615c0.144,0,0.216,0.11,0.216,0.325c0,0.146-0.036,0.364-0.146,0.653
				c-0.506,1.302-2.314,7.307-5.463,7.307c-1.445,0-2.82-1.014-2.82-3.184c0-3.146,2.856-9.841,2.856-12.229
				c0-0.543-0.144-0.866-0.505-0.866c-1.05,0-3.909,4.268-5.465,10.996c-0.83,3.909-0.723,5.283-2.17,5.283
				c-0.687,0-1.373-0.507-1.373-1.591c0-2.352,2.531-15.197,4.991-23.48c0.182-0.651,0.76-0.94,1.411-0.94
				c0.868,0,1.809,0.579,1.809,1.52c0,1.158-1.014,3.184-2.785,10.924c1.302-2.857,2.896-4.957,4.559-4.957
				c2.134,0,2.677,1.703,2.677,3.041C342.962,136.971,339.959,143.232,339.959,145.582z"/>
		</g>
	</g>
</g>
<g>
	<g>
		<rect x="361.565" y="293.57" fill="#60554B" width="5.303" height="7.714"/>
		<rect x="378.44" y="293.57" fill="#60554B" width="5.305" height="7.714"/>
	</g>
	<g>
		<rect x="354.814" y="250.175" fill="#71685F" width="35.681" height="44.841"/>
		<rect x="360.234" y="255.594" fill="#F8E9CB" width="24.841" height="34.003"/>
		<g id="sample_text_10_">
			<rect x="363.488" y="260.874" fill="#BAAF98" width="18.307" height="1.841"/>
			<rect x="363.488" y="266.504" fill="#BAAF98" width="18.307" height="1.839"/>
			<rect x="363.488" y="272.132" fill="#BAAF98" width="18.307" height="1.841"/>
			<rect x="363.488" y="277.762" fill="#BAAF98" width="18.307" height="1.841"/>
		</g>
	</g>
</g>
<g>
	<polygon class="luz" fill="#F8E9CB" points="484.872,174.736 494.744,174.736 498.462,152.881 481.154,152.881 	"/>
	<path fill="#4E4237" d="M498.197,151.764l-6.744-6.091v-3.948h-3.167v3.948l-6.735,6.091h-3.858v2.143h2.795l3.804,21.594v0.076
		h3.351v90.023h-3.351v33.48h11.161v-33.48h-3.346v-90.023h3.346v-0.076l3.812-21.594h2.797v-2.143H498.197z M484.915,172.6
		l-3.3-18.692h7.691V172.6H484.915z M494.834,172.6h-4.4v-18.692h7.69L494.834,172.6z"/>
</g>
</svg>