<svg version="1.1" xmlns="http://www.w3.org/2000/svg" xmlns:xlink="http://www.w3.org/1999/xlink" x="0px" y="0px"
	 width="1052.947px" height="395.885px" viewBox="0 0 1052.947 395.885" enable-background="new 0 0 1052.947 395.885"
	 xml:space="preserve">
<g id="Capa_2">
	<rect x="0" y="333.147" fill="#B5D55A" width="1052.947" height="62.738"/>
	<g>
		<g>
			<g>
				<polygon fill="#22A1BD" points="405.567,152.819 409.958,104.891 421.027,104.891 421.027,90.302 352.603,88.534 
					352.603,105.073 366.991,105.898 374.74,155.335 				"/>
				<polygon fill="#22BABD" points="421.027,90.302 421.027,99.874 365.329,97.288 359.303,88.708 				"/>
			</g>
			<path fill="#7E6467" d="M144.007,245.371l-2.15,38.528l-6.132-8.038c-1.252-1.642-3.836-0.248-3.152,1.701l8.067,22.935
				l-1.322,33.586h15.942v-88.712H144.007z"/>
			<g>
				<polygon fill="#B5D55A" points="193.824,145.657 190.661,83.658 121.357,38.449 93.897,173.354 129.515,263.457 
					177.962,250.153 				"/>
				<polygon fill="#A4B55C" points="190.661,83.658 168.737,69.356 123.471,188.443 93.897,173.354 129.515,263.457 
					177.962,250.153 193.824,145.657 				"/>
			</g>
			<g>
				<polygon fill="#22BABD" points="471.819,203.467 436.461,135.872 183.21,139.94 150.342,209.648 				"/>
				<path fill="#22A1BD" d="M183.21,139.94l-32.869,69.708l234.498-4.508c-45.494-23.107-92.492-44.127-138.364-66.218
					L183.21,139.94z"/>
				<path fill="#D4D5C9" d="M162.669,212.134l6.968,121.949h62.837c-14.511-40.852-30.684-81.108-42.35-122.758L162.669,212.134z"/>
				<path fill="#EEEDD8" d="M470.153,203.076l-280.029,8.249c11.666,41.649,27.839,81.906,42.35,122.758h223.743L470.153,203.076z"
					/>
				<polygon fill="#D4D5C9" points="289.674,334.083 298.183,206.56 304.057,220.566 307.384,334.083 				"/>
				<polygon fill="#7E6467" points="477.78,209.323 147.442,214.236 147.875,205.536 478.3,198.883 				"/>
				<g>
					<polygon fill="#EEEDD8" points="191.26,334.083 186.421,204.478 243.672,135.202 298.183,206.56 289.674,334.083 					"/>
					<polygon fill="#7E6467" points="312.871,211.776 242.082,131.349 172.672,214.236 182.597,221.637 243.074,148.206 
						304.057,220.566 					"/>
				</g>
				<circle fill="#FECC8D" cx="242.302" cy="190.759" r="14.614"/>
				<circle fill="#7595AE" cx="242.302" cy="190.759" r="9.441"/>
				<path fill="#93ACBF" d="M246.264,182.198c-1.207-0.558-2.545-0.879-3.962-0.879c-5.214,0-9.44,4.227-9.44,9.44
					c0,0.735,0.092,1.447,0.252,2.134C237.497,189.353,241.88,185.799,246.264,182.198z"/>
				<path fill="#93ACBF" d="M249.998,185.331c-4.821,4.046-9.67,8.033-14.613,11.836c1.01,1.093,2.277,1.937,3.701,2.456
					c4.201-3.163,8.376-6.334,12.616-9.362C251.604,188.43,250.997,186.738,249.998,185.331z"/>
				<g>
					<polygon fill="#7E6467" points="213.263,334.083 205.383,225.378 273.751,221.637 266.612,334.083 					"/>
					<polygon fill="#FECC8D" points="219,334.083 211.988,231.193 267.157,228.174 260.823,334.083 					"/>
					<polygon fill="#FEB66D" points="260.823,334.083 225.156,304.851 221.469,230.674 211.988,231.193 219,334.083 					"/>
					<polygon fill="#7E6467" points="256.916,271.838 251.702,271.838 250.236,283.123 256.916,283.123 					"/>
				</g>
			</g>
		</g>
		<path fill="#A4B55C" d="M139.319,334.083l-14.758,12.921h156.795c7.254-4.362,14.564-8.685,21.968-12.921H139.319z"/>
		<path fill="#B5D55A" d="M376.402,347.004h111.425l-17.674-12.921h-166.83c-7.403,4.236-14.713,8.559-21.968,12.921h40.117
			l18.562,11.49l-1.916-11.49l23.1,15.321l-5.44-15.321l23.322,11.045L376.402,347.004z"/>
	</g>
	<rect x="320.223" y="234.643" fill="#F94141" width="126.75" height="78.05"/>
	<g>
		<path fill="#FFFFFF" d="M371.684,263.474c1.084,0.668,2.669,1.224,4.337,1.224c2.475,0,3.92-1.307,3.92-3.197
			c0-1.751-1-2.752-3.531-3.726c-3.058-1.084-4.948-2.669-4.948-5.31c0-2.92,2.418-5.088,6.061-5.088
			c1.918,0,3.308,0.444,4.143,0.917l-0.667,1.975c-0.612-0.334-1.863-0.89-3.559-0.89c-2.558,0-3.531,1.528-3.531,2.808
			c0,1.752,1.14,2.613,3.726,3.614c3.169,1.224,4.782,2.752,4.782,5.505c0,2.891-2.141,5.394-6.561,5.394
			c-1.807,0-3.781-0.528-4.782-1.195L371.684,263.474z"/>
		<path fill="#FFFFFF" d="M395.427,257.636h-7.284v6.756h8.118v2.029h-10.537v-18.738h10.12v2.029h-7.701v5.922h7.284V257.636z"/>
		<path fill="#FFFFFF" d="M337.247,293.894l-1.946,5.894h-2.502l6.367-18.738h2.919l6.394,18.738h-2.585l-2.001-5.894H337.247z
			 M343.392,292.003l-1.835-5.394c-0.417-1.224-0.695-2.336-0.973-3.42h-0.056c-0.278,1.112-0.584,2.252-0.945,3.392l-1.835,5.422
			H343.392z"/>
		<path fill="#FFFFFF" d="M351.234,281.049h2.419v16.709h8.007v2.029h-10.426V281.049z"/>
		<path fill="#FFFFFF" d="M378.731,302.539c-2.53-0.667-5.004-1.417-7.173-2.168c-0.39-0.14-0.779-0.278-1.14-0.278
			c-4.448-0.167-8.257-3.447-8.257-9.48c0-6.005,3.669-9.869,8.729-9.869c5.088,0,8.396,3.947,8.396,9.48
			c0,4.81-2.224,7.896-5.338,8.979v0.111c1.863,0.473,3.893,0.917,5.477,1.195L378.731,302.539z M376.729,290.335
			c0-3.754-1.946-7.618-5.922-7.618c-4.087,0-6.088,3.781-6.061,7.84c-0.028,3.976,2.168,7.563,5.95,7.563
			C374.561,298.119,376.729,294.616,376.729,290.335z"/>
		<path fill="#FFFFFF" d="M384.849,281.049v11.093c0,4.198,1.863,5.978,4.365,5.978c2.78,0,4.56-1.835,4.56-5.978v-11.093h2.446
			v10.926c0,5.755-3.03,8.118-7.089,8.118c-3.836,0-6.728-2.196-6.728-8.007v-11.037H384.849z"/>
		<path fill="#FFFFFF" d="M402.839,281.049v18.738h-2.419v-18.738H402.839z"/>
		<path fill="#FFFFFF" d="M407.065,281.049h2.419v16.709h8.007v2.029h-10.426V281.049z"/>
		<path fill="#FFFFFF" d="M423.219,293.894l-1.946,5.894h-2.502l6.367-18.738h2.919l6.394,18.738h-2.585l-2.001-5.894H423.219z
			 M429.364,292.003l-1.835-5.394c-0.417-1.224-0.695-2.336-0.973-3.42H426.5c-0.278,1.112-0.584,2.252-0.945,3.392l-1.835,5.422
			H429.364z"/>
	</g>
</g>
<g id="Capa_1">
	<g>
		<g>
			<g id="Manos" class="manos">
				<path fill="#FFD6AB" d="M218.532,86.66l27.251,6.555c0,0,9.758,3.393,13.477,2.133c3.72-1.259,17.633-7.725,17.633-7.725
					l5.483,20.276c0,0,20.902,7.277,34.479,10.173c13.576,2.897,30.313,14.331,30.313,14.331s2.064,4.061-0.295,9.803
					c-0.534,1.301-0.995,2.552-1.391,3.709c-1.432,4.209-5.131,7.23-9.538,7.804l-3.378,10.427c-0.964,2.977-3.71,5.011-6.838,5.071
					l-1.744,0.031l-3.673,9.821c-0.868,2.322-3.315,3.65-5.735,3.109l-4.574-1.021l-3.049,8.768
					c-0.877,2.523-3.329,4.152-5.996,3.979c-8.919-0.579-28.665-2.155-37.337-5.17l-11.384-3.957c0,0-34.4-43.674-37.087-46.431
					c-2.688-2.757-13.874-5.187-13.874-5.187L218.532,86.66z"/>
				<g opacity="0.35">
					<g>
						<g>
							<defs>
								
									<rect id="SVGID_1_" x="201.347" y="86.387" transform="matrix(-0.9917 0.1288 -0.1288 -0.9917 564.0311 221.2596)" width="147.027" height="84.963"/>
							</defs>
							<clipPath id="SVGID_2_">
								<use xlink:href="#SVGID_1_"  overflow="visible"/>
							</clipPath>
							<path clip-path="url(#SVGID_2_)" fill="#FFD6AB" d="M215.923,93.689l15.867,6.877c-3.109,11.797,2.333,21.219,18.686,10.655
								c5.081-3.282,26.986-1.949,32.952-2.96c3.378,1.155,53.95,7.391,64.196,10.179c-23.621,9.819-38.141,1.999-46.295,0.948
								c-12.792-1.649-13.408,3.063-11.063,9.032c1.892,4.817,0.296,5.668-5.31,7.864c-4.833,1.892-6.229,10.514-1.008,15.905
								c-1.602,2.064-3.781,1.973-6.273,2.763c-5.171,1.638-5.885,6.672-4.407,11.544c1.05,3.466-9.805,12.244-14.522,0.171
								c-1.317-3.373-4.1-5.935-5.148-9.399c-0.907-2.996-1.655-6.063-1.792-9.189c-0.041-0.954-0.031-1.932-0.364-2.825
								c-0.286-0.769-0.808-1.421-1.32-2.061c-3.074-3.83-6.214-7.721-10.288-10.465c-3.542-2.388-8.569-3.704-11.916-1.049
								c-1.983,1.574-2.866,4.205-2.991,6.734c-0.242,4.891,2.134,9.835,6.104,12.701c2.51,1.814,5.557,2.817,7.945,4.787
								c2.389,1.972,3.978,5.56,2.307,8.167c-0.788,1.229-2.083,1.934-3.494,2.417c-9.762-12.321-21.135-26.601-22.635-28.138
								c-2.688-2.757-13.874-5.187-13.874-5.187L215.923,93.689z"/>
						</g>
					</g>
				</g>
				<path fill="#FFFFFF" d="M234.062,87.438c0,0-13.864,47.923-14.797,52.704c-0.933,4.779-8.471,24.741-8.471,24.741l-33.559-7.29
					l41.269-80.803L234.062,87.438z"/>
				<path fill="#CC9966" d="M268.977,117.221c-2.424,4.226-8.994,5.235-12.247,4.104c-3.253-1.132-11.225-6.333-11.225-6.333
					s7.606-7.2,13.12-12.575c5.515-5.375,20.528-21.3,20.528-21.3s7.566,4.451,14.171,7.477c6.605,3.025,22.173,3.333,22.173,3.333
					l16.274-12.207l25.604,41.71c0,0-2.742,2.533-11.813,9.88c0,0-12.16-8.547-31.84-13.601
					c-15.954-4.098-25.448-5.949-25.448-5.949c-7.218-2.147-9.927-1.413-9.927-1.413S271.837,112.23,268.977,117.221"/>
				<path fill="#CC9966" d="M224.56,168.959c0,0,9.846-9.835,20.754-20.907c3.995-0.252,7.308,2.364,9.402,5.801
					c0.951,1.703-0.616,3.993-2.188,6.358c-0.385,0.492-0.729,1.062-1.062,1.647c-0.253,0.417-0.487,0.834-0.69,1.246
					c0.229-0.404,0.457-0.829,0.69-1.246c0.333-0.549,0.697-1.101,1.062-1.647c0.836-1.065,1.862-1.748,3.35-1.367
					c6.085,2.324,10.42,6.032,8.754,11.671c-0.637,0.856-0.675,0.8,0,0c2.035-1.765,6.031-0.74,7.745,0.58
					c1.144,0.881,1.537,3.914,0.788,6.066c3.146-3.492,6.487-5.47,9.98-2.322c3.36,2.133,5.974,6.419,4.477,10.728
					c-0.243,2.088-2.002,4.373-2.311,5.955c-0.025,0.39-0.058,0.773-0.084,1.16c-1.597,4.254-4.886,11.51-8.736,11.463
					c-5.443-0.07-11.384-3.959-11.384-3.959l-0.595-4.582c0,0-5.58,1.824-9.362-0.336c-3.084-1.762-4.137-4.442-4.137-4.442
					s-2.949,1.329-3.722,1.188c-3.838-0.703-10.329-5.254-11.489-8.209s2.36-5.742,2.36-5.742s-5.543-0.833-8.994-3.491
					C225.72,171.915,224.56,168.959,224.56,168.959"/>
				<polygon fill="#FFFFFF" points="322.056,74.988 367.18,149.323 402.201,133.981 354.871,54.534 				"/>
				<g opacity="0.35">
					<g>
						<g>
							<defs>
								
									<rect id="SVGID_3_" x="282.289" y="143.279" transform="matrix(-0.9917 0.1288 -0.1288 -0.9917 652.2362 292.8696)" width="68.719" height="48.489"/>
							</defs>
							<clipPath id="SVGID_4_">
								<use xlink:href="#SVGID_3_"  overflow="visible"/>
							</clipPath>
							<path clip-path="url(#SVGID_4_)" fill="#AD815C" d="M285.313,191.523c0.308-1.582,2.067-3.867,2.311-5.955
								c0.292-0.84,0.423-1.682,0.429-2.502c0.356-0.041,0.714-0.055,1.069-0.018c1.257,0.127,2.368,0.828,3.506,1.375
								c2.857,1.375,6.148,1.842,9.273,1.283c1.281-0.229,2.472-0.89,3.214-1.957c1.912-2.763-0.478-5.835-3.1-7.225
								c-2.316-1.227-5.033-1.833-6.917-3.655c6.461,1.25,12.921,2.5,19.381,3.75c2.035,0.394,4.184-0.188,5.618-1.683
								c3.729-3.889-1.279-9.187-6.011-10.331c-4.451-1.076-9.753-1.02-12.62-4.589c5.052,0.633,10.104,1.265,15.155,1.898
								c4.722,0.591,9.846,1.116,13.701-2.237c1.983-1.725,2.879-4.479,1.986-6.949c-0.979-2.704-3.59-3.505-6.014-4.19
								c-5.27-1.489-10.538-2.979-15.807-4.471c6.949-1.965,14.241,0.854,21.429,1.562c5.845,0.576,12.887-1.366,15.742-5.97
								c-0.175,0.811-0.423,1.659-0.786,2.547c-0.534,1.301-0.996,2.552-1.392,3.71c-1.431,4.208-5.13,7.23-9.538,7.803
								l-3.378,10.427c-0.964,2.977-3.71,5.012-6.838,5.071l-1.744,0.031l-3.672,9.822c-0.87,2.323-3.315,3.649-5.736,3.108
								l-4.574-1.021l-3.049,8.769c-0.877,2.522-3.329,4.15-5.996,3.977c-3.827-0.246-9.643-0.68-15.722-1.327
								C285.263,192.223,285.291,191.873,285.313,191.523"/>
						</g>
					</g>
				</g>
				<g opacity="0.15">
					<g>
						<g>
							<defs>
								
									<rect id="SVGID_5_" x="173.74" y="91.829" transform="matrix(-0.9917 0.1288 -0.1288 -0.9917 420.107 230.2993)" width="57.736" height="73.807"/>
							</defs>
							<clipPath id="SVGID_6_">
								<use xlink:href="#SVGID_5_"  overflow="visible"/>
							</clipPath>
							<path clip-path="url(#SVGID_6_)" fill="#808080" d="M177.237,157.593l19.317-59.956c1.421-1.583,2.899-3.115,4.442-4.582
								c0.823-0.782,1.748-1.587,2.878-1.696c1.232-0.117,2.365,0.617,3.384,1.321c5.209,3.599,10.419,7.199,15.63,10.8
								c1.684,1.164,3.882,2.263,5.858,2.455c-4.116,14.396-8.956,31.509-9.481,34.208c-0.933,4.779-8.471,24.741-8.471,24.741
								L177.237,157.593z"/>
						</g>
					</g>
				</g>
				<polygon fill="#002E4D" points="227.156,83.317 188.331,170.531 -140.666,-61.031 -52.499,-127.701 				"/>
				<g opacity="0.15">
					<g>
						<g>
							<defs>
								
									<rect id="SVGID_7_" x="333.209" y="53.552" transform="matrix(-0.9917 0.1288 -0.1288 -0.9917 740.9253 154.7766)" width="64.497" height="95.59"/>
							</defs>
							<clipPath id="SVGID_8_">
								<use xlink:href="#SVGID_7_"  overflow="visible"/>
							</clipPath>
							<path clip-path="url(#SVGID_8_)" fill="#808080" d="M337.774,65.19l17.096-10.655l47.33,79.446l-35.021,15.343L331.53,90.595
								c2.979-3.453,8.813-4.925,9.808-9.441c0.386-1.751-0.101-3.562-0.582-5.288C339.762,72.307,338.768,68.749,337.774,65.19"/>
						</g>
					</g>
				</g>
				<polygon fill="#2C3838" points="337.232,55.281 396.222,153.264 818.551,-127.701 697.056,-221.402 466.067,-36.912 				"/>
			</g>
		</g>
	</g>
</g>
</svg>