<svg xmlns="http://www.w3.org/2000/svg" xmlns:xlink="http://www.w3.org/1999/xlink" xml:space="preserve" width="1052.947" height="358.973" viewBox="-45.582 -133.823 1052.947 358.973"><style>
    .baranda, .montain_atras, .montain_frente {
        animation-timing-function: linear;
        animation-iteration-count: infinite;
    }

    .auto, .baranda, .manos, .montain_atras, .montain_frente {
        animation-iteration-count: infinite;
    }

    .contiene_spinner, .vmiddle {
        vertical-align: middle !important;
    }

    .contiene_spinner, .td__cotizacion {
        text-align: center;
    }

    @keyframes baranda {
        0% {
            transform: translate(68px, 0);
        }
        100% {
            transform: translate(0, 0);
        }
    }

    @keyframes montain {
        0% {
            opacity: 0;
            transform: translate(0, 0);
        }
        20%, 80% {
            opacity: 1;
        }
        100% {
            opacity: 0;
            transform: translate(-100px, 0);
        }
    }

    @keyframes montain2 {
        0% {
            opacity: 0;
            transform: translate(0, 0);
        }
        20%, 80% {
            opacity: 1;
        }
        100% {
            opacity: 0;
            transform: translate(100px, 0);
        }
    }

    @keyframes humo {
        0% {
            opacity: 0;
            transform: translate(0, 5px);
        }
        10% {
            opacity: 0;
        }
        40%, 60% {
            opacity: 1;
        }
        100% {
            opacity: 0;
            transform: translate(5px, -5px);
        }
    }

    @keyframes luz_prende {
        0% {
            fill: #636363;
        }
        100% {
            fill: #f8e9cb;
        }
    }

    @keyframes valiza {
        0%, 50% {
            fill: #b32d32;
        }
        100%, 51% {
            fill: #E6BA00;
        }
    }

    @keyframes auto {
        50% {
            transform: translate(0, 3px);
        }
        0% {
            transform: translate(0, 0);
        }
    }

    @keyframes grua {
        0%, 100% {
            transform: translate(100px, 0);
        }
        50% {
            transform: translate(-40px, 0);
        }
    }

    @keyframes camion_on {
        0% {
            transform: translate(0, 1px);
        }
        100% {
            transform: translate(0, 0);
        }
    }

    @keyframes camion_primera {
        0%, 80% {
            transform: translate(0, 0);
        }
        100% {
            transform: translate(-300px, 0);
        }
    }

    @keyframes mano {
        0% {
            transform: translate(-300px, 0);
        }
        100% {
            transform: translate(0, 0);
        }
    }

    .baranda {
        animation-name: baranda;
        animation-duration: .15s;
    }

    .montain_frente {
        animation-name: montain;
        animation-duration: 30s;
    }

    .montain_atras {
        animation-name: montain2;
        animation-duration: 50s;
    }

    .auto, .manos {
        animation-name: auto;
        animation-duration: .5s;
        animation-timing-function: ease-in-out;
    }

    .humo {
        animation-name: humo;
        animation-duration: 3s;
        animation-iteration-count: infinite;
        animation-timing-function: linear;
    }

    .valiza1, .valiza2 {
        animation-name: valiza;
        animation-duration: 1s;
        animation-iteration-count: infinite;
        animation-timing-function: linear;
    }

    .valiza2 {
        animation-direction: reverse;
    }

    .grua {
        animation-name: grua;
        animation-duration: 10s;
        animation-iteration-count: infinite;
        animation-timing-function: linear;
        animation-direction: alternate;
    }

    .camion {
        animation: .2s linear infinite camion_on;
    }

    .baranda_bici, .luz, .mano {
        animation-timing-function: linear;
    }

    .baranda_bici {
        animation-name: baranda;
        animation-duration: .2s;
        animation-iteration-count: infinite;
    }

    .luz {
        animation-name: luz_prende;
        animation-duration: 1.5s;
        animation-iteration-count: 1;
    }

    .mano {
        animation-name: mano;
        animation-duration: 2s;
    }
</style><defs><path id="g" d="M-45.582-17.526h1052.947V210.52H-45.582z"/></defs><clipPath id="h"><use xlink:href="#g" overflow="visible"/></clipPath><path fill="rgba(0, 0, 0, 0.1)" d="M813.809 51.804 699.791 75.605c-2.869.309-5.801.025-8.432-.841-11.635-3.828-39.916-15.095-42.553-13.962-15.971 6.858-66.57 28.212-73.375 26.435-5.986-1.563-49.369-39.742-71.609-59.569-6.389-5.695-18.813-5.179-24.225 1a135511.205 135511.205 0 0 0-30.051 34.289c-1.449 1.652-3.508 2.976-5.967 3.846L404.44 80.655c-4.176 1.48-9.096 1.48-13.273.003l-71.314-25.201c-5.219-1.845-11.481-1.356-16.004 1.249l-76.541 44.072c-5.885 3.732-19.011-13.308-29.927-28.962-5.837-8.372-23.058-7.593-27.346 1.236l-7.952 16.384c-3.936 8.108-19.221 9.637-26.185 2.622-.109-.111-.221-.221-.327-.33-4.917-4.948-14.707-5.946-21.391-2.176a463.334 463.334 0 0 0-5.778 3.325c-6.696 3.918-16.689 2.926-21.632-2.126-12.02-12.292-32.89-33.629-45.602-46.628-5.491-5.613-16.958-6.075-23.338-.956-15.072 12.096-59.021 126.13-59.021 126.13l1031 3.778s-167.018-122.237-176-121.271" class="montain_atras" clip-path="url(#h)"/><defs><path id="i" d="M-45.582 2.742h1052.947v212.379H-45.582z"/></defs><clipPath id="j"><use xlink:href="#i" overflow="visible"/></clipPath><path fill="#7ba7b3" d="M924.188 97.049c-6.698-4.769-18.738-4.338-24.503.889l-47.879 43.424c-5.189 4.706-15.681 5.629-22.713 1.983a470.914 470.914 0 0 0-6.066-3.097c-7.018-3.514-17.298-2.584-22.46 2.023-.111.103-.229.207-.34.308-7.315 6.535-23.36 5.11-27.496-2.441l-8.353-15.257c-4.494-8.223-22.578-8.95-28.711-1.152-11.458 14.577-25.24 30.449-31.418 26.975l-80.364-41.045c-4.75-2.426-11.324-2.882-16.805-1.164l-74.878 23.47c-4.387 1.375-9.551 1.374-13.937-.003l-41.097-12.9c-2.58-.812-4.742-2.044-6.261-3.582l-31.551-31.934c-5.687-5.754-18.73-6.233-25.437-.931-23.354 18.466-68.901 54.021-75.185 55.477-7.145 1.654-60.272-18.231-77.04-24.619-2.769-1.053-32.461 9.439-44.678 13.003-2.763.807-5.844 1.071-8.857.783L75.568 71.096C48.056 61.968-47.17 170.708-47.17 170.708h1054.08s-66.896-62.396-82.722-73.659z" class="montain_frente" clip-path="url(#j)"/><defs><path id="k" d="M1008.622-136.982v361.74H-45.582v-361.74"/></defs><clipPath id="l"><use xlink:href="#k" overflow="visible"/></clipPath><path fill="#575756" d="M-45.582 170.708h1052.947v55.022H-45.582z" clip-path="url(#l)"/><path fill="#878787" d="M-45.582 181.593h1052.947v6.094H-45.582z"/><g fill="#4A4A49"><path d="M-50.192 141.478h1060.807v5.777H-50.192z"/><path d="M343.465 173.075h-4.977c-1.795 0-3.252-1.374-3.252-3.067v-21.13c0-1.693 1.457-3.066 3.252-3.066h4.977c1.797 0 3.25 1.373 3.25 3.066v21.13c0 1.693-1.453 3.067-3.25 3.067M411.031 173.075h-4.977c-1.797 0-3.252-1.374-3.252-3.067v-21.13c0-1.693 1.455-3.066 3.252-3.066h4.977c1.795 0 3.25 1.373 3.25 3.066v21.13c0 1.693-1.455 3.067-3.25 3.067M478.598 173.075h-4.979c-1.795 0-3.25-1.374-3.25-3.067v-21.13c0-1.693 1.455-3.066 3.25-3.066h4.979c1.795 0 3.25 1.373 3.25 3.066v21.13c0 1.693-1.455 3.067-3.25 3.067M546.164 173.075h-4.977c-1.795 0-3.252-1.374-3.252-3.067v-21.13c0-1.693 1.457-3.066 3.252-3.066h4.977c1.795 0 3.25 1.373 3.25 3.066v21.13c0 1.693-1.455 3.067-3.25 3.067M613.729 173.075h-4.977c-1.795 0-3.252-1.374-3.252-3.067v-21.13c0-1.693 1.457-3.066 3.252-3.066h4.977c1.797 0 3.252 1.373 3.252 3.066v21.13c0 1.693-1.455 3.067-3.252 3.067M681.295 173.075h-4.977c-1.795 0-3.252-1.374-3.252-3.067v-21.13c0-1.693 1.457-3.066 3.252-3.066h4.977c1.797 0 3.25 1.373 3.25 3.066v21.13c0 1.693-1.453 3.067-3.25 3.067M748.862 173.075h-4.977c-1.795 0-3.252-1.374-3.252-3.067v-21.13c0-1.693 1.457-3.066 3.252-3.066h4.977c1.797 0 3.252 1.373 3.252 3.066v21.13c0 1.693-1.456 3.067-3.252 3.067M816.428 173.075h-4.977c-1.797 0-3.252-1.374-3.252-3.067v-21.13c0-1.693 1.455-3.066 3.252-3.066h4.977c1.795 0 3.25 1.373 3.25 3.066v21.13c0 1.693-1.455 3.067-3.25 3.067M883.994 173.075h-4.979c-1.795 0-3.25-1.374-3.25-3.067v-21.13c0-1.693 1.455-3.066 3.25-3.066h4.979c1.797 0 3.252 1.373 3.252 3.066v21.13c0 1.693-1.455 3.067-3.252 3.067M951.561 173.075h-4.979c-1.795 0-3.25-1.374-3.25-3.067v-21.13c0-1.693 1.455-3.066 3.25-3.066h4.979c1.797 0 3.25 1.373 3.25 3.066v21.13c0 1.693-1.453 3.067-3.25 3.067M135.698 173.943h-4.977c-1.797 0-3.252-1.374-3.252-3.067v-21.13c0-1.693 1.455-3.066 3.252-3.066h4.977c1.795 0 3.25 1.373 3.25 3.066v21.13c0 1.693-1.455 3.067-3.25 3.067M209.265 173.943h-4.979c-1.795 0-3.25-1.374-3.25-3.067v-21.13c0-1.693 1.455-3.066 3.25-3.066h4.979c1.795 0 3.25 1.373 3.25 3.066v21.13c0 1.693-1.455 3.067-3.25 3.067M276.831 173.943h-4.977c-1.795 0-3.252-1.374-3.252-3.067v-21.13c0-1.693 1.457-3.066 3.252-3.066h4.977c1.795 0 3.25 1.373 3.25 3.066v21.13c0 1.693-1.455 3.067-3.25 3.067M-22.868 173.943h-4.977c-1.795 0-3.252-1.374-3.252-3.067v-21.13c0-1.693 1.457-3.066 3.252-3.066h4.977c1.797 0 3.25 1.373 3.25 3.066v21.13c0 1.693-1.453 3.067-3.25 3.067M58.698 173.943h-4.977c-1.797 0-3.252-1.374-3.252-3.067v-21.13c0-1.693 1.455-3.066 3.252-3.066h4.977c1.795 0 3.25 1.373 3.25 3.066v21.13c0 1.693-1.455 3.067-3.25 3.067" class="baranda"/></g><g class="mano"><path fill="#FFD7B6" d="m12.811 27.357 36.797 13.192c2.584.926 5.423.831 7.938-.268l38.445-16.775 27.88-6.336a7.72 7.72 0 0 0 6.007-7.527l28.203 12.542c4.414 1.963 9.581-.062 11.483-4.502a8.716 8.716 0 0 0-4.608-11.456L104.695-19.34a21.177 21.177 0 0 0-15.961-.236L51.32-4.991l-27.726-7.702-10.783 40.05z"/><path fill="#00978D" d="M-186.557-13.121 5.787 33.868l18.099-66.623-210.443-57.01"/><path fill="#90FFDE" d="m20.577-20.67 14.312 4.092a2.733 2.733 0 0 1 1.876 3.379L24.058 31.239a2.733 2.733 0 0 1-3.379 1.877L6.366 29.024 20.577-20.67z"/><path fill="#86E5C6" d="m10.242 30.132-3.877-1.109L20.58-20.668l3.876 1.109z"/><path fill="#FFB89C" d="m129.88 9.642-1.186-2.963a7.867 7.867 0 0 0-9.058-4.748L92.98 8.035l-30.913 13.74c-2.435 1.005-4.01-2.099-1.521-3.496L91.541 4.621l27.829-6.596a10.264 10.264 0 0 1 11.995 6.429l2.589 7.001-4.074-1.813z"/><path fill="#FFC012" d="M14.926 21.971a3.348 3.348 0 0 1 6.693 0 3.346 3.346 0 1 1-6.693 0"/></g><g class="auto"><path fill="#F89E1E" d="M64.527 78.615c-.942 2.21.127 4.776 2.376 5.702l11.948 4.917c2.249.925 4.858-.125 5.801-2.335l15.497-36.364c.943-2.21-.127-4.776-2.375-5.702l-11.948-4.917c-2.249-.926-4.858.125-5.802 2.335L64.527 78.615z"/><path fill="#9F6330" d="m85.824 39.916.898.369a4.477 4.477 0 0 1-.338 1.543c-.986 2.313-3.692 3.402-6.047 2.434a4.572 4.572 0 0 1-.941-.538l.627-1.473c.943-2.21 3.553-3.261 5.801-2.335M97.774 44.833l-.897-.369a4.49 4.49 0 0 0-.882 1.319c-.985 2.313.123 4.972 2.477 5.941.344.142.697.227 1.051.283l.627-1.472c.942-2.21-.128-4.775-2.376-5.702M66.903 84.317l.897.369a4.49 4.49 0 0 0 .882-1.319c.985-2.313-.124-4.972-2.477-5.941a4.629 4.629 0 0 0-1.053-.283l-.626 1.472c-.942 2.21.128 4.776 2.377 5.702M78.85 89.234l-.896-.369a4.4 4.4 0 0 1 .338-1.542c.985-2.313 3.692-3.403 6.046-2.435.344.143.653.329.942.539l-.627 1.473c-.944 2.209-3.553 3.26-5.803 2.334"/><path fill="#E58925" d="m69.799 85.509 1.033.424 18.922-44.4-1.032-.424zM86.307 56.76s1.938 1.274 1.338 3.799l-3.574 8.295s-1.203 2.172-3.711 1.71l5.947-13.804z"/><path fill="#9F6330" d="M79.645 67.024s-.877 1.89.715 3.54c0 0 2.043.034 3.241-1.904l-3.956-1.636zM83.219 58.728s.771-1.933 3.088-1.968c0 0 1.649 1.789.867 3.604l-3.955-1.636z"/><path fill="#633A1A" d="m83.219 58.728 1.215.641 1.668-.412zM79.646 67.02l1.315.406.862 1.459z"/><g opacity=".4"><defs><path id="m" d="M86.102 56.76h1.283v3.604h-1.283z"/></defs><clipPath id="n"><use xlink:href="#m" overflow="visible"/></clipPath><path fill="#191818" d="M86.307 56.76s1.65 1.79.867 3.604l-1.072-1.407c.535-1.138.205-2.197.205-2.197" clip-path="url(#n)"/></g><g opacity=".4"><defs><path id="o" d="M80.359 68.52H83.6v2.043h-3.241z"/></defs><clipPath id="p"><use xlink:href="#o" overflow="visible"/></clipPath><path fill="#191818" d="m83.264 68.521.337.139c-1.198 1.938-3.241 1.904-3.241 1.904.881-.555 1.463-1.679 1.463-1.679l1.441-.364z" clip-path="url(#p)"/></g><path fill="#9F6330" d="m81.823 68.885 1.778-.226 3.573-8.294-1.072-1.408-1.824.334-3.485 8.084z"/><g opacity=".1"><defs><path id="q" d="M81.823 58.956h5.352v9.928h-5.352z"/></defs><clipPath id="r"><use xlink:href="#q" overflow="visible"/></clipPath><path fill="#191818" d="M86.102 58.957s-1.426 7.1-4.279 9.928l1.777-.225 3.574-8.295-1.072-1.408z" clip-path="url(#r)"/></g><g opacity=".1"><defs><path id="s" d="M64.185 39.58h22.538v49.988H64.185z"/></defs><clipPath id="t"><use xlink:href="#s" overflow="visible"/></clipPath><path fill="#161615" d="m85.824 39.916.898.369c-3.48-.05-5.275 1.563-5.731 2.163-.456.599-12.38 29.048-14.414 33.82-2.033 4.771.741 7.192.741 7.192s10.121 3.969 12.651 4.616c2.454.628 4.249-.512 4.351-.579a4.478 4.478 0 0 1-5.471 1.736l-11.947-4.917c-2.25-.925-3.317-3.491-2.377-5.701l15.498-36.364c.943-2.21 3.553-3.261 5.801-2.335" clip-path="url(#t)"/></g><path fill="#57BD8D" d="M94.748 87.018c-.003 1.626 1.35 2.958 3.004 2.961l34.702.049c1.655.002 3.013-1.326 3.013-2.952l.035-23.151c.002-1.626-1.35-2.959-3.004-2.962l-34.702-.049c-1.655-.002-3.011 1.326-3.014 2.953l-.034 23.151z"/><path fill="#9F6330" d="m97.795 60.914 3.528.005s1.126 6.599-6.547 6.587l.007-3.639c.002-1.627 1.358-2.955 3.012-2.953M132.498 60.964l-3.528-.005s-1.145 6.595 6.526 6.607l.006-3.641c.002-1.626-1.349-2.958-3.004-2.961M97.752 89.979l3.527.005s1.146-6.595-6.525-6.606l-.006 3.64c-.003 1.626 1.35 2.959 3.004 2.961M132.454 90.029l-3.526-.005s-1.127-6.598 6.545-6.587l-.006 3.64c-.002 1.625-1.357 2.954-3.013 2.952M111.161 56.274l4.49.006 4.489.007s1.703.003 1.699 1.854l-.004 2.808-2.068-.003.005-2.867-4.124-.006-4.127-.006-.004 2.868-2.066-.003.004-2.808c.004-1.851 1.706-1.85 1.706-1.85"/><g opacity=".1"><defs><path id="u" d="M110.992 57.721h9.302v3.226h-9.302z"/></defs><clipPath id="v"><use xlink:href="#u" overflow="visible"/></clipPath><path fill="#161615" d="m120.289 60.947.005-3.213-9.298-.013-.005 3.212.527.001.004-2.867 8.252.012-.006 2.867z" clip-path="url(#v)"/></g><g opacity=".1"><defs><path id="w" d="M94.748 60.914h40.684v29.114H94.748z"/></defs><clipPath id="x"><use xlink:href="#w" overflow="visible"/></clipPath><path fill="#161615" d="m94.748 87.018.034-23.151c.003-1.627 1.358-2.955 3.014-2.953-1.946.933-1.976 2.535-2.142 3.128-.163.593-.295 17.245-.1 20.805s1.15 3.989 2.144 4.201c.995.212 28.874.27 33.273.155 3.936-.103 4.406-1.404 4.461-1.678-.225 1.415-1.479 2.505-2.979 2.503l-34.702-.049c-1.653-.003-3.006-1.335-3.003-2.961" clip-path="url(#x)"/></g><path fill="#C03828" d="M197.926 192.038H21.311l2.578-22.256 15.594-12.486 28.965-1.629 82.306 1.99 22.28.182 16.571 2.714s15.65 17.623 15.282 18.582c-.368.961-6.961 12.903-6.961 12.903"/><path fill="#EF684E" d="M58.567 89.741h85.926l23.568 46.807 49.101 11.58-10.801 43.909h-8.435c.035-.56.087-1.118.087-1.687 0-15.06-12.421-27.266-27.743-27.266-15.321 0-27.741 12.206-27.741 27.266 0 .568.052 1.127.087 1.687H78.611c.034-.56.088-1.118.088-1.687 0-15.06-12.421-27.266-27.743-27.266S23.213 175.29 23.213 190.35c0 .568.052 1.127.087 1.687h-3.523l-6.873-43.909 45.663-58.387z"/><path fill="#C6E8F3" d="m157.014 135.942-18.413-39.445H90.36v39.445z"/><g opacity=".7"><defs><path id="y" d="M115.033 96.497h34.793v24.047h-34.793z"/></defs><clipPath id="z"><use xlink:href="#y" overflow="visible"/></clipPath><path fill="#FFF7F5" d="m146.022 112.394-22.336-15.897h-8.653l34.793 24.047z" clip-path="url(#z)"/></g><g opacity=".7"><defs><path id="A" d="M90.36 96.497h56.471v39.445H90.36z"/></defs><clipPath id="B"><use xlink:href="#A" overflow="visible"/></clipPath><path fill="#FFF7F5" d="M146.83 135.942 93.428 96.497H90.36v10.615l33.326 28.83z" clip-path="url(#B)"/></g><g opacity=".7"><defs><path id="C" d="M90.36 120.544h16.572v15.398H90.36z"/></defs><clipPath id="D"><use xlink:href="#C" overflow="visible"/></clipPath><path fill="#FFF7F5" d="M106.931 135.942 90.36 120.544v5.869l11.416 9.529z" clip-path="url(#D)"/></g><path fill="#C6E8F3" d="M82.626 96.497H62.371l-19.149 39.445h39.404z"/><g opacity=".7"><defs><path id="E" d="M67.405 96.497h15.221v15.682H67.405z"/></defs><clipPath id="F"><use xlink:href="#E" overflow="visible"/></clipPath><path fill="#FFF7F5" d="m82.626 105.182-9.821-8.686h-5.4l15.221 15.682z" clip-path="url(#F)"/></g><g opacity=".7"><defs><path id="G" d="M56.535 101.317h26.09v34.625h-26.09z"/></defs><clipPath id="H"><use xlink:href="#G" overflow="visible"/></clipPath><path fill="#FFF7F5" d="m82.626 125.448-22.595-24.131-3.497 7.203 24.373 27.422h1.719z" clip-path="url(#H)"/></g><g opacity=".7"><defs><path id="I" d="M53.505 112.178h23.72v23.764h-23.72z"/></defs><clipPath id="J"><use xlink:href="#I" overflow="visible"/></clipPath><path fill="#FFF7F5" d="m77.225 135.942-22.467-23.764-1.254 2.584 21.077 21.18z" clip-path="url(#J)"/></g><g opacity=".7"><defs><path id="K" d="M48.352 119.634h19.053v16.309H48.352z"/></defs><clipPath id="L"><use xlink:href="#K" overflow="visible"/></clipPath><path fill="#FFF7F5" d="M67.405 135.942 51.14 119.634l-2.788 5.746 11.931 10.562z" clip-path="url(#L)"/></g><path fill="#8B8886" d="m160.942 136.274-8.131-6.393v1.953l8.131 9.055z"/><path fill="#8B8886" d="M147.392 129.06c0 3.493 1.575 6.324 3.522 6.324s3.523-2.831 3.523-6.324c0-3.496-1.576-6.327-3.523-6.327s-3.522 2.831-3.522 6.327"/><path fill="#C03828" d="M92.569 142.458h15.467v3.076H92.569z"/><path fill="#E65440" d="m207.903 185.765-1.542 6.272h-8.435c.035-.562.086-1.119.086-1.688 0-1.566-.162-3.091-.422-4.585h10.313zM142.95 185.765c-.258 1.494-.423 3.019-.423 4.585 0 .568.053 1.126.087 1.688H78.611c.034-.562.087-1.119.087-1.688 0-1.566-.164-3.091-.423-4.585h64.675zM23.635 185.765c-.258 1.494-.424 3.019-.424 4.585 0 .568.053 1.126.088 1.688h-3.522l-.981-6.272h4.839zM58.567 89.741h85.925l.44.871-84.648 1.059-42.288 57.905v31.094l-5.093-32.542z"/><path fill="#F59184" d="m217.162 148.128-.531 2.161-51.27-10.364-20.427-49.31 23.127 45.932z"/><path fill="#E65440" d="M90.36 135.942h2.209v49.823H90.36z"/><path fill="#FFC552" d="M219.249 154.038h-10.494v19.905h5.246z"/><path fill="#C34027" d="M10.448 159.647h9.391v13.391h-9.391z"/><path fill="#412C3B" d="M146.83 190.591c0 12.722 10.495 23.037 23.44 23.037s23.442-10.315 23.442-23.037c0-12.723-10.497-23.037-23.442-23.037s-23.44 10.314-23.44 23.037"/><path fill="#D7D7D7" d="M158.614 190.591c0 6.328 5.22 11.455 11.658 11.455 6.437 0 11.656-5.127 11.656-11.455 0-6.326-5.22-11.457-11.656-11.457-6.439 0-11.658 5.13-11.658 11.457"/><path fill="#412C3B" d="M27.698 190.591c0 12.722 10.496 23.037 23.442 23.037 12.944 0 23.441-10.315 23.441-23.037 0-12.723-10.497-23.037-23.441-23.037-12.946-.001-23.442 10.314-23.442 23.037"/><path fill="#D7D7D7" d="M39.483 190.591c0 6.328 5.218 11.455 11.657 11.455 6.438 0 11.657-5.127 11.657-11.455 0-6.326-5.22-11.457-11.657-11.457-6.44 0-11.657 5.13-11.657 11.457"/><path fill="#EF684E" d="M62.924 81.529h75.201v1.46H62.924z"/><path fill="#EF684E" d="M136.492 82.26h1.633v7.481h-1.633zM111.971 82.26h1.634v7.481h-1.634zM87.448 82.26h1.634v7.481h-1.634zM62.924 82.26h1.634v7.481h-1.634z"/></g></svg>