<svg version="1.1" id="Layer_1" xmlns="http://www.w3.org/2000/svg" xmlns:xlink="http://www.w3.org/1999/xlink" x="0px" y="0px"
	 width="1052.947px" height="395.885px" viewBox="0 0 1052.947 395.885" enable-background="new 0 0 1052.947 395.885"
	 xml:space="preserve">
<g id="mano" class="mano">
	<path fill="#FFD7B6" d="M131.069,105.812l36.797,13.192c2.584,0.926,5.423,0.831,7.938-0.268l38.445-16.775l27.88-6.336
		c3.514-0.8,6.007-3.924,6.007-7.527l28.203,12.542c4.414,1.963,9.581-0.062,11.483-4.502c1.9-4.436-0.165-9.572-4.608-11.456
		l-60.261-25.567c-5.087-2.158-10.814-2.242-15.961-0.236l-37.414,14.585l-27.726-7.702L131.069,105.812z"/>
	<polyline fill="#00978D" points="-68.299,65.333 124.045,112.323 142.145,45.7 -68.299,-11.311 	"/>
	<path fill="#90FFDE" d="M138.835,57.785l14.312,4.092c1.45,0.415,2.291,1.927,1.876,3.379l-12.707,44.438
		c-0.416,1.452-1.928,2.292-3.379,1.877l-14.313-4.092L138.835,57.785z"/>
	
		<rect x="131.65" y="57.34" transform="matrix(-0.9614 -0.2751 0.2751 -0.9614 239.2968 199.9187)" fill="#86E5C6" width="4.031" height="51.682"/>
	<path fill="#FFB89C" d="M248.138,88.097l-1.186-2.963c-1.438-3.597-5.281-5.611-9.058-4.748l-26.656,6.104l-30.913,13.74
		c-2.435,1.005-4.01-2.099-1.521-3.496l30.995-13.658l27.829-6.596c5.048-1.197,10.197,1.563,11.995,6.429l2.589,7.001
		L248.138,88.097z"/>
	<path fill="#FFC012" d="M133.184,100.426c0-1.848,1.499-3.347,3.347-3.347c1.848,0,3.346,1.499,3.346,3.347
		c0,1.848-1.498,3.346-3.346,3.346C134.683,103.772,133.184,102.273,133.184,100.426"/>
</g>
<path fill="#93B53F" d="M1052.948,278.665c-102.027-42.682-218.604-44.883-329.979-37.045c-20.76,1.461-41.515,3.23-62.102,6.273
	c-60.438,8.938-119.218,28.944-172.559,58.73c167.801,26.101,335.19,59.815,503.294,35.755c21.518-3.08,42.732-7.12,61.345-15.495
	L1052.948,278.665L1052.948,278.665z"/>
<rect y="281.778" fill="#A6CC47" width="1052.947" height="118.193"/>
<path fill="#9EC243" d="M506.686,341.222c-70.551-29.948-144.089-37.696-216.149-22.771c-61.611,12.759-122.1,41.898-184.054,47.356
	C70.815,368.945,33.715,363,0,343.1v52.785h631.627C589.541,384.389,548.354,358.906,506.686,341.222"/>
<path fill="#96B83F" d="M512.806,334.709c0,5.576-14.609,10.097-32.637,10.097c-18.022,0-32.633-4.521-32.633-10.097
	c0-5.575,14.61-10.096,32.633-10.096C498.195,324.613,512.806,329.134,512.806,334.709"/>
<path fill="#6F3E00" d="M484.581,336.659L484.581,336.659c-2.542,2.162-6.277,2.162-8.821,0v-41.268h8.821V336.659z"/>
<path fill="#CBDE62" d="M454.114,281.524c1.149-3.279,3.267-6.149,4.44-9.42c4.882-13.625-7.765-28.734-3.516-42.57
	c1.853-6.026,6.602-10.617,10.626-15.473c4.024-4.854,7.612-10.929,6.421-17.119c-0.462-2.4-1.626-4.64-1.914-7.067
	c-0.435-3.655,1.162-7.241,3.053-10.402c3.166-5.288,8.239-10.451,14.39-10.049c4.414,0.289,8.25,3.564,10.121,7.571
	c1.871,4.005,2.029,8.618,1.458,13c-0.632,4.865-2.115,9.81-0.992,14.583c1.499,6.377,7.338,11.054,8.815,17.433
	c2.265,9.769-6.305,18.796-7.168,28.784c-0.896,10.382,6.601,19.839,6.952,30.253c0.311,9.157-5.358,18.021-13.404,22.401
	C479.028,311.274,446.373,303.578,454.114,281.524"/>
<path fill="#BBCC59" d="M506.803,281.048c-0.351-10.413-7.848-19.869-6.952-30.25c0.863-9.99,9.433-19.017,7.168-28.783
	c-1.479-6.382-7.316-11.06-8.815-17.436c-1.123-4.773,0.36-9.718,0.992-14.581c0.57-4.386,0.413-8.997-1.458-13.003
	c-1.474-3.154-4.177-5.831-7.407-6.977c1.587,3.239,2.704,6.747,3.313,10.264c1.015,5.852,0.847,12.113-1.833,17.415
	c-2.432,4.813-7.256,8.608-12.562,9.026c7.026,0.084,14.245,3.344,17.514,9.516c3.939,7.438,1.325,16.504-1.358,24.48
	c-0.485,1.442-1.069,3.014-2.396,3.762c-0.977,0.551-2.165,0.537-3.286,0.508c-4.098-0.11-8.195-0.217-12.295-0.326
	c-4.848-0.129-10.608,0.203-13.172,4.322c5.28-0.918,9.447-1.029,14.754-0.31c5.313,0.724,10.559,2.839,14.299,6.677
	c6.679,6.853,7.143,18.414,2.143,26.568c-4.998,8.16-14.549,12.903-24.102,13.473c-4.062,0.238-8.255-0.229-11.876-2.084
	c-2.802-1.433-5.198-3.791-6.458-6.64c-1.363,18.062,27.197,23.96,40.385,16.78C501.444,299.068,507.113,290.206,506.803,281.048"/>
<path fill="#96B83F" d="M576.571,291.462c0,2.979-7.806,5.393-17.432,5.393c-9.628,0-17.433-2.412-17.433-5.393
	c0-2.979,7.805-5.393,17.433-5.393C568.767,286.069,576.571,288.483,576.571,291.462"/>
<path fill="#6F3E00" d="M561.495,292.504L561.495,292.504c-1.357,1.155-3.353,1.155-4.711,0v-22.04h4.711V292.504z"/>
<path fill="#CBDE62" d="M574.208,249.153c-1.287-1.937-2.619-3.954-3.729-6.045c1.405-3.989,3.938-7.795,3-11.838
	c-0.791-3.408-3.908-5.905-4.709-9.311c-0.599-2.55,0.192-5.191,0.529-7.789c0.305-2.342,0.223-4.805-0.78-6.943
	c-0.997-2.143-3.047-3.892-5.402-4.045c-3.285-0.216-5.997,2.545-7.688,5.367c-1.01,1.688-1.862,3.604-1.631,5.557
	c0.152,1.297,0.775,2.492,1.021,3.773c0.638,3.309-1.279,6.553-3.429,9.145c-2.149,2.593-4.688,5.045-5.676,8.264
	c-0.996,3.244-0.255,6.618,0.673,9.999c-0.921,0.714-1.986,1.231-2.986,1.842c-4.748,2.902-7.689,8.538-7.349,14.095
	c0.341,5.558,3.945,10.791,9.014,13.094c3.161,1.435,6.701,1.761,10.166,1.986c4.701,0.309,9.521,0.455,14.019-0.951
	c4.492-1.408,8.666-4.658,9.986-9.179C580.95,260.3,577.593,254.247,574.208,249.153"/>
<path fill="#BBCC59" d="M573.366,262.802c-0.19-5.561-4.195-10.613-3.715-16.156c0.461-5.336,5.035-10.156,3.828-15.375
	c-0.789-3.406-3.908-5.905-4.709-9.31c-0.601-2.55,0.192-5.19,0.529-7.789c0.307-2.342,0.223-4.805-0.777-6.944
	c-0.787-1.687-2.23-3.113-3.956-3.729c0.847,1.73,1.442,3.604,1.769,5.482c0.541,3.127,0.453,6.472-0.979,9.301
	c-1.3,2.57-3.878,4.601-6.711,4.822c3.754,0.045,7.61,1.785,9.354,5.082c2.104,3.973,0.708,8.813-0.725,13.073
	c-0.259,0.772-0.571,1.611-1.281,2.013c-0.521,0.295-1.154,0.285-1.752,0.27c-2.189-0.059-4.38-0.116-6.568-0.174
	c-2.59-0.07-5.667,0.107-7.035,2.311c2.818-0.492,5.046-0.552,7.881-0.168c2.837,0.387,5.64,1.518,7.638,3.567
	c3.564,3.659,3.813,9.833,1.143,14.19c-2.669,4.358-7.769,6.893-12.871,7.194c-2.17,0.127-4.41-0.122-6.344-1.114
	c-1.496-0.765-2.777-2.023-3.449-3.547c-0.729,9.647,14.525,12.799,21.569,8.965C570.503,272.429,573.532,267.692,573.366,262.802"
	/>
<path fill="#BBCC59" d="M579.237,266.174c1.713-5.874-1.646-11.925-5.031-17.022c-1.686-2.535-3.455-5.219-4.686-8.018
	c-0.061,0.107-0.12,0.205-0.181,0.319c-1.069,2.106-0.969,4.688-0.412,7.017c0.558,2.322,1.529,4.512,2.143,6.819
	c0.95,3.58,0.993,7.499-0.274,10.964c-1.267,3.466-3.931,6.406-7.258,7.475c-0.891,0.283-1.835,0.443-2.626,0.963
	c-0.654,0.427-1.144,1.065-1.489,1.803c3.335,0.064,6.662-0.149,9.828-1.143C573.745,273.942,577.917,270.692,579.237,266.174"/>
<g opacity="0.59">
	<g>
		<g>
			<defs>
				<rect id="SVGID_1_" x="26.721" y="284.474" width="416.976" height="22.14"/>
			</defs>
			<clipPath id="SVGID_2_">
				<use xlink:href="#SVGID_1_"  overflow="visible"/>
			</clipPath>
			<path clip-path="url(#SVGID_2_)" fill="#96B83F" d="M443.697,295.542c0,6.114-93.343,11.07-208.488,11.07
				c-115.144,0-208.488-4.956-208.488-11.07c0-6.111,93.344-11.07,208.488-11.07C350.354,284.472,443.697,289.431,443.697,295.542"
				/>
		</g>
	</g>
</g>
<path fill="#C3D32A" d="M405.477,266.457c-0.974,0-1.922,0.137-2.834,0.387c-1.243-9.961-10.454-17.694-21.637-17.694
	c-5.09,0-9.771,1.607-13.479,4.293c-3.174-3.726-7.854-6.084-13.081-6.084c-2.517,0-4.905,0.553-7.063,1.535
	c-3.239-4.871-8.886-8.1-15.318-8.1c-4.796,0-9.156,1.794-12.406,4.729c-1.379-0.357-2.821-0.551-4.305-0.551
	c-9.292,0-16.896,7.44-17.555,16.872c-3.485,1.224-6.425,3.863-8.358,7.328c-0.918-1.54-2.338-2.763-3.857-3.743
	c-7.019-4.52-16.689-4.255-23.694,0.293c-7.003,4.543-11.151,12.995-10.905,21.342c0.063,2.144,0.409,4.265,0.994,6.32h5.777h15.365
	l142.409,1.023c1.712-2.635,2.777-8.819,2.777-12.43C418.308,273.405,412.564,266.457,405.477,266.457"/>
<path fill="#B3BA27" d="M406.284,292.505c0.002-0.115,0.017-0.227,0.017-0.341c0-2.815-0.599-5.497-1.671-7.931l-0.28-2.084
	c0.028,0.666,0.111,1.322,0.226,1.976c-3.181-7.095-10.432-12.056-18.876-12.056c-3.328,0-6.46,0.785-9.244,2.152
	c-3.823-10.964-14.439-18.871-26.977-18.916c-2.77-0.009-5.448,0.375-7.985,1.084c-6.417-11.074-18.572-18.576-32.545-18.623
	c-16.1-0.057-29.861,9.789-35.233,23.664c-4.165-2.802-9.142-4.445-14.499-4.465c-14.691-0.05-26.642,12.096-26.694,27.124
	c-0.006,1.642,0.138,3.249,0.406,4.812c0.003,1.955,0.579,3.791,1.532,5.488c0.006,0.018,0.013,0.034,0.019,0.051h0.01h42.972h3.72
	h2.577h11.756h27.695h16.974h12.252h1.957h10.844h10.322h5.798h9.009h15.794h0.173C406.349,293.795,406.33,293.147,406.284,292.505"
	/>
<polygon fill="#D8C58B" points="316.356,140.7 319.072,142.545 317.79,138.741 "/>
<polygon fill="#D8C58B" points="324.525,131.519 324.879,182.209 336.204,215.935 336,132.228 "/>
<polygon fill="#E2D6B7" points="336.979,132.233 324.304,132.228 324.304,126.142 336.979,126.391 "/>
<polygon fill="#CCBFA2" points="324.303,126.143 316.062,136.88 316.202,140.803 324.607,132.089 "/>
<polygon fill="#B2A16F" points="317.79,138.741 318.188,161.737 324.879,182.209 324.607,132.089 "/>
<polygon fill="#8C372F" points="168.083,158.793 318.236,159.791 337.191,217.657 209.487,217.657 "/>
<polygon fill="#602724" points="234.166,159.295 273.047,215.632 209.391,215.786 168.083,158.793 "/>
<polygon fill="#D8C58B" points="207.741,294.354 67.441,293.606 69.311,200.944 138.402,147.57 209.487,199.199 "/>
<polygon fill="#CEB87C" points="69.125,200.26 69.498,210.735 145.074,152.932 138.401,147.569 "/>
<path fill="#C6AF6F" d="M156.485,290.981c0.374-1.107-1.124-91.928-1.124-91.928l26.353-20.121l28.19,20.03l0.717,94.778
	l-54.51-0.913L156.485,290.981z"/>
<rect x="209.471" y="222.338" fill="#D8C58B" width="127.954" height="71.509"/>
<rect x="67.828" y="271.408" fill="#80746F" width="88.771" height="22.795"/>
<path fill="#AF9658" d="M200.757,214.705c0-5.946-8.487-10.767-18.957-10.767c-10.469,0-18.955,4.819-18.955,10.767
	c0,0.351,0.087,51.976,0.097,57.924h37.755C200.737,262.479,200.757,214.993,200.757,214.705"/>
<rect x="209.612" y="222.896" fill="#CEB87C" width="127.809" height="9.729"/>
<rect x="208.929" y="223.312" fill="#CEB87C" width="43.207" height="70.738"/>
<rect x="93.006" y="274.526" fill="#2C555B" width="28.185" height="13.469"/>
<polygon fill="#75A9AB" points="111.672,274.526 108.565,274.526 98.974,287.995 102.181,287.995 "/>
<polygon fill="#75A9AB" points="104.02,287.995 109.885,287.995 120.319,274.524 113.61,274.524 "/>
<rect x="291.345" y="272.033" fill="#80746F" width="45.974" height="22.696"/>
<polygon fill="#B2A16F" points="138.486,147.774 108.626,170.734 170.335,170.734 "/>
<polygon fill="#9E8B5E" points="121.132,170.734 145.119,152.591 138.486,147.775 107.807,170.939 "/>
<polygon fill="#9E8B5E" points="140.372,155.502 169.259,176.885 173.872,173.194 145.119,152.591 "/>
<polygon fill="#CEB87C" points="160.802,170.734 169.72,170.273 173.872,173.194 169.259,176.885 "/>
<polygon fill="#2C555B" points="100.175,262.202 83.212,262.317 83.212,214.481 99.948,214.481 "/>
<polygon fill="#B2A16F" points="86.729,262.349 82.965,262.349 82.988,213.808 86.726,213.808 "/>
<rect x="82.987" y="213.804" fill="#B2A16F" width="16.963" height="3.618"/>
<rect x="82.867" y="225.326" transform="matrix(-1 0.0016 -0.0016 -1 184.1436 452.0909)" fill="#D8C58B" width="18.055" height="1.584"/>
<polygon fill="#75A9AB" points="86.647,245.711 100.016,226.897 100.021,230.422 86.752,249.304 "/>
<polygon fill="#75A9AB" points="86.705,252.032 100.031,233.349 100.192,241.24 86.682,258.679 "/>
<polygon fill="#2C555B" points="120.252,262.063 103.289,262.179 103.289,214.342 120.025,214.342 "/>
<polygon fill="#B2A16F" points="106.805,262.209 103.041,262.209 103.064,213.669 106.803,213.669 "/>
<rect x="103.065" y="213.664" fill="#B2A16F" width="16.962" height="3.618"/>
<rect x="102.943" y="225.188" transform="matrix(-1 0.0016 -0.0016 -1 224.3089 451.777)" fill="#D8C58B" width="18.056" height="1.584"/>
<polygon fill="#75A9AB" points="106.724,245.571 120.093,226.758 120.098,230.282 106.829,249.164 "/>
<polygon fill="#75A9AB" points="106.782,251.894 120.108,233.209 120.268,241.101 106.759,258.538 "/>
<polygon fill="#2C555B" points="139.911,262.063 122.948,262.179 122.948,214.342 139.684,214.342 "/>
<polygon fill="#B2A16F" points="126.464,262.209 122.7,262.209 122.723,213.669 126.461,213.669 "/>
<rect x="122.723" y="213.664" fill="#B2A16F" width="16.962" height="3.618"/>
<rect x="122.601" y="225.188" transform="matrix(-1 0.0016 -0.0016 -1 263.6111 451.7523)" fill="#D8C58B" width="18.055" height="1.583"/>
<polygon fill="#75A9AB" points="126.382,245.571 139.751,226.758 139.756,230.282 126.487,249.164 "/>
<polygon fill="#75A9AB" points="126.441,251.894 139.766,233.209 139.927,241.101 126.417,258.538 "/>
<polygon fill="#9E8B5E" points="139.993,210.097 157.214,227.729 155.362,199.324 "/>
<rect x="93.006" y="274.526" fill="#6B615D" width="2.396" height="13.525"/>
<rect x="159.88" y="276.896" fill="#AF9C97" width="40.798" height="6.734"/>
<rect x="164.185" y="270.286" fill="#C1ACA4" width="36.493" height="6.734"/>
<rect x="163.98" y="283.38" fill="#C1ACA4" width="36.8" height="6.734"/>
<rect x="163.981" y="287.763" fill="#AF9C97" width="37.004" height="6.733"/>
<rect x="206.008" y="270.383" fill="#80746F" width="25.832" height="23.976"/>
<rect x="209.39" y="215.632" fill="#F8F2DC" width="128.55" height="7.371"/>
<rect x="200.677" y="270.371" fill="#6B615D" width="8.816" height="23.985"/>
<rect x="156.599" y="271.408" fill="#6B615D" width="7.586" height="22.745"/>
<rect x="170.202" y="217.407" fill="#8C372F" width="23.197" height="53.129"/>
<rect x="174.942" y="223.396" fill="#2C555B" width="12.615" height="35.916"/>
<path fill="#AF9658" d="M192.323,248.845c0,1.02-0.827,1.846-1.845,1.846s-1.845-0.826-1.845-1.846s0.827-1.846,1.845-1.846
	S192.323,247.825,192.323,248.845"/>
<rect x="174.942" y="223.396" fill="#1D4144" width="2.928" height="35.752"/>
<rect x="175.135" y="223.354" fill="#1D4144" width="12.728" height="2.929"/>
<rect x="225.7" y="237.994" fill="#2C555B" width="65.848" height="56.495"/>
<rect x="225.587" y="237.772" fill="#E8E1CA" width="26.395" height="15.068"/>
<rect x="225.536" y="252.381" fill="#244447" width="26.548" height="42.054"/>
<rect x="225.689" y="237.772" fill="#D1CAB6" width="26.139" height="4.307"/>
<rect x="251.828" y="237.772" fill="#E8E1CA" width="39.767" height="4.307"/>
<rect x="251.925" y="242.069" fill="#F8F2DC" width="39.644" height="10.328"/>
<rect x="225.51" y="258.51" fill="#E8E1CA" width="26.395" height="3.563"/>
<rect x="251.848" y="258.513" fill="#F8F2DC" width="39.644" height="3.571"/>
<path fill="#602724" d="M357.738,275.851c0,0,5.688,4.916,4.765,18.754c0,0,3.588,0.924,4.818,0c0,0,0.257-14.141,3.025-17.522
	l-1.153,0.153l-1.73,4.498c0,0-0.346,0.652-0.961,0.269c0,0-0.345-0.038-0.308-0.769l-0.038-3.229l-1.116-0.729l0.078,3.729
	c0,0-0.078,1.499-0.615,1.422c0,0-0.653,0.23-0.923-0.729c0,0-2.841-6.674-3.844-6.073c-0.192,0.114-2.114,0.385-2.114,0.385"/>
<path fill="#527022" d="M382.269,221.267c-0.461-31.01-11.107-51.972-17.221-51.972c-0.063,0-0.13,0.015-0.195,0.022
	c-0.065-0.007-0.133-0.022-0.196-0.022c-6.113,0-16.76,20.962-17.221,51.972c-0.128,8.625-1.53,28.473-0.769,35.672
	c1.739,16.424,13.107,21.358,17.919,21.795v0.035c0.085-0.004,0.177-0.011,0.267-0.016c0.09,0.005,0.182,0.012,0.266,0.016v-0.035
	c4.812-0.437,16.18-5.371,17.919-21.795C383.799,249.737,382.396,229.892,382.269,221.267"/>
<path fill="#659624" d="M382.576,221.573c-0.461-31.009-11.106-51.971-17.221-51.971c-0.063,0-0.13,0.015-0.195,0.022
	c-0.065-0.007-0.133-0.022-0.196-0.022c-6.113,0-16.76,20.962-17.221,51.971c-0.097,6.59-0.53,13.171-0.77,19.756
	c-0.232,6.369-1.172,12.893,1.624,18.693c0.836,1.731,2.033,3.72,3.958,3.793c2.339,0.093,3.652-2.651,4.091-4.953
	c0.112-0.588,0.645-1.362,1.101-0.975c0.11,0.092,0.165,0.234,0.215,0.368c0.568,1.522,1.138,3.047,1.707,4.57
	c0.435,1.17,0.964,2.442,2.083,2.995c1.857,0.912,3.958-0.732,5.122-2.443c1.304-1.919,2.224-4.1,2.691-6.371
	c0.506,1.633,1.127,3.225,1.858,4.768c0.934,1.968,2.516,4.117,4.689,3.955c1.344-0.104,2.473-1.133,3.075-2.336
	c0.605-1.203,3.152-2.904,3.345-4.047c0.837-4.932,0.948-14.35,0.801-18.343C383.095,234.53,382.672,228.053,382.576,221.573"/>
<path fill="#81A549" d="M382.473,221.267c-0.461-31.01-11.105-51.972-17.221-51.972c-0.061,0-0.129,0.015-0.194,0.022
	c-0.065-0.007-0.133-0.022-0.195-0.022c-6.114,0-16.76,20.962-17.221,51.972c-0.097,6.592-2.583,15.404,1.855,20.885
	c1.149,1.42,2.794,2.537,4.619,2.641c2.137,0.125,4.157-1.17,5.463-2.866c1.306-1.696,2.026-3.757,2.724-5.78
	c0.726,2.758,1.464,5.551,2.86,8.039c1.395,2.486,3.543,4.678,6.27,5.515c1.069,0.325,2.256,0.433,3.283-0.011
	c1.575-0.678,2.375-2.426,2.847-4.076c0.807-2.836,1.062-5.826,0.74-8.756c0.164,1.455,0.572,2.882,1.204,4.201
	c0.207,0.433,0.452,0.869,0.851,1.133c4.347,2.879,2.649-7.053,2.602-8.096C382.771,229.819,382.538,225.545,382.473,221.267"/>
<path fill="#8ABC3B" d="M382.028,221.165c0.126-0.298,0.223-0.596,0.28-0.889c0.328-1.703-0.197-4.098-0.311-5.842
	c-0.239-3.686-0.63-7.36-1.189-11.011c-0.939-6.124-2.328-12.21-4.398-18.055c-1.572-4.438-5.228-15.654-11.272-16.074
	c-0.031-0.001-0.06-0.001-0.089-0.001c-0.063,0-0.13,0.015-0.195,0.022c-0.065-0.007-0.133-0.022-0.195-0.022
	c-5.814-0.001-9.643,11.352-11.129,15.424c-2.093,5.744-3.509,11.734-4.483,17.768c-0.582,3.604-0.998,7.236-1.264,10.879
	c-0.178,2.43-1.459,7.531-0.063,9.543c0.965,1.389,3.333,1.797,4.666,0.775c2.397-1.834,1.508-5.984,3.678-8.08
	c0.724,2.547,1.925,4.959,3.523,7.068c0.845,1.117,1.88,2.2,3.237,2.541c2.418,0.609,4.804-1.432,5.735-3.745
	c0.93-2.313,0.887-4.889,1.371-7.335c0.452,2.854,1.222,5.66,2.291,8.344c0.535,1.344,1.182,2.705,2.309,3.611
	c1.125,0.905,2.855,1.211,4.008,0.344c0.526-0.395,0.872-0.976,1.206-1.539C380.399,223.784,381.483,222.458,382.028,221.165"/>
<g opacity="0.51">
	<g>
		<g>
			<defs>
				<rect id="SVGID_3_" x="173.891" y="163.216" width="145.842" height="1.308"/>
			</defs>
			<clipPath id="SVGID_4_">
				<use xlink:href="#SVGID_3_"  overflow="visible"/>
			</clipPath>
			
				<line clip-path="url(#SVGID_4_)" fill="none" stroke="#D8C58B" stroke-miterlimit="10" x1="173.892" y1="163.908" x2="319.734" y2="163.832"/>
		</g>
	</g>
</g>
<g opacity="0.51">
	<g>
		<g>
			<defs>
				<rect id="SVGID_5_" x="184.806" y="169.981" width="137.005" height="1.77"/>
			</defs>
			<clipPath id="SVGID_6_">
				<use xlink:href="#SVGID_5_"  overflow="visible"/>
			</clipPath>
			
				<line clip-path="url(#SVGID_6_)" fill="none" stroke="#D8C58B" stroke-miterlimit="10" x1="184.809" y1="171.135" x2="321.809" y2="170.597"/>
		</g>
	</g>
</g>
<g opacity="0.51">
	<g>
		<g>
			<defs>
				<rect id="SVGID_7_" x="189.881" y="175.902" width="134.183" height="1.435"/>
			</defs>
			<clipPath id="SVGID_8_">
				<use xlink:href="#SVGID_7_"  overflow="visible"/>
			</clipPath>
			
				<line clip-path="url(#SVGID_8_)" fill="none" stroke="#D8C58B" stroke-miterlimit="10" x1="189.883" y1="176.517" x2="324.063" y2="176.721"/>
		</g>
	</g>
</g>
<g opacity="0.51">
	<g>
		<g>
			<defs>
				<rect id="SVGID_9_" x="199.413" y="184.359" width="127.396" height="1.767"/>
			</defs>
			<clipPath id="SVGID_10_">
				<use xlink:href="#SVGID_9_"  overflow="visible"/>
			</clipPath>
			
				<line clip-path="url(#SVGID_10_)" fill="none" stroke="#D8C58B" stroke-miterlimit="10" x1="199.416" y1="184.974" x2="326.807" y2="185.511"/>
		</g>
	</g>
</g>
<g opacity="0.51">
	<g>
		<g>
			<defs>
				<rect id="SVGID_11_" x="212.178" y="194.762" width="117.832" height="1.283"/>
			</defs>
			<clipPath id="SVGID_12_">
				<use xlink:href="#SVGID_11_"  overflow="visible"/>
			</clipPath>
			
				<line clip-path="url(#SVGID_12_)" fill="none" stroke="#D8C58B" stroke-miterlimit="10" x1="212.178" y1="195.43" x2="330.01" y2="195.377"/>
		</g>
	</g>
</g>
<g opacity="0.51">
	<g>
		<g>
			<defs>
				<rect id="SVGID_13_" x="223.401" y="205.832" width="110.709" height="1.437"/>
			</defs>
			<clipPath id="SVGID_14_">
				<use xlink:href="#SVGID_13_"  overflow="visible"/>
			</clipPath>
			
				<line clip-path="url(#SVGID_14_)" fill="none" stroke="#D8C58B" stroke-miterlimit="10" x1="223.403" y1="206.653" x2="334.11" y2="206.447"/>
		</g>
	</g>
</g>
<polygon fill="#F8F2DC" points="229.542,203.927 139.773,137.094 49.43,206.233 54.103,212.394 138.995,147.996 224.561,210.403 "/>
<polygon fill="#F8F2DC" points="133.413,203.938 139.4,211.421 184.794,176.502 176.813,171.265 "/>
<path fill="#602724" d="M34.706,277.417c0,0,5.843,3.998,4.92,17.836c0,0,3.383,1.538,4.613,0.615c0,0,0.308-13.838,3.075-17.221
	l-1.152,0.152l-1.731,4.498c0,0-0.346,0.65-0.96,0.27c0,0-0.346-0.039-0.308-0.77l-0.039-3.229l-1.115-0.729l0.078,3.726
	c0,0-0.078,1.502-0.615,1.426c0,0-0.653,0.23-0.922-0.73c0,0-2.842-6.674-3.844-6.072c-0.192,0.114-2.115,0.385-2.115,0.385"/>
<path fill="#527022" d="M59.236,222.832c-0.461-31.009-11.106-51.972-17.221-51.972c-0.062,0-0.129,0.016-0.194,0.023
	c-0.065-0.007-0.133-0.023-0.196-0.023c-6.114,0-16.76,20.963-17.221,51.972c-0.128,8.623-1.53,28.474-0.769,35.673
	c1.74,16.421,13.106,21.357,17.918,21.795v0.034c0.085-0.003,0.177-0.01,0.268-0.015c0.089,0.005,0.182,0.012,0.265,0.015V280.3
	c4.813-0.438,16.179-5.374,17.918-21.795C60.767,251.306,59.364,231.455,59.236,222.832"/>
<path fill="#659624" d="M59.543,223.14c-0.461-31.009-11.106-51.972-17.221-51.972c-0.062,0-0.129,0.016-0.194,0.023
	c-0.065-0.007-0.133-0.023-0.196-0.023c-6.114,0-16.76,20.963-17.221,51.972c-0.098,6.588-0.531,13.174-0.77,19.756
	c-0.232,6.369-1.171,12.893,1.624,18.691c0.836,1.734,2.034,3.723,3.958,3.796c2.34,0.095,3.653-2.651,4.092-4.954
	c0.112-0.588,0.645-1.361,1.101-0.975c0.111,0.094,0.165,0.234,0.215,0.369c0.568,1.523,1.138,3.047,1.706,4.57
	c0.436,1.17,0.964,2.442,2.084,2.992c1.857,0.913,3.959-0.73,5.122-2.441c1.304-1.918,2.224-4.098,2.691-6.37
	c0.505,1.629,1.127,3.222,1.858,4.765c0.934,1.971,2.516,4.12,4.689,3.954c1.344-0.101,2.473-1.129,3.077-2.333
	c0.603-1.206,3.201-3.26,3.89-4.189c2.427-3.276,0.402-14.205,0.254-18.199C60.062,236.097,59.639,229.619,59.543,223.14"/>
<path fill="#81A549" d="M59.441,222.832C58.98,191.823,48.334,170.86,42.22,170.86c-0.062,0-0.129,0.016-0.195,0.023
	c-0.065-0.007-0.133-0.023-0.196-0.023c-6.113,0-16.76,20.963-17.221,51.972c-0.097,6.593-2.583,15.405,1.855,20.883
	c1.149,1.42,2.795,2.539,4.619,2.644c2.137,0.123,4.156-1.17,5.463-2.866c1.306-1.696,2.026-3.757,2.725-5.78
	c0.726,2.758,1.463,5.551,2.859,8.039c1.396,2.486,3.542,4.678,6.27,5.514c1.069,0.326,2.256,0.43,3.283-0.012
	c1.574-0.676,2.375-2.427,2.846-4.074c0.809-2.836,1.061-5.826,0.741-8.756c0.163,1.454,0.572,2.879,1.204,4.2
	c0.206,0.431,0.45,0.869,0.85,1.131c4.348,2.881,2.648-7.051,2.602-8.094C59.738,231.386,59.505,227.108,59.441,222.832"/>
<path fill="#8ABC3B" d="M58.995,222.731c0.126-0.301,0.224-0.597,0.28-0.89c0.329-1.702-0.197-4.097-0.311-5.842
	c-0.239-3.687-0.63-7.36-1.189-11.013c-0.938-6.122-2.327-12.206-4.397-18.052c-1.572-4.439-5.228-15.654-11.273-16.075
	c-0.03,0-0.06,0-0.089,0c-0.063,0-0.13,0.012-0.194,0.021c-0.065-0.008-0.133-0.021-0.196-0.021
	c-5.813-0.002-9.643,11.352-11.127,15.424c-2.095,5.744-3.511,11.734-4.485,17.766c-0.582,3.605-0.998,7.237-1.263,10.881
	c-0.178,2.428-1.459,7.531-0.063,9.539c0.966,1.393,3.333,1.797,4.667,0.778c2.396-1.833,1.506-5.983,3.676-8.079
	c0.723,2.547,1.925,4.956,3.523,7.068c0.845,1.117,1.88,2.197,3.237,2.541c2.419,0.607,4.803-1.432,5.735-3.745
	c0.93-2.313,0.887-4.89,1.371-7.337c0.452,2.855,1.222,5.66,2.291,8.346c0.535,1.344,1.182,2.705,2.309,3.611
	c1.125,0.904,2.855,1.211,4.009,0.344c0.525-0.396,0.872-0.977,1.206-1.54C57.367,225.349,58.45,224.024,58.995,222.731"/>
<path class="humo" fill="#FFFFFF" d="M331.222,106.208c0-0.847-0.016-1.672-0.04-2.475c1.398-0.773,2.358-2.248,2.358-3.962
	c0-0.929-0.281-1.789-0.76-2.509c2.697-1.365,4.547-4.156,4.547-7.382c0-1.482-0.395-2.87-1.076-4.074
	c3.694-2.135,6.188-6.121,6.188-10.691c0-1.396-0.242-2.734-0.67-3.986c5.451-2.79,9.189-8.449,9.189-14.993
	c0-7.207-4.536-13.339-10.9-15.746c-0.887-4.198-4.611-7.351-9.072-7.351c-5.122,0-9.275,4.154-9.275,9.276
	c0,0.744,0.094,1.462,0.258,2.156c-2.91,3.027-4.707,7.133-4.707,11.664c0,4.021,1.412,7.708,3.762,10.604
	c-2.035,2.201-3.291,5.139-3.291,8.375c0,3.951,1.865,7.461,4.756,9.724c-1.076,1.396-1.723,3.142-1.723,5.042
	c0,3.196,1.814,5.967,4.469,7.347c-0.49,0.728-0.779,1.601-0.779,2.544c0,1.693,0.937,3.154,2.314,3.937
	c-0.027,0.812-0.042,1.644-0.042,2.5c0,7.265,1.003,13.156,2.247,13.156C330.216,119.364,331.222,113.473,331.222,106.208z"/>

</svg>