<svg version="1.1" id="Layer_1" xmlns="http://www.w3.org/2000/svg" xmlns:xlink="http://www.w3.org/1999/xlink" x="0px" y="0px" width="65.5px" height="40px" viewBox="0 0 65.5 40" enable-background="new 0 0 65.5 40" xml:space="preserve">
    <g>
        <defs>
            <path id="SVGID_1_" d="M6.719,6.728c-7.333,7.332-7.333,19.217,0,26.557c7.332,7.334,19.225,7.334,26.555,0
                c7.336-7.34,7.336-19.225,0-26.557c-3.665-3.665-8.47-5.499-13.276-5.499C15.192,1.229,10.386,3.062,6.719,6.728"></path>
        </defs>
        <clipPath id="SVGID_2_">
            <use xlink:href="#SVGID_1_" overflow="visible"></use>
        </clipPath>
        
            <linearGradient id="SVGID_3_" gradientUnits="userSpaceOnUse" x1="-152.0693" y1="443.5166" x2="-150.7165" y2="443.5166" gradientTransform="matrix(-20.2901 20.2901 20.2901 20.2901 -12050.5234 -5906.5312)">
            <stop offset="0" style="stop-color:#FFFFFF"></stop>
            <stop offset="0.2966" style="stop-color:#FDFDFD"></stop>
            <stop offset="0.4598" style="stop-color:#F5F5F5"></stop>
            <stop offset="0.5906" style="stop-color:#E7E7E8"></stop>
            <stop offset="0.7042" style="stop-color:#D3D4D5"></stop>
            <stop offset="0.8066" style="stop-color:#BABBBC"></stop>
            <stop offset="0.9011" style="stop-color:#9B9C9E"></stop>
            <stop offset="0.9878" style="stop-color:#77797B"></stop>
            <stop offset="1" style="stop-color:#717375"></stop>
        </linearGradient>
        <polygon clip-path="url(#SVGID_2_)" fill="url(#SVGID_3_)" points="60.304,20.924 19.998,61.231 -20.308,20.924 19.998,-19.382 	
            "></polygon>
    </g>
    <path d="M6.085,7.988c0,0,0.111,2.732,0.637,3.362c0,0,0.947,2-0.103,4.316c0,0,0.211,1.679-1.366,2.098
        c0,0-1.372,1.482-1.054,2.317c0,0,0.205,0.838-0.74,0.734c0,0,0.317,3.777-1.681,3.676C1.778,24.491-0.544,13.975,6.085,7.988"></path>
    <path d="M6.619,18.821c0,0,1.358-1.989,1.05,0.524c0,0-0.743,1.366-0.53,1.996c0,0-1.16,0.734-1.16,1.895
        c0,0-0.938,0.843-1.044-0.524c0,0,0.214-1.896,0.732-1.896C5.668,20.815,6.511,20.815,6.619,18.821"></path>
    <path d="M4.301,29.968c0,0,1.368-0.845,1.895,0.521c0,0,0.73,1.578,1.781,1.898c0,0,1.999,0,0.428,2.31
        C8.405,34.697,5.042,31.854,4.301,29.968"></path>
    <path d="M13.658,2.521c0,0-1.786,3.582-0.84,5.151c0,0,1.683,1.685,3.365-0.526c0,0,1.048,0.212,0.945,2.316
        c0,0,0,2.732,0.949,2.624c0,0,1.364,0.108,1.049-1.574c0,0,1.372,4.103,3.055,4.627c0,0,3.253,0.528,0.624,2.11
        c0,0-4.624,3.774-0.518,7.771c0,0,1.05,0.945,0.316,2.316c0,0,0.313,7.04-0.953,8.412c0,0,0.32,1.46,1.155-0.315
        c0,0,2.204-1.584,1.891-3.048c0,0,1.579,0.203,1.795-0.953c0.206-1.158-0.317-0.101-0.317-0.101s2.201-3.19,3.128-3.025
        c0.079,0.01-0.077,0.076-0.077,0.076s3.253-2.2,1.678-5.465c0,0-4.413-6.522-5.994-5.154c0,0-0.103-2.307-0.524-3.055
        c0,0-2.32-0.734-0.631-1.887c0,0,1.156-0.737,1.68,0.949c0,0,1.158-0.108-0.209-2.521c0,0,0.949,0.205,2.307-1.258
        c0,0,3.372,0.832,2.748-2.743c0,0-0.118-2.837-1.688-2.417c0,0,0.811,2.137-1.813,2.174c-0.857,0.016,0,0,0,0
        s-2.708-1.012-0.922-3.334c0,0,0.88-0.742-1.786-1.776c-1.082-0.426-0.943-0.37-0.943-0.37S19.869,0.528,13.658,2.521"></path>
    <path fill="#1E4192" d="M26.403,20.002c0,10.387,8.451,18.829,18.828,18.829c10.392,0,18.835-8.442,18.835-18.829
        c0-10.381-8.443-18.826-18.835-18.826C34.854,1.176,26.403,9.621,26.403,20.002 M28.295,20.002c0-9.334,7.603-16.938,16.936-16.938
        c9.338,0,16.932,7.604,16.932,16.938c0,9.337-7.594,16.938-16.932,16.938C35.898,36.94,28.295,29.339,28.295,20.002"></path>
    <path fill="#1E4192" d="M28.826,20.002c0,9.052,7.355,16.409,16.405,16.409c9.045,0,16.404-7.357,16.404-16.409
        c0-9.046-7.359-16.406-16.404-16.406C36.182,3.596,28.826,10.956,28.826,20.002 M29.451,20.002c0-8.703,7.086-15.773,15.78-15.773
        c8.697,0,15.783,7.07,15.783,15.773c0,8.702-7.085,15.779-15.783,15.779C36.537,35.785,29.451,28.704,29.451,20.002"></path>
    <path fill="#1E4192" d="M43.891,33.324l-9.466-18.138c0,0-2.047-3.937,2.286-3.937l15.929,0.078c0,0,4.813-0.714,2.444,3.708
        l-2.281,4.726c0,0-0.083,0.562-1.109,0.635h-3.552l-0.077,7.491l-3.392,5.515V18.66c0,0-0.316-1.806,1.973-1.735h3.861l0.795-2.126
        l-13.249-0.09l0.943,2.216l4.582,0.079c0,0,1.805,0.151,0.229,1.816l-2.681,1.725l2.836,5.365L43.891,33.324z"></path>
</svg>