<?xml version="1.0" encoding="utf-8"?>
<!-- Generator: Adobe Illustrator 16.0.0, SVG Export Plug-In . SVG Version: 6.00 Build 0)  -->
<!DOCTYPE svg PUBLIC "-//W3C//DTD SVG 1.1//EN" "http://www.w3.org/Graphics/SVG/1.1/DTD/svg11.dtd">
<svg version="1.1" id="Layer_1" xmlns="http://www.w3.org/2000/svg" xmlns:xlink="http://www.w3.org/1999/xlink" x="0px" y="0px"
	 width="261.853px" height="57px" viewBox="0 0 261.853 57" enable-background="new 0 0 261.853 57" xml:space="preserve">
<g>
	<rect x="1.28" fill="#00609C" width="46.457" height="46.323"/>
	<path fill="#FFFFFF" d="M5.726,18.143H2.673V17.59h6.695l7.284,18.402L23.8,17.59h6.592v0.553h-3.055v23.245h3.055v0.556H20.54
		v-0.556h3.26V19.457h-0.07l-8.464,21.931h-0.313L6.35,19.872h-0.07v18.645c0,2.284,0.314,2.871,2.152,2.871h1.391v0.556H2.673
		v-0.556h0.903c1.84,0,2.149-0.587,2.149-2.871V18.143z"/>
	<path fill="#FFFFFF" d="M31.342,17.579c1.144-0.725,1.63-0.97,2.877-1.452c1.733-0.727,3.227-1.039,4.858-1.039
		c2.981,0,5.03,1.108,5.722,3.078c0.244,0.729,0.31,1.282,0.31,3.185l-0.1,5.949v0.311c0,1.9,0.312,2.627,1.662,3.631l-2.462,2.84
		c-1.076-0.452-2.047-1.247-2.499-2.145c-0.658,0.621-0.727,0.688-1.074,0.931c-0.867,0.621-2.116,0.969-3.572,0.969
		c-3.954,0-6.107-2.004-6.107-5.535c0-4.151,2.88-6.084,8.536-6.084c0.343,0,0.553,0,1.039,0.033v-0.727
		c0-1.972-0.381-2.628-2.081-2.628c-1.494,0-3.226,0.727-5.134,2.005L31.342,17.579z M40.463,25.432h-0.206
		c-3.229,0-4.338,0.589-4.338,2.698c0,1.381,0.869,2.319,2.045,2.319c0.869,0,1.736-0.454,2.429-1.215L40.463,25.432z"/>
	<path d="M55.776,18.005h-3.094v-0.563h6.783l7.382,18.645l7.24-18.645h6.674v0.563h-3.089v23.549h3.089v0.562h-9.979v-0.562h3.305
		V19.337h-0.071L65.44,41.554h-0.315l-8.718-21.797h-0.071v18.888c0,2.315,0.319,2.909,2.18,2.909h1.407v0.562h-7.241v-0.562h0.916
		c1.86,0,2.178-0.594,2.178-2.909V18.005z"/>
	<path d="M83.65,36.681c-0.032,2.489,0.319,5.295,3.621,5.295c2.954,0,5.134-1.959,5.628-4.838h0.56
		c-0.56,3.226-2.953,5.397-6.188,5.397c-4.109,0-6.992-3.155-6.992-7.778c0-3.399,2.744-7.781,6.574-7.781
		c4.148,0,6.291,4.625,6.291,6.101c0,0.209-0.105,0.312-0.316,0.312H83.65V36.681z M89.77,31.846c0-2.243-0.595-4.31-2.917-4.31
		c-2.46,0-3.203,2.066-3.203,4.31v0.982h5.873c0.177,0,0.247-0.104,0.247-0.249V31.846z"/>
	<path d="M96.194,28.306h-2.95v-0.557h2.95c1.126,0,2.25-0.074,2.953-0.773v4.136h0.073c0.42-1.578,1.651-4.136,4.532-4.136
		c1.299,0,2.32,0.84,2.32,2.065c0,0.911-0.563,1.647-1.617,1.647c-1.161,0-1.547-0.592-1.547-1.541c0-0.77,0.386-1.295,0.774-1.508
		c-0.139-0.103-0.315-0.103-0.493-0.103c-1.439,0-4.042,2.276-4.042,6.833v7.184h3.2v0.562h-9.103v-0.562h2.95V28.306z"/>
	<path d="M118.724,37.173c-0.107,2.663-2.428,5.36-5.905,5.36c-4.537,0-7.453-3.218-7.453-7.185c0-4.589,3.514-8.371,7.663-8.371
		c2.458,0,5.058,1.082,5.058,3.257c0,1.052-0.809,1.754-1.685,1.754c-1.09,0-1.688-0.771-1.688-1.507
		c0-1.403,0.879-1.334,0.879-1.858c0-0.771-1.615-1.087-2.634-1.087c-3.412,0-4.219,2.209-4.219,5.54v3.047
		c0,3.047,0.14,5.853,4.079,5.853c3.549,0,5.093-2.66,5.339-4.803H118.724z"/>
	<path d="M132.337,40.224c0,0.664,0.107,1.542,1.056,1.542c0.809,0,1.303-0.666,1.828-1.4l0.386,0.278
		c-0.666,1.154-1.581,1.89-3.091,1.89c-1.653,0-2.847-0.943-3.099-2.168h-0.066c-1.196,1.575-2.777,2.168-5.095,2.168
		c-2.743,0-4.394-1.363-4.394-3.748c0-3.925,5.234-4.906,8.856-4.906h0.667V29.57c0-1.65-1.546-2.034-2.882-2.034
		c-1.019,0-3.409,0.384-3.409,1.649c0,0.839,1.162,0.452,1.162,2.032c0,0.84-0.705,1.472-1.618,1.472
		c-0.984,0-1.545-0.774-1.545-1.964c0-1.79,1.897-3.75,5.411-3.75c2.672,0,5.833,1.368,5.833,4.065V40.224z M128.788,34.441
		c-2.565,0-5.762,0.071-5.762,3.816c0,1.966,0.314,3.441,2.563,3.441c2.637,0,3.797-1.969,3.797-2.671v-4.587H128.788z"/>
	<path d="M137.896,28.306h-2.776v-0.557h2.776c1.688,0,2.319,0,2.954-0.773v3.574h0.07c0.915-1.681,2.671-3.574,5.236-3.574
		c3.76,0,4.814,1.894,4.814,3.96v10.618h2.263v0.562h-7.479v-0.562h2.262V30.097c0-1.93-0.946-2.56-2.072-2.56
		c-2.951,0-4.465,2.944-5.095,4.134v9.883h2.157v0.562h-7.372v-0.562h2.26V28.306z"/>
	<path d="M154.552,28.306h-3.057v-0.557c3.655,0.066,4.991-1.475,5.587-4.908h0.423v4.908h4.852v0.557h-4.852v11.777
		c0,1.436,0.597,1.891,1.721,1.891c1.758,0,2.53-1.61,2.743-2.205l0.527,0.104c-0.247,0.841-1.269,2.661-3.866,2.661
		c-2.459,0-4.078-0.804-4.078-3.116V28.306z"/>
	<path d="M165.14,28.306h-2.812v-0.559h2.812c1.127,0,2.25-0.072,2.953-0.771v14.578h2.812v0.562h-8.063v-0.562h2.298V28.306z
		 M166.618,20.926c0.981,0,1.792,0.806,1.792,1.788c0,0.981-0.811,1.788-1.792,1.788c-0.985,0-1.793-0.807-1.793-1.788
		C164.825,21.731,165.633,20.926,166.618,20.926"/>
	<path d="M172.826,19.327h-2.816v-0.563h2.816c1.118,0,2.248-0.066,2.951-0.874v23.664h2.811v0.562h-8.578v-0.562h2.816V19.327z"/>
	<path d="M182.42,28.432c1.007-0.635,1.432-0.851,2.526-1.274c1.521-0.635,2.829-0.911,4.259-0.911c2.617,0,4.414,0.974,5.021,2.7
		c0.218,0.639,0.277,1.123,0.277,2.792l-0.092,5.221v0.271c0,1.669,0.273,2.306,1.46,3.188l-2.162,2.487
		c-0.944-0.396-1.794-1.093-2.192-1.885c-0.577,0.547-0.637,0.609-0.942,0.822c-0.763,0.545-1.854,0.849-3.131,0.849
		c-3.472,0-5.355-1.759-5.355-4.856c0-3.638,2.523-5.339,7.483-5.339c0.307,0,0.487,0,0.913,0.031v-0.639
		c0-1.729-0.336-2.304-1.825-2.304c-1.31,0-2.83,0.639-4.504,1.761L182.42,28.432z M190.424,35.317h-0.181
		c-2.833,0-3.807,0.518-3.807,2.368c0,1.213,0.763,2.034,1.794,2.034c0.763,0,1.521-0.396,2.131-1.063L190.424,35.317z"/>
	<path d="M196.596,27.22l3.622-1.035c0.364,0.638,0.577,1.308,0.577,1.945c0.942-0.67,1.126-0.792,1.8-1.154
		c0.817-0.426,1.881-0.67,2.792-0.67c1.735,0,3.259,0.914,3.743,2.248c0.215,0.576,0.308,1.244,0.308,2.212v11.35h-4.018V32.013
		c0-1.763-0.305-2.276-1.368-2.276c-0.821,0-1.888,0.546-2.83,1.393v10.986h-4.078V30.856
		C197.144,29.525,196.961,28.248,196.596,27.22"/>
	<path d="M224.836,20.3v16.139c0,3.824,0.305,5.068,0.58,5.676h-3.655c-0.12-0.241-0.181-0.485-0.242-0.911
		c-1.007,0.879-2.19,1.305-3.591,1.305c-3.956,0-6.451-3.063-6.451-7.888c0-4.855,2.706-8.191,6.662-8.191
		c1.13,0,2.013,0.27,2.771,0.879c-0.06-0.332-0.123-1.396-0.123-2.31V19.66L224.836,20.3z M220.85,30.677
		c-0.763-0.668-1.49-1-2.22-1c-1.827,0-2.619,1.515-2.619,4.973c0,3.341,0.697,4.433,2.83,4.433c0.761,0,1.613-0.515,2.009-1.003
		V30.677z"/>
	<path d="M227.667,26.854l4.078-0.639v15.899h-4.078V26.854z M229.767,19.783c1.366,0,2.465,1.124,2.465,2.52
		c0,1.394-1.126,2.518-2.525,2.518c-1.371,0-2.496-1.124-2.496-2.518C227.21,20.907,228.369,19.783,229.767,19.783"/>
	<path d="M233.815,27.22l3.621-1.035c0.363,0.638,0.578,1.308,0.578,1.945c0.942-0.67,1.125-0.792,1.795-1.154
		c0.821-0.426,1.887-0.67,2.801-0.67c1.735,0,3.256,0.914,3.737,2.248c0.218,0.576,0.309,1.244,0.309,2.212v11.35h-4.016V32.013
		c0-1.763-0.305-2.276-1.371-2.276c-0.82,0-1.885,0.546-2.827,1.393v10.986h-4.076V30.856
		C234.366,29.525,234.181,28.248,233.815,27.22"/>
	<path d="M248.399,28.432c1.007-0.635,1.431-0.851,2.529-1.274c1.521-0.635,2.828-0.911,4.259-0.911c2.616,0,4.412,0.974,5.02,2.7
		c0.217,0.639,0.274,1.123,0.274,2.792l-0.092,5.221v0.271c0,1.669,0.277,2.306,1.463,3.188l-2.159,2.487
		c-0.946-0.396-1.799-1.093-2.194-1.885c-0.576,0.547-0.64,0.609-0.945,0.822c-0.757,0.545-1.854,0.849-3.13,0.849
		c-3.471,0-5.357-1.759-5.357-4.856c0-3.638,2.527-5.339,7.489-5.339c0.3,0,0.482,0,0.909,0.031v-0.639
		c0-1.729-0.335-2.304-1.828-2.304c-1.305,0-2.826,0.639-4.503,1.761L248.399,28.432z M256.404,35.317h-0.184
		c-2.829,0-3.803,0.518-3.803,2.368c0,1.213,0.762,2.034,1.797,2.034c0.757,0,1.52-0.396,2.129-1.063L256.404,35.317z"/>
	<path fill-rule="evenodd" clip-rule="evenodd" d="M3.089,49.796c-1.118,0-1.861,0.629-1.861,1.567c0,0.311,0.101,0.657,0.273,0.865
		c0.169,0.208,0.563,0.429,0.883,0.485l0.563,0.104c0.51,0.094,0.745,0.265,0.745,0.592c0,0.308-0.282,0.543-0.64,0.543
		c-0.543,0-1.213-0.309-1.6-0.543L1,54.329c0.708,0.365,1.356,0.555,1.947,0.555c1.234,0,2.063-0.676,2.063-1.67
		c0-0.322-0.084-0.594-0.264-0.819c-0.17-0.216-0.367-0.393-0.96-0.542l-0.584-0.15c-0.44-0.113-0.6-0.243-0.6-0.487
		c0-0.281,0.242-0.471,0.611-0.471c0.358,0,0.704,0.103,1.185,0.347l0.411-0.844C4.37,50.033,3.859,49.796,3.089,49.796"/>
	<path fill-rule="evenodd" clip-rule="evenodd" d="M10.419,53.932c-0.649,0-1.015-0.421-1.015-1.159v-0.041h2.783v-0.287
		c0-1.006-0.198-1.649-0.639-2.103c-0.311-0.319-0.836-0.505-1.392-0.505c-0.64,0-1.119,0.205-1.515,0.645
		c-0.424,0.471-0.602,1.043-0.602,1.906c0,1.51,0.893,2.486,2.276,2.486c0.677,0,1.26-0.219,1.816-0.666l-0.488-0.75
		C11.258,53.776,10.852,53.932,10.419,53.932 M9.423,51.795c0-0.67,0.272-1.038,0.752-1.038c0.252,0,0.434,0.09,0.557,0.281
		c0.111,0.177,0.149,0.36,0.149,0.723v0.054H9.423V51.795z"/>
	<path fill-rule="evenodd" clip-rule="evenodd" d="M18.855,50.068c-0.16,0-0.242-0.02-0.593-0.103
		c-0.348-0.094-0.592-0.121-0.865-0.121c-1.234,0-2.03,0.637-2.03,1.623c0,0.711,0.334,1.152,1.032,1.333
		c-0.282,0.065-0.59,0.207-0.734,0.365c-0.103,0.11-0.149,0.261-0.149,0.441c0,0.15,0.038,0.281,0.093,0.394
		c0.064,0.105,0.16,0.185,0.272,0.233c0.228,0.088,0.593,0.138,1.157,0.151c0.293,0,0.473,0.008,0.539,0.008
		c0.347,0.018,0.525,0.074,0.659,0.145c0.129,0.072,0.227,0.24,0.227,0.43c0,0.187-0.123,0.374-0.304,0.488
		c-0.168,0.113-0.44,0.161-0.801,0.161c-0.581,0-0.902-0.21-0.902-0.596c0-0.168,0.019-0.204,0.057-0.311h-1.168
		c-0.044,0.097-0.111,0.229-0.111,0.492c0,0.326,0.135,0.609,0.393,0.854c0.435,0.403,1.141,0.513,1.829,0.513
		c0.752,0,1.477-0.17,1.9-0.615c0.264-0.284,0.386-0.595,0.386-0.997c0-0.433-0.132-0.762-0.414-1.023
		c-0.339-0.308-0.726-0.423-1.459-0.431l-0.678-0.01c-0.131,0-0.208-0.044-0.208-0.109c0-0.135,0.179-0.246,0.499-0.396
		c0.096,0.008,0.131,0.008,0.19,0.008c1.025,0,1.778-0.601,1.778-1.423c0-0.319-0.093-0.563-0.283-0.79
		c0.162,0.018,0.206,0.027,0.329,0.027c0.35,0,0.611-0.103,0.883-0.356l-0.525-0.795C19.561,49.919,19.204,50.068,18.855,50.068
		 M18.15,51.477c0,0.442-0.274,0.685-0.773,0.685c-0.44,0-0.742-0.199-0.742-0.685c0-0.449,0.271-0.715,0.751-0.715
		C17.868,50.762,18.15,51.027,18.15,51.477"/>
	<path fill-rule="evenodd" clip-rule="evenodd" d="M23.292,53.119c0,0.488,0.03,0.74,0.105,0.955
		c0.159,0.462,0.744,0.779,1.421,0.779c0.509,0,0.961-0.159,1.269-0.46c0.085,0.2,0.217,0.357,0.377,0.469l0.894-0.503
		c-0.189-0.225-0.291-0.558-0.291-0.873v-3.67l-1.203,0.252v3.381c-0.097,0.231-0.473,0.458-0.786,0.458
		c-0.183,0-0.373-0.094-0.442-0.227c-0.074-0.133-0.1-0.36-0.1-0.789v-3.083l-1.244,0.233V53.119z"/>
	<path fill-rule="evenodd" clip-rule="evenodd" d="M30.861,51.524v3.207h1.263v-3.396c0.232-0.273,0.489-0.402,0.772-0.402
		c0.142,0,0.244,0.027,0.366,0.094l0.348-1.108c-0.195-0.08-0.282-0.104-0.469-0.104c-0.141,0-0.312,0.03-0.415,0.078
		c-0.233,0.111-0.536,0.366-0.713,0.607c-0.021-0.271-0.086-0.487-0.199-0.686l-1.128,0.302
		C30.787,50.39,30.861,50.874,30.861,51.524"/>
	<path fill-rule="evenodd" clip-rule="evenodd" d="M36.084,52.346c0,1.514,0.855,2.487,2.164,2.487c0.744,0,1.224-0.25,1.589-0.666
		c0.415-0.467,0.606-1.029,0.606-1.855c0-0.777-0.172-1.302-0.559-1.753c-0.413-0.488-0.948-0.72-1.636-0.72
		C36.95,49.839,36.084,50.84,36.084,52.346 M38.813,51.016c0.171,0.218,0.256,0.637,0.256,1.289c0,1.133-0.234,1.619-0.782,1.619
		c-0.244,0-0.525-0.128-0.639-0.392c-0.104-0.246-0.163-0.653-0.163-1.211c0-0.479,0.049-0.817,0.132-1.068
		c0.107-0.301,0.348-0.489,0.651-0.489C38.492,50.764,38.691,50.856,38.813,51.016"/>
	<path fill-rule="evenodd" clip-rule="evenodd" d="M45.384,49.796c-1.12,0-1.867,0.629-1.867,1.567c0,0.311,0.107,0.657,0.276,0.865
		s0.564,0.429,0.884,0.485l0.563,0.104c0.51,0.094,0.746,0.265,0.746,0.592c0,0.308-0.282,0.543-0.639,0.543
		c-0.548,0-1.215-0.309-1.599-0.543l-0.451,0.919c0.703,0.365,1.354,0.555,1.943,0.555c1.237,0,2.062-0.676,2.062-1.67
		c0-0.322-0.084-0.594-0.261-0.819c-0.17-0.216-0.369-0.393-0.961-0.542l-0.583-0.15c-0.442-0.113-0.604-0.243-0.604-0.487
		c0-0.281,0.246-0.471,0.615-0.471c0.356,0,0.705,0.103,1.184,0.347l0.412-0.844C46.666,50.033,46.153,49.796,45.384,49.796"/>
</g>
</svg>
