<?xml version="1.0" encoding="utf-8"?>
<!-- Generator: Adobe Illustrator 19.0.0, SVG Export Plug-In . SVG Version: 6.00 Build 0)  -->
<svg version="1.1" id="Layer_1" xmlns="http://www.w3.org/2000/svg" xmlns:xlink="http://www.w3.org/1999/xlink" x="0px" y="0px"
	 viewBox="0 0 419.3 144.7" style="enable-background:new 0 0 419.3 144.7;" xml:space="preserve">
<style type="text/css">
	.st0{fill:#00467F;}
	.st1{fill:none;}
</style>
<g>
	<g>
		<g>
			<g>
				<path class="st0" d="M123.3,81.6c-4.9,0-8.1-0.5-12-1.9v-8.9c3.4,1.3,7,2.2,10.7,2.2c3.3,0,4.6-1,4.6-2.8c0-2.7-3.8-3.4-7.7-4.6
					c-4.2-1.2-8.6-3.7-8.6-10.6c0-7.1,4.2-11.9,14.2-11.9c3.8,0,6.6,0.5,9.6,1.4v8.6c-3.3-0.7-6.4-1.2-9-1.2c-4,0-4.8,1.1-4.8,2.5
					c0,2.3,3.2,2.9,6.7,3.9c4.5,1.2,9.6,3.5,9.6,11.2C136.6,76.9,131.6,81.6,123.3,81.6z"/>
				<path class="st0" d="M141.1,51.4c0,0,4.2-1.5,10.4-1.5c6.3,0,12.4,1.8,12.4,12.5v18.5h-6.6l-1.1-3.3h-0.3c0,0-2.5,3.9-7.8,3.9
					c-5.6,0-9.6-3-9.6-9.7c0-7.2,4.7-10.2,11.3-10.2c1.9,0,3.8,0.3,4.6,0.5v-0.9c0-1.8-0.9-3.6-5-3.6c-4.1,0-8.3,1.3-8.3,1.3V51.4z
					 M154.4,72.3V68c-0.7-0.2-1.7-0.3-2.6-0.3c-3.4,0-4.4,1.5-4.4,3.4c0,1.8,1.3,3,3.3,3C152.3,74.1,153.6,73.3,154.4,72.3z"/>
				<path class="st0" d="M177.6,80.9h-9.5V50.5h6.6l1,3.5l0,0h0.3c2.4-2.7,5.3-4,8.4-4c6.3,0,10.3,4,10.3,11.2v19.8h-9.6v-19
					c0-2.8-1.1-3.9-3.7-3.9c-1.2,0-2.7,0.5-4,2.1V80.9z"/>
				<path class="st0" d="M235.3,53c-1.7-0.6-5-1.1-7.4-1.1c-6,0-7.4,2.4-7.4,10.2c0,8.3,1.6,10.7,7.5,10.7c2.3,0,5.5-0.5,7.4-1.3
					v8.4c-2.4,1.2-5.9,1.8-8.8,1.8c-11.3,0-17-6.4-17-19.6c0-12.2,5.5-19.1,17.7-19.1c2.7,0,6,0.4,8,1.2V53z"/>
				<path class="st0" d="M248.5,80.9h-9.5V50.5h6.6l1.3,5.3h0.5c1.4-3.9,3.7-5.9,6.3-5.9c1.2,0,2,0.2,2.6,0.5v8.2
					c-0.3-0.1-1.5-0.2-2.2-0.2c-2.8,0-4.5,1.2-5.7,4V80.9z"/>
				<path class="st0" d="M264.3,48.3c-3.6,0-5.2-1-5.2-3.9c0-2.5,1.6-3.9,5.2-3.9c3.6,0,5.2,1.4,5.2,3.9
					C269.5,47,268,48.3,264.3,48.3z M259.4,80.9V50.5h9.8v30.4H259.4z"/>
				<path class="st0" d="M284.3,81.6c-3.9,0-7.1-0.5-9.8-1.3v-7.8c2.6,0.9,6.3,1.6,8.8,1.6c2.3,0,3.3-1,3.3-2.2
					c0-2.2-3.2-2.2-6.3-3.3c-3.4-1.2-7-2.7-7-8.5c0-6,3.7-10.1,11.5-10.1c3.2,0,6.2,0.4,8.8,1.2v7.4c-2.3-0.7-5.6-1.2-7.5-1.2
					c-2.5,0-3.6,0.9-3.6,2c0,1.9,2.5,1.9,5.4,2.8c3.6,1,7.6,2.4,7.6,8.8C295.4,77.3,292.2,81.6,284.3,81.6z"/>
				<path class="st0" d="M309.3,57.8v13.3c0,1.9,0.9,2.8,3.1,2.8c0.7,0,2.3-0.1,2.8-0.3v7c-1.1,0.5-3.4,0.9-5.8,0.9
					c-6.7,0-9.8-3.8-9.8-9.8V57.8h-2.9v-7.3h3.3l0-6.1l9.1-0.9v7h6.3v7.3H309.3z"/>
				<path class="st0" d="M331.5,81.6c-9.9,0-14.4-4.6-14.4-15.7c0-11.1,4.5-15.9,14.4-15.9c10,0,14.3,4.8,14.3,15.9
					C345.9,77,341.6,81.6,331.5,81.6z M331.6,74.1c3.3,0,4.4-1.6,4.4-8.3c0-6.8-1.1-8.3-4.4-8.3c-3.3,0-4.5,1.5-4.5,8.3
					C327.1,72.6,328.3,74.1,331.6,74.1z M339.9,41.5l-5,6.4h-7.1l2.2-6.4H339.9z"/>
				<path class="st0" d="M358.9,52.8c2-2.1,4.7-2.8,7.3-2.8c6.7,0,10.9,4.9,10.9,15.6c0,11-3.7,15.9-11.6,15.9
					c-3.4,0-6.5-1.5-8.3-3.9h-0.3l-1,3.3h-6.5v-39l9.5-0.9v7.2c0,0.8-0.4,4.7-0.4,4.7H358.9z M362.8,58.1c-1.7,0-3.1,0.8-4,2.2v11
					c0.8,1.1,2.1,2.1,4,2.1c2.8,0,4.3-1.2,4.3-7.6C367.2,59,365.8,58.1,362.8,58.1z"/>
				<path class="st0" d="M381.9,51.4c0,0,4.2-1.5,10.4-1.5c6.3,0,12.4,1.8,12.4,12.5v18.5H398l-1.1-3.3h-0.3c0,0-2.5,3.9-7.8,3.9
					c-5.6,0-9.6-3-9.6-9.7c0-7.2,4.7-10.2,11.3-10.2c1.9,0,3.8,0.3,4.6,0.5v-0.9c0-1.8-0.9-3.6-5-3.6c-4.1,0-8.3,1.3-8.3,1.3V51.4z
					 M395.2,72.3V68c-0.7-0.2-1.7-0.3-2.6-0.3c-3.4,0-4.4,1.5-4.4,3.4c0,1.8,1.3,3,3.3,3C393,74.1,394.3,73.3,395.2,72.3z"/>
				<path class="st0" d="M409.1,80.9v-39l9.7-0.9v39.9H409.1z"/>
			</g>
			<g>
				<path class="st0" d="M200.5,114.3c-2.2,0-3.8-0.3-5.3-1.1v-2.3c1.5,0.9,3,1.3,4.8,1.3c2.3,0,3.5-1.1,3.5-3c0-2-1.8-2.6-3.7-3.2
					c-2.3-0.7-4.9-1.5-4.9-5c0-2.8,1.8-5,5.8-5c1.7,0,3.3,0.3,4.4,0.8v2.2c-1.4-0.5-2.8-0.8-4.3-0.8c-2.5,0-3.4,1.3-3.4,2.7
					c0,2.1,2.3,2.5,4.5,3.2c2.1,0.7,4.1,1.7,4.1,4.9C206.1,112.2,204.1,114.3,200.5,114.3z"/>
				<path class="st0" d="M209.8,96.2h10v2.2h-7.4v5.2h6.8v2.2h-6.8v5.9h7.4v2.2h-10V96.2z"/>
				<path class="st0" d="M236.4,113.3c-1.4,0.6-3.4,1-5.5,1c-5.6,0-8-2.8-8-9.2c0-6.4,2.6-9.2,8.3-9.2c1.8,0,3.8,0.4,5.1,0.9V99
					c-1.4-0.5-3.3-0.8-5-0.8c-4.1,0-5.9,1.6-5.9,7c0,5.2,1.5,7,5.4,7c1.2,0,2.2-0.1,3-0.3v-5.4h-3.5v-2.1h6.1L236.4,113.3z"/>
				<path class="st0" d="M253.8,107.6c0,4.7-2.4,6.7-6.8,6.7c-4.3,0-6.8-2.1-6.8-6.7V96.2h2.6v11.4c0,3.1,1.4,4.4,4.2,4.4
					c2.9,0,4.2-1.4,4.2-4.4V96.2h2.6V107.6z"/>
				<path class="st0" d="M271.2,113.9c-0.5,0.2-0.9,0.3-1.4,0.3c-2.2,0-3.4-1.5-4.4-3.2l-2.4-4.3h-2.4v7.3H258V96.2h6.2
					c3.9,0,5.7,1.7,5.7,5.1c0,2.9-1.6,4.7-4.3,5.2l2.1,3.7c0.6,1.1,1.6,2,3.1,2c0.1,0,0.3,0,0.4,0V113.9z M264.2,98.4h-3.6v6.1h3.5
					c2.3,0,3.3-0.9,3.3-3.2C267.4,99.2,266.4,98.4,264.2,98.4z"/>
				<path class="st0" d="M280.2,114.3c-5.3,0-7.4-2.7-7.4-9.2c0-6.5,2.1-9.2,7.4-9.2c5.3,0,7.4,2.7,7.4,9.2
					C287.6,111.6,285.5,114.3,280.2,114.3z M280.2,98.1c-3.5,0-4.8,1.5-4.8,6.9c0,5.4,1.4,7,4.8,7c3.5,0,4.8-1.6,4.8-7
					C285,99.6,283.7,98.1,280.2,98.1z"/>
				<path class="st0" d="M296,114.3c-2.2,0-3.8-0.3-5.3-1.1v-2.3c1.5,0.9,3,1.3,4.8,1.3c2.3,0,3.5-1.1,3.5-3c0-2-1.8-2.6-3.7-3.2
					c-2.3-0.7-4.9-1.5-4.9-5c0-2.8,1.8-5,5.8-5c1.7,0,3.3,0.3,4.4,0.8v2.2c-1.4-0.5-2.8-0.8-4.3-0.8c-2.5,0-3.4,1.3-3.4,2.7
					c0,2.1,2.3,2.5,4.5,3.2c2.1,0.7,4.1,1.7,4.1,4.9C301.7,112.2,299.6,114.3,296,114.3z"/>
				<path class="st0" d="M304,117.7c0.5-1.7,1.2-4.6,1.4-6.7h2.7c-0.6,2.5-1.7,5.4-2.4,6.7H304z"/>
				<path class="st0" d="M320.2,96.2h10v2.2h-7.4v5.2h6.8v2.2h-6.8v5.9h7.4v2.2h-10V96.2z"/>
				<path class="st0" d="M334.1,96.2h2.5l7.5,12c0.2,0.3,0.9,1.7,0.9,1.7h0.1c0,0-0.2-1.5-0.2-3V96.2h2.5V114h-2.5l-7.6-12.1
					c-0.2-0.3-0.8-1.5-0.8-1.5h-0.1c0,0,0.1,1.3,0.1,2.9V114h-2.5V96.2z"/>
				<path class="st0" d="M370.8,98.9c-0.9-0.4-2.5-0.7-3.9-0.7c-3.8,0-5.4,1.7-5.4,6.8c0,5.5,1.6,7.1,5.4,7.1c1.4,0,2.9-0.3,3.9-0.9
					v2.2c-1.1,0.6-2.7,1-4.2,1c-5.3,0-7.7-2.9-7.7-9.4c0-6.2,2.4-9.1,7.8-9.1c1.5,0,3.1,0.3,4.1,0.8V98.9z"/>
				<path class="st0" d="M378.9,96.2h3.2l6.6,17.8h-2.9l-1.6-4.7h-7.6L375,114h-2.7L378.9,96.2z M377.4,107.1h6l-2.9-8.6h-0.1
					L377.4,107.1z"/>
				<path class="st0" d="M395.7,114.3c-2.2,0-3.8-0.3-5.3-1.1v-2.3c1.5,0.9,3,1.3,4.8,1.3c2.3,0,3.5-1.1,3.5-3c0-2-1.8-2.6-3.7-3.2
					c-2.3-0.7-4.9-1.5-4.9-5c0-2.8,1.8-5,5.8-5c1.7,0,3.3,0.3,4.4,0.8v2.2c-1.4-0.5-2.8-0.8-4.3-0.8c-2.5,0-3.4,1.3-3.4,2.7
					c0,2.1,2.3,2.5,4.5,3.2c2.1,0.7,4.1,1.7,4.1,4.9C401.4,112.2,399.3,114.3,395.7,114.3z"/>
				<path class="st0" d="M409.6,96.2h3.2l6.6,17.8h-2.9l-1.6-4.7h-7.6l-1.7,4.7h-2.7L409.6,96.2z M408.1,107.1h6l-2.9-8.6h-0.1
					L408.1,107.1z"/>
			</g>
		</g>
	</g>
	<g>
		<path class="st1" d="M56.1,49.3c-2.8-0.2-2.8-2.8-2.8-3.9c0-3.3,1.9-0.7,2.1-3.6c0-0.6-0.4-0.7-0.6-0.7c-0.6,0-0.7,0.1-0.8,0.1
			c-0.4-0.2-1.3-1.3-1.3-3c-0.8-0.1-2.8-0.2-3.9-1.2c-1.1,0.2-1.4,1.2-1.4,1.9c0,0.7,0.4,1.7,0.4,1.9c0,0.8-1.1,1.1-1.1,1.7
			c0,0.4,0.7,0.6,0.7,1.1c0,0.5-0.4,1.1-0.4,1.9c0,1.1,2.1,1.7,2.3,1.7c-0.4,0.1-0.8,0.4-2.5,0.4c-1.7,0-3.4-1.5-5.7-1.5
			c-2.4,0-7.2,4-12.9,4c-0.7,0-1.3,0-1.8-0.1c-0.8-0.7-1.1-0.9-1.7-1.5L24.5,48c-0.1-0.1-0.7-0.4-1.2-0.4c-1-0.6-2.7-1.8-3.4-1.8
			c-0.1,0-0.2,0-0.2,0.2c0,0.1,0.2,0.6,0.6,0.8c-0.4-0.1-1-0.2-1.2-0.2c-0.1,0-0.4,0-0.4,0.1c0,0.7,1.4,0.9,2.6,1.4
			c0.9,0.5,1.9,1.1,1.9,1.9c0,0.2,0,0.5-0.4,0.5c0,0-1.4-0.8-2.3-0.8c-0.4,0-0.5,0.1-0.5,0.4c0,0.5,1.1,0.9,2.4,1.4
			c0.7,0.4,1.3,0.8,2.1,0.8c0.4,0,1.2-0.2,1.2-0.2c2,0.7,3.9,1.1,5.8,1.1c2.5,0,6.9-2.1,8.8-2.1c0.5,0,0.9,0.1,0.9,0.7
			c0,2.3-6.2,5.1-6.2,11.5c0,5.8,6.8,10.2,11.3,10.2c2.1,0,5-1.4,5-4.5c0-6.5-8.9-4.1-8.9-6.9c0-0.2,0.1-0.5,0.5-0.5
			c0.4,0,2.4,0.9,4.4,0.9C52.7,62.5,49.2,52.6,56.1,49.3z M50.3,41c0,0.4-0.4,0.6-0.8,0.6c-0.5,0-0.7-0.4-0.7-0.7
			c0-0.6,0.3-0.8,1.2-0.8c0.6,0,1.3,0.2,1.3,0.6C51.3,40.7,51.1,41,50.3,41z"/>
		<path class="st1" d="M55.4,54.1c0,0.9,3,1.2,3,1.9c0,0.4-0.2,0.7-1.1,0.7c-0.6,0-0.8-0.1-1.2-0.2C56,56.7,55.8,57,55.3,57
			c-0.6,0-0.8-0.5-0.8-0.5s-0.1,0.4-0.6,0.6c-1.2,1.1-1.4,3.2-1.4,4.5c0,0,0.5-0.4,1.4-0.4c0.9,0,2.2,0.1,3,0.2l1.7-3.3
			c0.1-0.2,0.4-1.5,2-1.5c1.9,0,3.1,1.5,3.1,1.9c0,0.2-0.1,0.4-0.6,0.4c-0.4,0-0.7-0.1-1-0.2c-0.1,0.4-0.5,0.6-0.9,0.6
			c-0.6,0-0.9-0.4-0.9-0.9C59.5,58.6,59,59.4,59,61c0,1.7,0.2,2.6,0.7,4.3c2.6-2.4,6.4-2,6.4-8.9c0-3.2-0.3-4.3-0.6-5.3
			c-0.8-0.5-2.7-0.9-3.2-0.9c-0.6,0-0.2,0.8-3.6,2.2C56.5,53.3,55.4,53.5,55.4,54.1z"/>
		<g>
			<polygon class="st0" points="50.9,134.2 13.1,48.3 9.9,51.6 50.9,144.7 91.5,51.5 88.3,48.3 			"/>
		</g>
		<path class="st0" d="M55,45.8c0-0.6,0-1.1,0.4-1.3c1.1-0.8,3.3-0.5,3.3-2.4c0-0.5-0.2-0.8-0.2-0.8s1.5-1.1,1.5-3.2
			c0-1.2-1.3-2-1.9-3c-1.3-1.9-2.7-2.7-4.6-2.7c-0.5,0-0.7,0.1-1.1,0.2c-0.5-0.4-1.2-1.2-2.6-1.2c-1.3,0-1.9,0.8-2.1,1.2
			c-1.1,0.2-1.7,0.9-1.7,2.1c0,0.8,0.8,1.5,0.8,1.5c-0.2,0.1-1.3,1-1.3,2.3c0,1.1,0.4,1.7,0.4,2.1c0,0.5-1.1,0.9-1.1,1.7
			c0,0.6,0.7,1.1,0.7,1.4c0,0.4-0.2,0.7-0.2,1.5c-1.4-0.7-2.5-1.2-4.2-1.2c-3.9,0-6.3,4.1-14,4.1c-1.2-0.8-1.5-1.2-2.6-2.1
			c-0.5-0.4-0.7-0.1-1.3-0.4c-1-0.6-2.3-1.3-3.3-1.3c-1.7,0-2.7,0.8-2.7,2.4c0,0.9,0.7,1.9,1.9,2.1c-0.7,0.2-0.8,0.8-0.8,1.1
			c0,1.1,1.1,1.8,3,2.6c0.7,0.4,1.9,1.2,3.1,1.2c0.6,0,1.1-0.1,1.2-0.1c0,0,3.3,1.1,5.3,1.1c4.6,0,6.6-1.5,7.9-1.9
			c0,0.2-5.5,4.1-5.5,10.3c0,2.1,0.8,4,1.9,5.7l-5.6,2.8l6,13.9c0,0,4.9-0.2,5.8-2.7c-1.2-2.8-1.8-5.2-1.8-6.8c0-1,0.4-2,0.7-2.6
			c1.9,1,3.9,1.7,5.6,1.7c2.8,0,4.6-1.2,5.5-2.2c0.4,0.7,1,1.9,1,5.1c0,3.4-2.7,6.4-2.7,6.4l-7.2,8.9c-1.1,1.3-1.5,2.5-1.5,3.6
			c0,0.5,0.1,0.9,0.2,1.3l10.1,23.1l17.4-39.9c0,0-0.6,0.2-1.3,0.2c-1.1,0-3.2-0.6-3.2-3.4c0-3.1,2.8-4.6,2.8-4.6s-0.2-1.5-0.2-2.2
			c0-0.7,0.2-1.2,0.7-1.2c0.6,0,2,1.9,3.6,1.9c1.4,0,2.1-0.9,2.6-2L84.9,44h-4.5l-9.6,22c0.1-0.5,1.2-4,1.2-7c0-3-0.9-4.2-1.7-4.9
			v-0.9c0-4.7-3.4-5.8-4.6-5.9c-1.4-0.1-1.5-1.1-3.6-1.1c-3.3,0-3.9,1.5-5.6,1.5C55.8,47.7,55,47,55,45.8z M47.3,62.5
			c-2,0-4-0.9-4.4-0.9c-0.4,0-0.5,0.2-0.5,0.5c0,2.7,8.9,0.4,8.9,6.9c0,3.1-2.8,4.5-5,4.5c-4.5,0-11.3-4.4-11.3-10.2
			c0-6.4,6.2-9.2,6.2-11.5c0-0.6-0.5-0.7-0.9-0.7c-1.9,0-6.3,2.1-8.8,2.1c-1.9,0-3.8-0.4-5.8-1.1c0,0-0.8,0.2-1.2,0.2
			c-0.8,0-1.4-0.5-2.1-0.8c-1.3-0.5-2.4-0.9-2.4-1.4c0-0.2,0.1-0.4,0.5-0.4c0.8,0,2.3,0.8,2.3,0.8c0.4,0,0.4-0.2,0.4-0.5
			c0-0.8-0.9-1.4-1.9-1.9c-1.2-0.5-2.6-0.7-2.6-1.4c0-0.1,0.2-0.1,0.4-0.1c0.2,0,0.8,0.1,1.2,0.2c-0.4-0.2-0.6-0.7-0.6-0.8
			c0-0.2,0.1-0.2,0.2-0.2c0.7,0,2.5,1.2,3.4,1.8c0.5,0,1.1,0.2,1.2,0.4l0.2,0.4c0.6,0.6,0.8,0.8,1.7,1.5c0.5,0.1,1.1,0.1,1.8,0.1
			c5.7,0,10.5-4,12.9-4c2.3,0,4,1.5,5.7,1.5c1.7,0,2.1-0.2,2.5-0.4c-0.1,0-2.3-0.6-2.3-1.7c0-0.8,0.4-1.4,0.4-1.9
			c0-0.5-0.7-0.7-0.7-1.1c0-0.6,1.1-0.8,1.1-1.7c0-0.2-0.4-1.2-0.4-1.9c0-0.7,0.4-1.7,1.4-1.9c1.1,1,3.1,1.1,3.9,1.2
			c0,1.7,0.9,2.7,1.3,3c0.1,0,0.2-0.1,0.8-0.1c0.2,0,0.6,0.1,0.6,0.7c-0.2,2.8-2.1,0.2-2.1,3.6c0,1.1,0,3.7,2.8,3.9
			C49.2,52.6,52.7,62.5,47.3,62.5z M62.3,50.1c0.5,0,2.4,0.5,3.2,0.9c0.2,1.1,0.6,2.1,0.6,5.3c0,6.9-3.8,6.5-6.4,8.9
			C59.2,63.6,59,62.7,59,61c0-1.7,0.6-2.4,1.2-2.7c0,0.6,0.4,0.9,0.9,0.9c0.5,0,0.8-0.2,0.9-0.6c0.2,0.1,0.6,0.2,1,0.2
			c0.5,0,0.6-0.1,0.6-0.4c0-0.4-1.2-1.9-3.1-1.9c-1.7,0-1.9,1.3-2,1.5l-1.7,3.3c-0.7-0.1-2-0.2-3-0.2c-0.9,0-1.4,0.4-1.4,0.4
			c0-1.3,0.2-3.4,1.4-4.5c0.5-0.2,0.6-0.6,0.6-0.6s0.2,0.5,0.8,0.5c0.5,0,0.7-0.2,0.8-0.5c0.4,0.1,0.6,0.2,1.2,0.2
			c0.8,0,1.1-0.4,1.1-0.7c0-0.7-3-0.9-3-1.9c0-0.6,1.1-0.8,3.3-1.8C62,50.9,61.7,50.1,62.3,50.1z"/>
		<path class="st0" d="M49.9,40c-0.8,0-1.2,0.2-1.2,0.8c0,0.4,0.2,0.7,0.7,0.7c0.5,0,0.8-0.2,0.8-0.6c0.8,0,1-0.2,1-0.4
			C51.3,40.3,50.5,40,49.9,40z"/>
		<polygon class="st0" points="50.9,0 50.9,0 50.9,0 0,50.7 1.6,54.4 50.9,5.4 99.5,54.2 101.1,50.4 		"/>
	</g>
</g>
<g>
</g>
<g>
</g>
<g>
</g>
<g>
</g>
<g>
</g>
<g>
</g>
</svg>
