<?xml version="1.0" standalone="no"?><!DOCTYPE svg PUBLIC "-//W3C//DTD SVG 1.1//EN" "http://www.w3.org/Graphics/SVG/1.1/DTD/svg11.dtd"><svg width="100%" height="100%" viewBox="0 0 280 72" version="1.1" xmlns="http://www.w3.org/2000/svg" xmlns:xlink="http://www.w3.org/1999/xlink" xml:space="preserve" style="fill-rule:evenodd;clip-rule:evenodd;stroke-linejoin:round;stroke-miterlimit:1.41421;"><g id="Layer1"><g id="Capa 1"><path d="M34.051,0.614c16.256,0 29.834,11.877 32.553,27.424l-22.949,0.006l-4.117,-9.127l-5.339,-12.453l-5.34,12.453l-5.338,12.454l43.493,0c0.057,0.792 0.088,1.592 0.088,2.399c0,18.26 -14.847,33.154 -33.051,33.154c-16.173,0 -29.695,-11.757 -32.511,-27.186l22.637,0.074l4.612,8.976l5.343,11.464l5.343,-11.464l5.344,-11.462l-43.627,0c-0.126,-1.169 -0.192,-2.355 -0.192,-3.556c0,-18.262 14.847,-33.156 33.051,-33.156" style="fill:#a32966;"/><path d="M267.72,9.172c0,-0.7 -0.136,-1.311 -0.406,-1.819c-0.269,-0.508 -0.719,-0.9 -1.343,-1.177c-0.443,-0.186 -0.931,-0.302 -1.472,-0.354c-0.54,-0.05 -1.208,-0.076 -2.011,-0.076l-2.353,0l0,7.545l2.011,0c0.984,0 1.813,-0.058 2.494,-0.18c0.689,-0.115 1.267,-0.371 1.743,-0.758c0.449,-0.353 0.79,-0.771 1.008,-1.266c0.22,-0.488 0.329,-1.125 0.329,-1.915M279.057,28.621l-8.587,0l-7.802,-10.283l-2.533,0l0,10.283l-7.006,0l0,-28.037l11.28,0c1.557,0 2.911,0.097 4.061,0.291c1.158,0.199 2.225,0.604 3.201,1.214c1.01,0.643 1.808,1.453 2.391,2.442c0.592,0.983 0.888,2.238 0.888,3.754c0,2.147 -0.482,3.889 -1.446,5.226c-0.97,1.335 -2.263,2.397 -3.882,3.187l9.435,11.923ZM237.151,14.597c0,-1.672 -0.174,-3.099 -0.521,-4.268c-0.342,-1.176 -0.803,-2.14 -1.383,-2.892c-0.604,-0.765 -1.285,-1.318 -2.043,-1.646c-0.758,-0.334 -1.549,-0.501 -2.366,-0.501c-0.86,0 -1.644,0.153 -2.352,0.463c-0.7,0.308 -1.381,0.854 -2.031,1.645c-0.578,0.726 -1.047,1.697 -1.401,2.899c-0.36,1.209 -0.54,2.648 -0.54,4.312c0,1.722 0.167,3.149 0.509,4.287c0.339,1.137 0.802,2.089 1.395,2.854c0.603,0.777 1.285,1.338 2.049,1.665c0.765,0.333 1.563,0.501 2.371,0.501c0.83,0 1.633,-0.18 2.418,-0.539c0.778,-0.354 1.446,-0.915 2.012,-1.665c0.603,-0.817 1.066,-1.769 1.395,-2.854c0.327,-1.086 0.488,-2.506 0.488,-4.261M244.419,14.609c0,4.538 -1.208,8.098 -3.63,10.702c-2.424,2.596 -5.747,3.895 -9.963,3.895c-4.236,0 -7.552,-1.318 -9.962,-3.947c-2.41,-2.628 -3.619,-6.175 -3.619,-10.65c0,-4.505 1.209,-8.066 3.619,-10.682c2.41,-2.616 5.726,-3.927 9.962,-3.927c4.216,0 7.539,1.305 9.963,3.907c2.422,2.604 3.63,6.171 3.63,10.702M199.139,29.168c-4.205,0 -7.545,-1.274 -10.021,-3.811c-2.474,-2.546 -3.708,-6.12 -3.708,-10.729c0,-4.44 1.242,-7.982 3.721,-10.624c2.482,-2.641 5.824,-3.965 10.027,-3.965c1.118,0 2.122,0.065 3.015,0.185c0.892,0.13 1.747,0.303 2.564,0.528c0.637,0.192 1.337,0.45 2.089,0.771c0.752,0.328 1.362,0.611 1.825,0.848l0,6.684l-0.713,0c-0.341,-0.302 -0.771,-0.662 -1.286,-1.079c-0.514,-0.424 -1.098,-0.836 -1.749,-1.234c-0.654,-0.405 -1.375,-0.744 -2.158,-1.029c-0.784,-0.281 -1.601,-0.423 -2.456,-0.423c-1.014,0 -1.946,0.161 -2.795,0.482c-0.848,0.32 -1.659,0.874 -2.424,1.665c-0.7,0.713 -1.278,1.683 -1.722,2.898c-0.444,1.222 -0.668,2.654 -0.668,4.314c0,1.747 0.23,3.212 0.693,4.402c0.469,1.182 1.073,2.141 1.833,2.866c0.726,0.708 1.536,1.215 2.435,1.53c0.901,0.314 1.794,0.469 2.686,0.469c0.926,0 1.814,-0.155 2.655,-0.463c0.842,-0.308 1.55,-0.648 2.128,-1.021c0.629,-0.392 1.182,-0.792 1.659,-1.19c0.476,-0.404 0.893,-0.758 1.239,-1.073l0.643,0l0,6.588c-0.514,0.238 -1.111,0.515 -1.787,0.823c-0.681,0.302 -1.375,0.566 -2.095,0.777c-0.874,0.264 -1.696,0.463 -2.467,0.604c-0.766,0.134 -1.82,0.207 -3.163,0.207M176.425,28.621l-6.782,0l-10.804,-19.547l0,19.547l-6.441,0l0,-28.037l8.646,0l8.939,16.062l0,-16.062l6.442,0l0,28.037ZM131.819,17.81l-2.861,-9.235l-2.865,9.235l5.726,0ZM115.737,28.621l9.474,-28.037l7.681,0l9.474,28.037l-7.251,0l-1.76,-5.727l-8.799,0l-1.756,5.727l-7.063,0ZM95.357,29.128c-2.147,0 -4.031,-0.205 -5.656,-0.622c-1.627,-0.412 -3.137,-0.926 -4.532,-1.544l0,-6.665l0.643,0c1.401,1.19 2.957,2.108 4.647,2.751c1.697,0.637 3.342,0.958 4.936,0.958c0.405,0 0.932,-0.046 1.594,-0.128c0.656,-0.09 1.188,-0.233 1.587,-0.419c0.496,-0.211 0.907,-0.507 1.248,-0.893c0.34,-0.385 0.507,-0.886 0.507,-1.517c0,-0.701 -0.276,-1.273 -0.829,-1.709c-0.553,-0.444 -1.214,-0.759 -1.98,-0.964c-0.951,-0.251 -1.974,-0.488 -3.059,-0.714c-1.086,-0.225 -2.102,-0.501 -3.04,-0.828c-2.173,-0.765 -3.734,-1.795 -4.673,-3.086c-0.944,-1.291 -1.414,-2.912 -1.414,-4.859c0,-2.621 1.113,-4.749 3.336,-6.376c2.217,-1.627 4.994,-2.436 8.322,-2.436c1.672,0 3.331,0.168 4.982,0.507c1.651,0.342 3.13,0.798 4.435,1.376l0,6.402l-0.624,0c-1.041,-0.893 -2.313,-1.645 -3.811,-2.255c-1.504,-0.618 -3.046,-0.926 -4.628,-0.926c-0.61,0 -1.163,0.044 -1.657,0.128c-0.489,0.09 -1.002,0.263 -1.543,0.513c-0.437,0.201 -0.817,0.496 -1.137,0.895c-0.321,0.391 -0.482,0.835 -0.482,1.323c0,0.713 0.257,1.285 0.765,1.704c0.507,0.424 1.491,0.803 2.943,1.137c0.945,0.219 1.851,0.426 2.726,0.625c0.874,0.197 1.806,0.474 2.795,0.828c1.947,0.7 3.394,1.646 4.345,2.835c0.945,1.183 1.421,2.75 1.421,4.697c0,2.784 -1.092,5.028 -3.285,6.725c-2.192,1.689 -5.155,2.537 -8.882,2.537" style="fill:#a32966;"/><path d="M266.601,67.461c-2.146,0 -4.031,-0.205 -5.657,-0.622c-1.626,-0.412 -3.136,-0.926 -4.53,-1.544l0,-6.665l0.642,0c1.401,1.19 2.956,2.108 4.646,2.751c1.697,0.637 3.342,0.958 4.937,0.958c0.404,0 0.932,-0.045 1.594,-0.128c0.656,-0.09 1.188,-0.233 1.588,-0.419c0.495,-0.211 0.907,-0.507 1.246,-0.893c0.342,-0.385 0.508,-0.886 0.508,-1.517c0,-0.7 -0.275,-1.273 -0.828,-1.709c-0.555,-0.444 -1.216,-0.759 -1.98,-0.964c-0.951,-0.251 -1.974,-0.488 -3.06,-0.713c-1.086,-0.226 -2.102,-0.502 -3.039,-0.829c-2.173,-0.765 -3.735,-1.794 -4.674,-3.086c-0.945,-1.291 -1.414,-2.911 -1.414,-4.859c0,-2.621 1.113,-4.749 3.337,-6.376c2.217,-1.627 4.993,-2.436 8.322,-2.436c1.672,0 3.33,0.168 4.982,0.507c1.651,0.342 3.129,0.798 4.434,1.376l0,6.403l-0.623,0c-1.041,-0.894 -2.314,-1.646 -3.811,-2.256c-1.504,-0.618 -3.046,-0.926 -4.628,-0.926c-0.61,0 -1.164,0.044 -1.659,0.128c-0.488,0.09 -1.001,0.263 -1.542,0.513c-0.436,0.201 -0.817,0.496 -1.138,0.895c-0.32,0.391 -0.481,0.835 -0.481,1.323c0,0.713 0.257,1.285 0.765,1.704c0.506,0.425 1.489,0.803 2.943,1.137c0.945,0.219 1.852,0.426 2.726,0.625c0.874,0.197 1.806,0.475 2.795,0.828c1.948,0.701 3.394,1.646 4.345,2.835c0.945,1.183 1.42,2.75 1.42,4.697c0,2.784 -1.093,5.028 -3.283,6.725c-2.193,1.689 -5.156,2.537 -8.883,2.537M245.146,52.93c0,-1.672 -0.174,-3.099 -0.521,-4.268c-0.34,-1.176 -0.803,-2.14 -1.383,-2.892c-0.604,-0.765 -1.284,-1.318 -2.043,-1.646c-0.758,-0.334 -1.55,-0.501 -2.365,-0.501c-0.861,0 -1.645,0.153 -2.353,0.463c-0.7,0.308 -1.381,0.854 -2.031,1.645c-0.578,0.726 -1.047,1.697 -1.401,2.899c-0.36,1.209 -0.54,2.648 -0.54,4.312c0,1.722 0.167,3.149 0.509,4.287c0.339,1.137 0.802,2.089 1.395,2.855c0.603,0.777 1.285,1.337 2.049,1.664c0.765,0.333 1.563,0.501 2.372,0.501c0.83,0 1.632,-0.18 2.417,-0.539c0.778,-0.354 1.446,-0.914 2.012,-1.665c0.603,-0.816 1.066,-1.769 1.395,-2.854c0.327,-1.086 0.488,-2.506 0.488,-4.261M252.414,52.942c0,4.538 -1.207,8.099 -3.63,10.702c-2.424,2.596 -5.747,3.895 -9.963,3.895c-4.236,0 -7.551,-1.318 -9.962,-3.946c-2.41,-2.629 -3.619,-6.176 -3.619,-10.651c0,-4.505 1.209,-8.066 3.619,-10.682c2.411,-2.616 5.726,-3.926 9.962,-3.926c4.216,0 7.539,1.304 9.963,3.906c2.423,2.604 3.63,6.172 3.63,10.702M212.11,47.505c0,-0.7 -0.136,-1.311 -0.406,-1.819c-0.269,-0.507 -0.719,-0.9 -1.343,-1.177c-0.443,-0.186 -0.931,-0.302 -1.473,-0.354c-0.539,-0.05 -1.207,-0.076 -2.011,-0.076l-2.352,0l0,7.545l2.011,0c0.984,0 1.813,-0.057 2.494,-0.18c0.687,-0.115 1.266,-0.371 1.743,-0.758c0.448,-0.353 0.79,-0.771 1.008,-1.266c0.218,-0.488 0.329,-1.125 0.329,-1.915M223.447,66.954l-8.588,0l-7.802,-10.283l-2.532,0l0,10.283l-7.006,0l0,-28.037l11.28,0c1.555,0 2.911,0.097 4.061,0.291c1.158,0.199 2.225,0.604 3.201,1.214c1.01,0.643 1.808,1.453 2.391,2.442c0.591,0.983 0.888,2.238 0.888,3.754c0,2.148 -0.482,3.889 -1.447,5.226c-0.97,1.335 -2.263,2.397 -3.881,3.187l9.435,11.923ZM179.002,67.539c-3.767,0 -6.66,-0.913 -8.69,-2.732c-2.025,-1.819 -3.04,-4.48 -3.04,-7.983l0,-17.907l7.044,0l0,17.496c0,1.941 0.368,3.394 1.1,4.346c0.732,0.957 1.927,1.431 3.586,1.431c1.62,0 2.808,-0.455 3.568,-1.374c0.757,-0.912 1.136,-2.385 1.136,-4.403l0,-17.496l7.046,0l0,17.888c0,3.451 -0.991,6.106 -2.964,7.957c-1.98,1.851 -4.904,2.777 -8.786,2.777M160.992,65.354c-1.228,0.501 -2.828,0.99 -4.795,1.471c-1.96,0.477 -3.9,0.714 -5.81,0.714c-4.402,0 -7.918,-1.272 -10.534,-3.812c-2.616,-2.545 -3.927,-6.151 -3.927,-10.817c0,-4.397 1.311,-7.919 3.927,-10.567c2.616,-2.647 6.196,-3.971 10.739,-3.971c2.353,0 4.256,0.224 5.728,0.668c1.471,0.443 2.988,1.054 4.557,1.819l0,6.569l-0.643,0c-0.335,-0.264 -0.823,-0.637 -1.459,-1.119c-0.63,-0.488 -1.246,-0.899 -1.851,-1.233c-0.707,-0.406 -1.517,-0.753 -2.443,-1.041c-0.918,-0.291 -1.895,-0.432 -2.924,-0.432c-1.208,0 -2.308,0.187 -3.297,0.566c-0.989,0.373 -1.877,0.952 -2.655,1.729c-0.739,0.759 -1.33,1.71 -1.761,2.868c-0.43,1.149 -0.648,2.492 -0.648,4.029c0,3.277 0.822,5.695 2.468,7.25c1.645,1.554 3.887,2.333 6.742,2.333c0.25,0 0.545,-0.006 0.88,-0.02c0.34,-0.013 0.637,-0.032 0.887,-0.057l0,-5.496l-5.444,0l0,-5.25l12.263,0l0,13.799ZM112.479,66.954l0,-28.037l18.961,0l0,5.349l-11.955,0l0,4.917l11.016,0l0,5.347l-11.016,0l0,7.077l11.955,0l0,5.347l-18.961,0ZM95.357,67.461c-2.147,0 -4.031,-0.205 -5.656,-0.622c-1.627,-0.412 -3.137,-0.926 -4.532,-1.544l0,-6.665l0.643,0c1.401,1.19 2.957,2.108 4.647,2.751c1.697,0.637 3.342,0.958 4.936,0.958c0.405,0 0.932,-0.045 1.594,-0.128c0.656,-0.09 1.188,-0.233 1.587,-0.419c0.496,-0.211 0.907,-0.507 1.248,-0.893c0.34,-0.385 0.507,-0.886 0.507,-1.517c0,-0.7 -0.276,-1.273 -0.829,-1.709c-0.553,-0.444 -1.214,-0.759 -1.98,-0.964c-0.951,-0.251 -1.974,-0.488 -3.059,-0.713c-1.086,-0.226 -2.102,-0.502 -3.04,-0.829c-2.173,-0.765 -3.734,-1.794 -4.673,-3.086c-0.944,-1.291 -1.414,-2.911 -1.414,-4.859c0,-2.621 1.113,-4.749 3.336,-6.376c2.217,-1.627 4.994,-2.436 8.322,-2.436c1.672,0 3.331,0.168 4.982,0.507c1.651,0.342 3.13,0.798 4.435,1.376l0,6.403l-0.624,0c-1.041,-0.894 -2.313,-1.646 -3.811,-2.256c-1.504,-0.618 -3.046,-0.926 -4.628,-0.926c-0.61,0 -1.163,0.044 -1.657,0.128c-0.489,0.09 -1.002,0.263 -1.543,0.513c-0.437,0.201 -0.817,0.496 -1.137,0.895c-0.321,0.391 -0.482,0.835 -0.482,1.323c0,0.713 0.257,1.285 0.765,1.704c0.507,0.425 1.491,0.803 2.943,1.137c0.945,0.219 1.851,0.426 2.726,0.625c0.874,0.197 1.806,0.475 2.795,0.828c1.947,0.701 3.394,1.646 4.345,2.835c0.945,1.183 1.421,2.75 1.421,4.697c0,2.784 -1.092,5.028 -3.285,6.725c-2.192,1.689 -5.155,2.537 -8.882,2.537" style="fill:#a32966;"/></g></g></svg>