<?xml version="1.0" encoding="utf-8"?>
<!-- Generator: Adobe Illustrator 24.0.2, SVG Export Plug-In . SVG Version: 6.00 Build 0)  -->
<svg version="1.1" id="Layer_1" xmlns="http://www.w3.org/2000/svg" xmlns:xlink="http://www.w3.org/1999/xlink" x="0px" y="0px"
	 viewBox="0 0 147.7 60.19" style="enable-background:new 0 0 147.7 60.19;" xml:space="preserve">
<style type="text/css">
	.st0{display:none;fill:#FFFFFF;}
	.st1{fill-rule:evenodd;clip-rule:evenodd;fill:#B3B3B3;}
	.st2{fill:url(#SVGID_1_);}
	.st3{fill:url(#SVGID_2_);}
	.st4{fill:url(#SVGID_3_);}
	.st5{fill:url(#SVGID_4_);}
	.st6{fill:url(#SVGID_5_);}
</style>
<rect x="1.05" y="-40.74" class="st0" width="146.66" height="141.73"/>
<g>
	<rect x="15.55" y="10.48" class="st1" width="36.91" height="39.28"/>
	<rect x="63.17" y="10.48" class="st1" width="74.1" height="4.8"/>
	<rect x="63.17" y="44.93" class="st1" width="74.1" height="4.81"/>
	<g>
		<g>
			<path d="M65.84,24.77c0,0.22,0.04,0.41,0.1,0.57c0.19,0.52,0.78,0.63,1.27,0.63c0.44,0,1.11-0.15,1.11-0.79
				c0-0.45-0.38-0.57-1.87-1c-1.37-0.39-2.94-0.76-2.94-2.51c0-2,1.71-2.87,3.5-2.87c1.88,0,3.55,0.72,3.62,2.83H68.1
				c0.05-0.33-0.1-0.55-0.32-0.69c-0.22-0.16-0.52-0.22-0.79-0.22c-0.36,0-0.96,0.1-0.96,0.58c0.05,0.62,1.29,0.75,2.51,1.09
				c1.23,0.34,2.44,0.91,2.44,2.5c0,2.26-2.08,2.99-4.01,2.99c-0.98,0-3.79-0.35-3.81-3.12H65.84z"/>
			<path d="M72.4,19.01h7.18v2.22h-4.51v1.08h4.09v2.06h-4.09v1.08h4.64v2.22H72.4V19.01z"/>
			<path d="M87.88,26.8c-0.59,0.77-1.52,1.09-2.47,1.09c-2.56,0-4.14-1.99-4.14-4.46c0-3.3,2.32-4.63,4.28-4.63
				c2.21,0,3.61,1.2,4,3.24h-2.56c-0.1-0.63-0.63-1.08-1.26-1.08c-1.83,0-1.77,1.93-1.77,2.53c0,0.81,0.33,2.23,1.96,2.23
				c0.62,0,1.25-0.32,1.38-0.96h-1.18v-1.86h3.55v4.77h-1.69L87.88,26.8z"/>
			<path d="M99.43,24.33c0,2.4-1.3,3.56-3.95,3.56c-2.65,0-3.96-1.15-3.96-3.56v-5.32h2.67v4.72c0,0.89,0,1.99,1.3,1.99
				c1.26,0,1.26-1.11,1.26-1.99v-4.72h2.67V24.33z"/>
			<path d="M101.36,19.01h5.09c1.52,0,2.83,0.84,2.83,2.48c0,0.9-0.41,1.85-1.3,2.17c0.73,0.28,1.18,1.08,1.28,2.16
				c0.04,0.42,0.05,1.46,0.29,1.86h-2.67c-0.13-0.44-0.18-0.89-0.22-1.34c-0.07-0.83-0.15-1.69-1.2-1.69h-1.42v3.02h-2.67V19.01z
				 M104.03,22.8h1.4c0.5,0,1.18-0.09,1.18-0.86c0-0.55-0.3-0.86-1.32-0.86h-1.25V22.8z"/>
			<path d="M115.08,18.81c2.63,0,4.4,1.89,4.4,4.54c0,2.65-1.76,4.54-4.4,4.54c-2.64,0-4.4-1.89-4.4-4.54
				C110.69,20.7,112.45,18.81,115.08,18.81z M115.08,25.73c0.68,0,1.72-0.45,1.72-2.38c0-1.93-1.04-2.38-1.72-2.38
				c-0.68,0-1.72,0.45-1.72,2.38C113.36,25.28,114.4,25.73,115.08,25.73z"/>
			<path d="M123.31,24.77c0,0.22,0.04,0.41,0.1,0.57c0.19,0.52,0.78,0.63,1.28,0.63c0.44,0,1.11-0.15,1.11-0.79
				c0-0.45-0.38-0.57-1.87-1c-1.37-0.39-2.94-0.76-2.94-2.51c0-2,1.71-2.87,3.5-2.87c1.88,0,3.55,0.72,3.62,2.83h-2.53
				c0.05-0.33-0.1-0.55-0.32-0.69c-0.22-0.16-0.52-0.22-0.79-0.22c-0.36,0-0.96,0.1-0.96,0.58c0.05,0.62,1.29,0.75,2.51,1.09
				c1.23,0.34,2.44,0.91,2.44,2.5c0,2.26-2.08,2.99-4.01,2.99c-0.98,0-3.79-0.35-3.81-3.12H123.31z"/>
		</g>
		<g>
			<path d="M63.17,31.69h5.09c1.52,0,2.83,0.84,2.83,2.48c0,0.9-0.41,1.85-1.3,2.17c0.73,0.28,1.18,1.08,1.28,2.16
				c0.04,0.42,0.05,1.46,0.29,1.86h-2.67c-0.13-0.44-0.18-0.89-0.22-1.34c-0.07-0.83-0.15-1.69-1.2-1.69h-1.42v3.02h-2.67V31.69z
				 M65.84,35.48h1.4c0.5,0,1.18-0.08,1.18-0.86c0-0.55-0.3-0.86-1.32-0.86h-1.25V35.48z"/>
			<path d="M72.96,31.69h2.67v8.67h-2.67V31.69z"/>
			<path d="M82.47,40.36h-2.99l-2.59-8.67h2.7l1.42,5.26h0.02l1.4-5.26h2.74L82.47,40.36z"/>
			<path d="M88.19,31.69h2.61l3.16,8.67h-2.77l-0.36-1.24h-2.76l-0.39,1.24h-2.68L88.19,31.69z M90.29,37.27l-0.78-2.67h-0.02
				l-0.84,2.67H90.29z"/>
			<path d="M95.34,31.69h4.38c2.89,0,3.91,2.14,3.91,4.32c0,2.66-1.41,4.35-4.43,4.35h-3.86V31.69z M98.01,38.14h1.04
				c1.66,0,1.91-1.35,1.91-2.16c0-0.55-0.17-2.06-2.1-2.06h-0.85V38.14z"/>
			<path d="M107.98,31.69h2.61l3.16,8.67h-2.77l-0.36-1.24h-2.76l-0.39,1.24h-2.68L107.98,31.69z M110.08,37.27l-0.78-2.67h-0.02
				l-0.84,2.67H110.08z"/>
			<path d="M119.44,40.36h-2.99l-2.59-8.67h2.7l1.42,5.26h0.02l1.4-5.26h2.74L119.44,40.36z"/>
			<path d="M123.42,31.69h2.67v8.67h-2.67V31.69z"/>
			<path d="M130.66,31.69h2.61l3.16,8.67h-2.77l-0.36-1.24h-2.76l-0.39,1.24h-2.68L130.66,31.69z M132.76,37.27l-0.78-2.67h-0.02
				l-0.84,2.67H132.76z"/>
		</g>
	</g>
	<g>
		<linearGradient id="SVGID_1_" gradientUnits="userSpaceOnUse" x1="29.8522" y1="15.3732" x2="43.3279" y2="44.2719">
			<stop  offset="0" style="stop-color:#597292"/>
			<stop  offset="0.2523" style="stop-color:#52769B"/>
			<stop  offset="0.6624" style="stop-color:#3981B2"/>
			<stop  offset="1" style="stop-color:#008CCB"/>
		</linearGradient>
		<path class="st2" d="M18.44,20.7l9.19-1.64l4.97,10.29c0,0,3.33,6.26,8,4.87c1.32-0.49,1.83-1.96,1.83-1.96s0.65-1.9-0.15-4.22
			c-0.8-2.33-2.03-3.56-1.09-5.54c0.94-1.98,5.25-2.02,7.55,3.43c2.31,5.45,2.28,9.92,0.53,13.37c-1.75,3.45-5.14,5.57-10.34,4.97
			c-5.2-0.6-9.61-4.27-10.9-5.7c-1.29-1.42-2.72-3.18-3.15-3.94C24.45,33.87,18.44,20.7,18.44,20.7z"/>
		<linearGradient id="SVGID_2_" gradientUnits="userSpaceOnUse" x1="38.1873" y1="12.9953" x2="49.2677" y2="36.7572">
			<stop  offset="0" style="stop-color:#597292"/>
			<stop  offset="0.2523" style="stop-color:#52769B"/>
			<stop  offset="0.6624" style="stop-color:#3981B2"/>
			<stop  offset="1" style="stop-color:#008CCB"/>
		</linearGradient>
		<path class="st3" d="M59.37,32.05l-5.35,2.32l-5.47-10.09c0,0-1.94-3.03-3.98-3.53c-2.04-0.5-3.68,0.1-4.08,2.19
			c-0.4,2.09,0.45,3.93,0.7,4.37c0.25,0.45,1.69,2.83,0.6,4.77c-1.09,1.94-3.78,1.99-5.52,0.75c-1.74-1.24-3.08-3.68-3.73-5.96
			c-0.65-2.29-1.64-7.31,0.84-10.64c2.49-3.33,6.86-3.63,9.79-2.73c2.93,0.89,5.78,2.98,6.64,3.78c0.86,0.8,3.17,3.53,3.61,4.24
			C54.02,22.45,59.37,32.05,59.37,32.05z"/>
		<g>
			<linearGradient id="SVGID_3_" gradientUnits="userSpaceOnUse" x1="17.079" y1="21.3294" x2="30.1995" y2="49.4663">
				<stop  offset="0" style="stop-color:#F7F8FA"/>
				<stop  offset="0.0156" style="stop-color:#F3F5F9"/>
				<stop  offset="0.2119" style="stop-color:#C0D4ED"/>
				<stop  offset="0.4015" style="stop-color:#90B9E1"/>
				<stop  offset="0.5797" style="stop-color:#62A5D8"/>
				<stop  offset="0.744" style="stop-color:#3797D1"/>
				<stop  offset="0.8892" style="stop-color:#008FCD"/>
				<stop  offset="1" style="stop-color:#008DCB"/>
			</linearGradient>
			<path class="st4" d="M38.93,44.27c-5.2-0.6-9.61-4.27-10.9-5.7c-1.29-1.42-2.72-3.18-3.15-3.94c-0.43-0.76-6.44-13.93-6.44-13.93
				L6.56,27.36l5.37,11.33c0,0,2.39,3.73,5.52,5.47c3.13,1.74,5.12,2.19,7.31,2.09c1.81-0.08,12.69-1.42,16.4-1.88
				C40.45,44.39,39.71,44.36,38.93,44.27z"/>
		</g>
		<g>
			<linearGradient id="SVGID_4_" gradientUnits="userSpaceOnUse" x1="30.4057" y1="16.6529" x2="38.5415" y2="34.1">
				<stop  offset="0" style="stop-color:#CDDBED"/>
				<stop  offset="0.1333" style="stop-color:#C5D6EC"/>
				<stop  offset="0.3508" style="stop-color:#AEC9E7"/>
				<stop  offset="0.6253" style="stop-color:#86B3DE"/>
				<stop  offset="0.9433" style="stop-color:#3B97D1"/>
				<stop  offset="1" style="stop-color:#2391CF"/>
			</linearGradient>
			<path class="st5" d="M36.28,32.82c-1.74-1.24-3.08-3.68-3.73-5.96c-0.65-2.29-1.64-7.31,0.84-10.64
				c0.66-0.89,1.46-1.55,2.32-2.05v0l-10.46,5.3l2.37-0.42l4.97,10.29c0,0,1.96,3.69,4.98,4.77l2.05-0.53
				C38.51,33.81,37.25,33.52,36.28,32.82z"/>
		</g>
		<g>
			<linearGradient id="SVGID_5_" gradientUnits="userSpaceOnUse" x1="39.9881" y1="21.7733" x2="47.3172" y2="37.4906">
				<stop  offset="0" style="stop-color:#CDDBED"/>
				<stop  offset="0.0138" style="stop-color:#CAD9ED"/>
				<stop  offset="0.2491" style="stop-color:#9DBFE3"/>
				<stop  offset="0.4727" style="stop-color:#73ABDA"/>
				<stop  offset="0.6786" style="stop-color:#4F9DD4"/>
				<stop  offset="0.8608" style="stop-color:#3194D0"/>
				<stop  offset="1" style="stop-color:#2391CF"/>
			</linearGradient>
			<path class="st6" d="M48.55,24.27c0,0-1.94-3.03-3.98-3.53c-2.04-0.5-3.68,0.1-4.08,2.19c-0.4,2.09,0.45,3.93,0.7,4.37
				c0.25,0.45,1.69,2.83,0.6,4.77c-0.48,0.86-1.28,1.34-2.16,1.51l-2.05,0.52c0.92,0.33,1.93,0.42,3.02,0.1
				c1.32-0.49,1.83-1.96,1.83-1.96s0.65-1.9-0.15-4.22c-0.8-2.33-2.03-3.56-1.09-5.54c0.94-1.98,5.25-2.02,7.55,3.43
				c1.47,3.47,1.99,6.54,1.73,9.2l3.55-0.76L48.55,24.27z"/>
		</g>
	</g>
</g>
</svg>
