<?xml version="1.0" encoding="utf-8"?>
<!-- Generator: Adobe Illustrator 23.0.3, SVG Export Plug-In . SVG Version: 6.00 Build 0)  -->
<svg version="1.1" id="Capa_1" xmlns="http://www.w3.org/2000/svg" xmlns:xlink="http://www.w3.org/1999/xlink" x="0px" y="0px"
	 viewBox="0 0 730 129" style="enable-background:new 0 0 730 129;" xml:space="preserve">
<style type="text/css">
	.st0{fill:#6F6F6E;}
	.st1{fill:#1A1A1A;}
	.st2{fill:#FFFFFF;}
	.st3{fill:#E4002B;}
</style>
<g transform="translate(-252.98 -367.679)">
	<g transform="translate(328.218 404.996)">
		<rect x="81.64" y="41.5" class="st0" width="570.96" height="51.23"/>
	</g>
	<g transform="translate(327.924 367.731)">
		<g transform="translate(0 0)">
			<path class="st1" d="M126.91,37.82c-1.99-2.38-4.53-4.23-7.41-5.39c-4.48-1.66-9.08-2.95-13.76-3.86
				c-3.66-0.65-7.19-1.86-10.49-3.58c-2-1.14-3.2-3.29-3.13-5.59c-0.08-2.71,1.25-5.27,3.52-6.75c2.86-1.74,6.17-2.58,9.51-2.41
				c5.71,0.16,11.32,1.54,16.45,4.05V5.17c-1.34-0.63-2.72-1.18-4.12-1.66c-3.98-1.31-8.14-1.96-12.33-1.95
				c-4.29-0.08-8.54,0.73-12.5,2.38c-3.35,1.38-6.24,3.67-8.37,6.6c-1.96,2.8-3,6.14-2.96,9.56c-0.12,3.03,0.73,6.01,2.43,8.52
				c1.89,2.44,4.38,4.34,7.23,5.51c4.03,1.7,8.23,2.98,12.52,3.81c4.06,0.71,8.02,1.88,11.81,3.49c2.04,1.02,3.32,3.13,3.27,5.41
				c0.06,2.59-1.29,5.01-3.52,6.32c-3.44,1.65-7.24,2.41-11.05,2.24c-3.66,0.03-7.3-0.5-10.79-1.57c-4.05-1.55-7.87-3.63-11.36-6.2
				v10.38c2.73,1.75,5.67,3.14,8.76,4.14c4.32,1.29,8.8,1.93,13.3,1.9c4.82,0.09,9.61-0.66,14.18-2.2c3.37-1.23,6.31-3.42,8.45-6.29
				c1.96-2.79,2.98-6.12,2.92-9.53C129.57,43.09,128.67,40.19,126.91,37.82z"/>
			<path class="st1" d="M182.52,50.09L170.26,14.3h-6.95l-12.6,35.59L138.71,14.3h-9.97L146.41,64h7.93l12.19-34.37L178.66,64h7.93
				l17.74-49.7h-9.48L182.52,50.09z"/>
			<rect x="211.47" y="14.29" class="st1" width="9.84" height="49.7"/>
			<path class="st1" d="M261.19,38.37c-3.3-1.35-6.71-2.39-10.2-3.11c-2.86-0.51-5.64-1.45-8.22-2.79
				c-1.45-0.81-2.32-2.37-2.26-4.03c-0.07-2,0.91-3.89,2.6-4.97c2.2-1.33,4.74-1.97,7.31-1.84c4.54,0.14,9,1.25,13.07,3.25
				l0.58,0.28v-8.42l-0.23-0.11c-1.11-0.52-2.25-0.98-3.41-1.37c-3.23-1.06-6.61-1.59-10.01-1.58c-3.49-0.06-6.96,0.6-10.18,1.94
				c-2.76,1.14-5.15,3.03-6.9,5.44c-1.63,2.32-2.49,5.09-2.46,7.93c-0.09,2.52,0.62,5.01,2.04,7.1c1.56,2.02,3.62,3.6,5.98,4.57
				c3.25,1.37,6.64,2.4,10.1,3.08c2.91,0.53,5.74,1.45,8.41,2.73c1.48,0.72,2.4,2.24,2.36,3.88c0.06,1.9-0.94,3.68-2.58,4.62
				c-2.35,1.27-5,1.86-7.67,1.71c-2.86-0.02-5.71-0.44-8.47-1.23c-3.11-1.12-6.09-2.56-8.9-4.3v9.02l0.18,0.12
				c1.96,1.23,4.1,2.17,6.33,2.79c3.49,1.05,7.13,1.57,10.77,1.55c3.62,0.07,7.23-0.54,10.63-1.8c2.78-1.02,5.21-2.83,6.98-5.2
				c1.62-2.31,2.47-5.07,2.42-7.9c0.09-2.48-0.67-4.92-2.15-6.91C265.66,40.86,263.56,39.33,261.19,38.37z"/>
			<path class="st1" d="M307.66,38.37c-3.3-1.35-6.71-2.39-10.2-3.11c-2.87-0.51-5.64-1.45-8.22-2.79
				c-1.45-0.81-2.32-2.37-2.26-4.03c-0.07-2,0.91-3.89,2.6-4.97c2.2-1.33,4.74-1.97,7.31-1.84c4.54,0.14,9,1.25,13.08,3.25
				l0.58,0.28v-8.42l-0.23-0.11c-1.11-0.52-2.25-0.98-3.41-1.37c-3.23-1.06-6.61-1.59-10.01-1.58c-3.49-0.06-6.96,0.6-10.18,1.94
				c-2.76,1.14-5.15,3.03-6.9,5.44c-1.63,2.32-2.49,5.09-2.46,7.93c-0.1,2.52,0.62,5.01,2.04,7.1c1.56,2.02,3.62,3.6,5.98,4.57
				c3.25,1.37,6.64,2.4,10.1,3.08c2.91,0.53,5.74,1.45,8.41,2.73c1.48,0.72,2.4,2.24,2.36,3.88c0.06,1.9-0.94,3.67-2.58,4.62
				c-2.35,1.27-5,1.86-7.67,1.71c-2.86-0.02-5.71-0.44-8.47-1.23c-3.11-1.12-6.09-2.56-8.9-4.3v9.02l0.18,0.12
				c1.96,1.23,4.1,2.17,6.33,2.79c3.49,1.05,7.13,1.57,10.77,1.55c3.62,0.07,7.23-0.54,10.63-1.8c2.78-1.02,5.21-2.83,6.98-5.2
				c1.62-2.31,2.47-5.07,2.42-7.9c0.09-2.48-0.67-4.92-2.15-6.91C312.14,40.86,310.04,39.33,307.66,38.37z"/>
			<path class="st1" d="M367.37,45.82l-16.72-31.52h-7.8V64h8.79l-0.07-30.8l12.47,22.89h6.51l12.4-23.2v31.12h8.8V14.29h-7.72
				L367.37,45.82z"/>
			<path class="st1" d="M401.43,64h33.89v-7.87h-24.25V42.64h22.85v-7.81h-22.85V22.18h24.25V14.3h-33.89V64z"/>
			<path class="st1" d="M462.13,14.29H443.5V64h18.63c8.15,0,14.58-2.21,19.1-6.57c4.52-4.36,6.82-10.52,6.82-18.32
				s-2.29-13.95-6.82-18.29S470.28,14.29,462.13,14.29z M453.35,22.37h8.22c11.19,0,16.63,5.47,16.63,16.73
				c0,11.31-5.44,16.8-16.63,16.8h-8.22V22.37z"/>
			<rect x="495.96" y="14.29" class="st1" width="9.84" height="49.7"/>
			<path class="st1" d="M538.05,21.75c2.67,0.08,5.32,0.51,7.87,1.28c2.13,0.62,4.2,1.42,6.19,2.39l-0.07-8.62
				c-1.51-0.7-3.06-1.3-4.64-1.8c-3.08-0.93-6.28-1.38-9.49-1.33c-4.51-0.1-8.96,0.98-12.92,3.14c-3.65,2.06-6.61,5.16-8.49,8.91
				c-3.94,8.51-3.94,18.32,0,26.83c1.88,3.76,4.84,6.87,8.49,8.94c3.96,2.16,8.41,3.24,12.92,3.14c4.89,0.06,9.72-1.01,14.13-3.13
				l0.09-8.62c-4.4,2.14-9.19,3.39-14.08,3.67c-4.07,0.22-8.01-1.41-10.73-4.44c-5.06-7.9-5.06-18.02,0-25.91
				C530.03,23.16,533.98,21.52,538.05,21.75z"/>
			<path class="st1" d="M587.85,14.29h-7.87L557.25,64h10l4.97-11.45h23.52L600.71,64h9.86L587.85,14.29z M592.38,44.82h-16.86
				l8.43-19.4L592.38,44.82z"/>
			<g transform="translate(258.524 0.94)">
				<path class="st1" d="M368.06,2.57h-9.67v60.49h35.97v-8.32h-26.31L368.06,2.57z"/>
			</g>
		</g>
	</g>
	<g transform="translate(337.964 409.272)">
		<g transform="translate(0)">
			<path class="st2" d="M97.71,78.06c-2.03-0.54-3.94-1.46-5.62-2.71l2.28-5.06c3.07,2.14,6.73,3.28,10.47,3.24
				c1.61,0.09,3.21-0.25,4.64-0.98c1.01-0.53,1.63-1.57,1.62-2.71c0.01-1.02-0.57-1.96-1.49-2.42c-1.67-0.81-3.45-1.37-5.28-1.69
				c-2.34-0.42-4.62-1.12-6.79-2.1c-1.49-0.65-2.77-1.7-3.7-3.03c-0.81-1.34-1.22-2.88-1.17-4.44c-0.03-1.86,0.54-3.68,1.62-5.2
				c1.17-1.59,2.74-2.82,4.56-3.58c2.14-0.9,4.44-1.35,6.77-1.3c2.24-0.01,4.47,0.33,6.61,1c1.86,0.53,3.58,1.45,5.05,2.69
				l-2.28,5.06c-2.68-2.06-5.95-3.2-9.32-3.24c-1.54-0.08-3.06,0.29-4.39,1.07c-1.02,0.63-1.63,1.74-1.6,2.94
				c-0.02,0.66,0.2,1.3,0.62,1.8c0.58,0.57,1.28,1,2.06,1.25c1.34,0.47,2.7,0.85,4.09,1.14c3.19,0.52,6.24,1.72,8.94,3.51
				c1.81,1.42,2.82,3.63,2.72,5.93c0.1,2.83-1.22,5.53-3.52,7.18c-2.91,1.91-6.36,2.83-9.83,2.62
				C102.37,79.05,100,78.72,97.71,78.06z"/>
			<path class="st2" d="M178.19,78.63V46.49h22.22v5.52h-15.27v7.52h14.36v5.52h-14.36v8.07h15.27v5.51H178.19z"/>
			<path class="st2" d="M287.82,60.9v15.73c-1.75,0.82-3.59,1.42-5.49,1.78c-2.14,0.43-4.31,0.64-6.49,0.64
				c-3.07,0.08-6.12-0.6-8.87-1.98c-2.45-1.27-4.46-3.26-5.76-5.7c-2.67-5.54-2.68-12-0.02-17.55c1.28-2.43,3.27-4.43,5.69-5.72
				c2.67-1.38,5.64-2.07,8.64-2.01c2.19-0.02,4.38,0.3,6.47,0.96c1.81,0.54,3.5,1.44,4.96,2.64l-2.24,5.06
				c-1.33-0.98-2.81-1.75-4.37-2.3c-1.48-0.48-3.04-0.72-4.6-0.71c-6.22,0-9.32,3.6-9.32,10.8c-0.23,2.97,0.63,5.91,2.42,8.29
				c1.92,1.94,4.59,2.95,7.31,2.73c1.77,0,3.54-0.23,5.26-0.68v-7.05h-6.31V60.9L287.82,60.9z"/>
			<path class="st2" d="M347.39,75.55c-2.53-2.77-3.81-6.45-3.54-10.19V46.49h7v19.19c-0.15,2.09,0.48,4.17,1.76,5.83
				c2.88,2.68,7.35,2.67,10.22-0.02c1.29-1.65,1.92-3.72,1.78-5.81V46.49h7v18.87c0.26,3.73-1.03,7.41-3.57,10.17
				C361.94,80.2,353.48,80.21,347.39,75.55L347.39,75.55z"/>
			<path class="st2" d="M455.92,78.63h-7.77l-5.58-10.26c-0.38-0.71-0.95-1.3-1.65-1.71c-0.75-0.37-1.58-0.55-2.42-0.52h-3.52v12.49
				h-7.04V46.49h14.81c3.06-0.22,6.1,0.66,8.57,2.49c2.01,1.83,3.08,4.47,2.9,7.18c0.07,2.21-0.65,4.38-2.03,6.11
				c-1.48,1.71-3.51,2.86-5.74,3.24c1.85,0.57,3.39,1.87,4.25,3.6L455.92,78.63z M446.13,59.69c1.83-1.87,1.83-4.85,0-6.72
				c-1.33-0.81-2.88-1.18-4.44-1.05h-6.81v8.84h6.81C443.25,60.89,444.81,60.52,446.13,59.69L446.13,59.69z"/>
			<path class="st2" d="M517.79,77.01c-2.35-1.34-4.25-3.33-5.46-5.74c-2.56-5.54-2.56-11.92,0-17.46c1.21-2.41,3.11-4.4,5.46-5.72
				c5.24-2.67,11.45-2.67,16.69,0c2.35,1.32,4.25,3.32,5.46,5.72c2.56,5.54,2.56,11.92,0,17.46c-1.22,2.41-3.12,4.41-5.46,5.74
				C529.24,79.71,523.02,79.71,517.79,77.01L517.79,77.01z M532.47,70.7c3.07-5,3.08-11.29,0.02-16.3
				c-3.19-3.5-8.62-3.76-12.12-0.56c-0.2,0.18-0.39,0.37-0.57,0.56c-3.03,5.01-3.02,11.29,0.02,16.3c3.12,3.49,8.49,3.79,11.98,0.66
				C532.04,71.15,532.26,70.93,532.47,70.7L532.47,70.7z"/>
			<path class="st2" d="M602.96,78.06c-2.03-0.54-3.94-1.46-5.62-2.71l2.28-5.06c3.07,2.14,6.73,3.28,10.47,3.24
				c1.61,0.09,3.21-0.25,4.64-0.98c1.01-0.53,1.63-1.57,1.62-2.71c0.01-1.02-0.57-1.96-1.49-2.42c-1.67-0.81-3.45-1.37-5.28-1.69
				c-2.34-0.42-4.62-1.12-6.79-2.1c-1.49-0.65-2.77-1.7-3.7-3.03c-0.81-1.34-1.22-2.88-1.17-4.44c-0.03-1.86,0.54-3.68,1.62-5.2
				c1.17-1.59,2.74-2.82,4.56-3.58c2.14-0.9,4.44-1.35,6.77-1.3c2.24-0.01,4.47,0.33,6.61,1c1.86,0.53,3.58,1.45,5.05,2.69
				l-2.28,5.06c-2.67-2.06-5.95-3.2-9.32-3.24c-1.54-0.08-3.06,0.29-4.39,1.07c-1.02,0.63-1.63,1.75-1.6,2.94
				c-0.02,0.66,0.2,1.3,0.62,1.8c0.58,0.58,1.28,1.01,2.06,1.25c1.34,0.47,2.7,0.85,4.09,1.14c3.19,0.52,6.24,1.72,8.94,3.51
				c1.81,1.42,2.82,3.63,2.72,5.93c0.1,2.83-1.22,5.53-3.52,7.18c-2.91,1.91-6.36,2.83-9.83,2.62
				C607.63,79.05,605.25,78.72,602.96,78.06z"/>
		</g>
	</g>
	<g transform="translate(252.98 367.679)">
		<g transform="translate(0 39.789)">
			<rect x="1" y="44.15" class="st3" width="45.8" height="45.8"/>
		</g>
		<rect x="1" y="1.51" class="st3" width="45.8" height="45.8"/>
		<g transform="translate(39.793 39.789)">
			<rect x="43.65" y="44.15" class="st3" width="45.8" height="45.8"/>
		</g>
		<g transform="translate(39.793)">
			<rect x="43.65" y="1.51" class="st3" width="45.8" height="45.8"/>
		</g>
	</g>
</g>
</svg>
