<?xml version="1.0" encoding="UTF-8" standalone="no"?>
<!-- Created with Inkscape (http://www.inkscape.org/) -->

<svg
   xmlns:dc="http://purl.org/dc/elements/1.1/"
   xmlns:cc="http://creativecommons.org/ns#"
   xmlns:rdf="http://www.w3.org/1999/02/22-rdf-syntax-ns#"
   xmlns:svg="http://www.w3.org/2000/svg"
   xmlns="http://www.w3.org/2000/svg"
   version="1.1"
   width="494.45135"
   height="353.52341"
   id="svg2">
  <defs
     id="defs4" />
  <metadata
     id="metadata7">
    <rdf:RDF>
      <cc:Work
         rdf:about="">
        <dc:format>image/svg+xml</dc:format>
        <dc:type
           rdf:resource="http://purl.org/dc/dcmitype/StillImage" />
        <dc:title></dc:title>
      </cc:Work>
    </rdf:RDF>
  </metadata>
  <g
     transform="translate(-105.61015,-310.19654)"
     id="layer1">
    <g
       id="g3065">
      <path
         d="m 354.40784,345.62961 c -42.22905,0 -76.44384,34.21478 -76.44384,76.44384 0,17.44646 5.85659,33.475 15.65866,46.35949 l 63.49771,-83.53339 -6.78131,0.0617 -6.84296,0 c -7.21284,0 -14.0558,0.49318 -18.92601,1.41791 -2.95912,0.61648 -5.60999,1.6645 -7.76768,3.20571 -2.58923,1.7878 -5.73329,5.54834 -7.82933,9.24724 -0.2466,0.43153 -0.55484,1.10967 -0.98637,1.97274 l -3.76055,-0.80143 6.22648,-24.04282 79.5879,0 -63.18947,84.58141 c 4.06879,-0.36989 5.73329,-0.43153 9.0623,-0.43153 2.58922,0 6.47306,0.12329 11.65152,0.43153 l 11.21998,0.67813 c 4.06879,0.2466 7.52109,0.36989 10.11032,0.36989 5.79493,0 9.55548,-0.43153 13.31602,-1.60285 2.89747,-0.86308 5.67164,-2.21934 8.13757,-3.94549 4.43867,-3.08241 8.75405,-8.01427 11.34328,-12.94613 0.24659,-0.49319 0.67813,-1.23297 1.17132,-2.21934 l 3.329,0.86307 c -1.04802,4.13044 -1.6645,5.73329 -3.329,9.49384 -3.39066,7.58273 -7.21285,12.69954 -12.5146,16.58338 -5.42505,4.00714 -11.40493,5.97988 -18.49448,6.10318 l -1.10967,0 c -5.2401,0 -9.30888,-0.43154 -21.88513,-2.34264 -12.76119,-1.97274 -19.2959,-2.65087 -25.70732,-2.65087 -4.31538,0 -8.32252,0.30824 -12.45295,0.98637 -5.4867,0.92472 -7.64438,1.54121 -12.63789,3.82219 13.99415,15.22712 34.02984,24.7826 56.3465,24.7826 42.16741,0 76.3822,-34.21478 76.3822,-76.44384 0,-42.22906 -34.21479,-76.44384 -76.3822,-76.44384"
         id="path11306"
         style="fill:#062c92;fill-opacity:1;fill-rule:nonzero;stroke:none" />
      <path
         d="m 211.44553,551.34985 -58.56584,0 -7.21285,15.90525 c 2.40428,-1.29461 3.32901,-1.72615 5.42505,-2.58923 3.329,-1.29461 7.0279,-2.34263 10.54185,-2.95911 3.08242,-0.55484 5.91823,-0.80143 10.4802,-0.92473 2.09604,-0.0617 4.00714,-0.0617 5.79494,-0.0617 l 8.6924,0 -45.55806,65.10057 64.42243,0 7.39779,-17.01492 c -2.58922,1.47956 -3.51395,1.97274 -5.48669,2.89746 -3.76055,1.66451 -7.82933,2.89747 -12.02141,3.63725 -3.32901,0.61648 -7.08955,0.92473 -11.71317,1.04802 -1.54121,0.0617 -3.51395,0.0617 -5.97988,0.0617 l -11.40493,0 45.18817,-65.10056"
         id="path11308"
         style="fill:#06065d;fill-opacity:1;fill-rule:nonzero;stroke:none" />
      <path
         d="m 405.02107,625.82095 c -1.17131,-1.04802 -1.5412,-1.47956 -2.28098,-2.65088 -0.4932,-0.73978 -0.86309,-1.47956 -1.17132,-2.28098 -0.67813,-1.66451 -1.04802,-4.19209 -1.04802,-6.53472 l 0,-44.81828 0.0616,-4.37703 c 0,-4.99351 0.12329,-6.34977 0.80143,-8.38416 0.24659,-0.80143 0.55482,-1.60286 1.04802,-2.34264 0.73978,-1.29461 1.2946,-1.84945 2.77417,-3.08241 l -23.91952,0 c 1.60285,1.35626 2.09604,1.84945 2.77417,2.95912 0.49318,0.73977 0.92472,1.5412 1.17131,2.40428 0.55484,1.7878 0.73978,3.5756 0.73978,8.01427 0.0616,2.28099 0.0616,3.76055 0.0616,4.50032 l 0,44.5717 c 0,2.58922 -0.49318,5.42504 -1.17132,7.21284 -0.30824,0.73978 -0.73977,1.47956 -1.17131,2.15769 -0.61648,0.80143 -0.98637,1.29461 -2.28099,2.65088 l 23.61129,0"
         id="path11310"
         style="fill:#06065d;fill-opacity:1;fill-rule:nonzero;stroke:none" />
      <path
         d="m 479.8004,551.96633 c -1.84944,-0.61648 -2.52758,-0.80143 -4.56197,-1.23296 -4.25373,-0.92473 -8.38416,-1.29462 -13.06943,-1.29462 -8.01427,0 -14.91888,1.23297 -21.207,3.94549 -3.76054,1.54121 -7.21285,3.63725 -10.23361,6.04153 -9.18559,7.39779 -14.1791,18.12459 -14.1791,30.45424 0,11.95976 4.80856,22.31667 13.56262,29.28292 7.27449,5.67164 16.64503,8.56911 27.86501,8.56911 7.0279,0 13.50097,-1.04802 20.89876,-3.329 0.24659,-0.0617 0.67813,-0.18495 1.17132,-0.36989 l 0,-13.56262 c -1.7878,1.23296 -2.34264,1.60285 -3.45231,2.21934 -1.41791,0.86307 -2.95911,1.60285 -4.56197,2.28098 -4.50032,1.9111 -8.56911,2.77417 -13.00778,2.77417 -7.70603,0 -14.3024,-2.77417 -19.17261,-8.01427 -4.80856,-5.2401 -7.45944,-12.45295 -7.45944,-20.65217 0,-7.76768 2.46593,-15.04217 6.71966,-20.09733 1.9111,-2.15769 4.19208,-4.06878 6.78131,-5.48669 4.19208,-2.34264 9.12394,-3.5756 14.42569,-3.5756 4.50033,0 8.939,0.86307 13.37768,2.65087 2.71252,1.17132 3.69889,1.72615 6.10317,3.39066 l 0,-13.99416"
         id="path11312"
         style="fill:#06065d;fill-opacity:1;fill-rule:nonzero;stroke:none" />
      <path
         d="m 545.08591,592.0377 0,18.12459 c 0,4.06878 -0.0616,5.54834 -0.30823,7.58273 -0.1233,1.17132 -0.43155,2.21934 -0.80143,3.20571 -0.55483,1.41791 -1.41791,2.71253 -2.65088,3.88384 -0.24659,0.2466 -0.61649,0.55484 -1.04801,0.98638 l 23.79621,0 c -0.98636,-0.98638 -1.35626,-1.41791 -2.03439,-2.34264 -0.55483,-0.80142 -1.04801,-1.60285 -1.35626,-2.40428 -0.73978,-1.7878 -0.92472,-3.08241 -0.98637,-6.71966 -0.0616,-2.21934 -0.0616,-3.51395 -0.0616,-3.88384 l 0.0616,-40.93444 0,-4.43868 c 0,-3.26736 0.24659,-5.79494 0.86307,-7.89098 0.2466,-0.98637 0.61649,-1.91109 1.17133,-2.71252 0.73978,-1.29461 1.29461,-1.9111 2.89747,-3.14406 l -24.28942,0 c 1.41791,1.17132 1.9111,1.6645 2.71253,3.02076 0.55483,0.86308 0.98637,1.72616 1.23296,2.58923 0.61648,1.72615 0.80143,3.94549 0.80143,7.82933 l 0,18.12459 -33.35171,0 0,-13.62427 c 0,-4.06878 0.0616,-6.78131 0.18495,-8.8157 0.0616,-1.23296 0.30824,-2.28098 0.61648,-3.20571 0.49318,-1.6645 1.84945,-3.82219 3.08241,-5.1168 0.18495,-0.18495 0.43154,-0.43154 0.80143,-0.80143 l -23.85788,0 c 1.41791,1.47956 1.7878,1.9111 2.46593,2.83582 0.49319,0.80143 0.92473,1.60285 1.29462,2.52758 0.61648,1.91109 0.73978,2.95911 0.80142,7.89098 l 0.0616,4.74691 0,40.7495 c 0,4.13043 -0.0616,5.97988 -0.30824,7.82933 -0.12329,0.98637 -0.36989,1.97274 -0.73978,2.95912 -0.61648,1.60285 -1.47956,2.89746 -2.83582,4.19208 -0.18494,0.18494 -0.49318,0.36989 -0.86307,0.73978 l 23.61128,0 c -1.04802,-1.10967 -1.41791,-1.54121 -1.97274,-2.46593 -0.49319,-0.67813 -0.86308,-1.47956 -1.23297,-2.34264 -0.73978,-1.91109 -0.98637,-3.329 -1.04802,-6.47307 -0.0616,-1.60285 -0.0616,-3.08241 -0.0616,-4.50032 l 0,-18.00129 33.35171,0"
         id="path11314"
         style="fill:#06065d;fill-opacity:1;fill-rule:nonzero;stroke:none" />
      <path
         d="m 326.48118,610.53218 c 0,1.35626 0.0616,2.58922 0.0616,3.69889 0.0616,3.45231 0.30824,5.24011 0.98637,6.90461 0.30825,0.80143 0.73978,1.54121 1.23298,2.28098 0.67813,0.86308 0.98637,1.23297 2.09604,2.40429 l -23.67293,0 c 1.35626,-1.29462 1.7878,-1.72615 2.46593,-2.58923 0.55483,-0.73978 0.98637,-1.54121 1.29461,-2.40428 0.61648,-1.60286 0.86308,-3.63725 0.86308,-7.1512 l 0,-48.88707 c 0,-3.94549 -0.2466,-6.28812 -0.73978,-7.95263 -0.30824,-0.92472 -0.73978,-1.84944 -1.29461,-2.71252 -0.73978,-1.04802 -1.23297,-1.60285 -2.52758,-2.77417 l 19.23425,0 c 2.34264,0 4.68527,0 6.90461,0.0616 5.91823,0.18494 9.37053,0.55483 12.69954,1.29461 4.80856,1.10967 9.06229,3.51395 12.14471,6.71966 3.329,3.51395 5.05515,7.64439 5.05515,12.20636 0,1.91109 -0.30824,3.88384 -0.92472,5.73328 -1.10967,3.39066 -2.95912,6.04153 -5.85658,8.50746 -2.65088,2.15769 -5.4867,3.8222 -9.18559,5.30175 -1.35627,0.55484 -1.9111,0.73978 -3.32901,1.17132 l 11.58987,13.56262 c 1.35626,1.6645 3.20571,3.69889 5.42505,6.10318 3.4523,3.76054 5.79493,6.16482 8.44581,8.63075 1.10967,1.04802 2.15769,2.0344 3.20571,2.89747 0.92472,0.86308 1.41791,1.29461 2.71252,2.28099 l -9.37053,0 c -1.35626,0 -2.65088,0 -3.88384,-0.0617 -3.20571,-0.1233 -5.2401,-0.61648 -7.39779,-1.72615 -2.46593,-1.35626 -4.99351,-3.39066 -7.70604,-6.10318 -0.80142,-0.86308 -2.03439,-2.21934 -3.5756,-4.06879 -1.41791,-1.60285 -2.46593,-2.77417 -3.14406,-3.57559 l -13.80921,-16.52174 0,16.76833 z m 1.23297,-22.9948 c 1.04803,0 2.34263,-0.1233 3.88385,-0.36989 4.00714,-0.55484 6.71965,-1.47956 9.37052,-3.02077 1.41791,-0.80142 2.58923,-1.7878 3.51396,-2.83582 1.91109,-2.09604 2.89747,-4.99351 2.89747,-8.38416 0,-3.88384 -1.29461,-6.96625 -3.88385,-9.12394 -1.41791,-1.23297 -3.14406,-2.15769 -4.99351,-2.71253 -2.83582,-0.80142 -6.41141,-1.23296 -10.04866,-1.23296 -0.61648,0 -0.98637,0 -1.97275,0.0617 l 0,27.55677 c 0.61649,0 0.86308,0.0617 1.23297,0.0617"
         id="path11316"
         style="fill:#06065d;fill-opacity:1;fill-rule:nonzero;stroke:none" />
      <path
         d="m 295.04057,551.34985 -23.73458,0 c 1.47956,1.10967 1.97276,1.6645 2.71253,2.89747 0.49318,0.73978 0.86307,1.60285 1.10967,2.52758 0.49319,1.7878 0.61649,3.5756 0.61649,7.76768 l 0,28.29655 c 0,6.10318 -0.1233,9.67877 -0.61649,12.63789 -0.30824,1.97275 -0.92472,3.82219 -1.91109,5.4867 -1.7878,3.02076 -5.17846,5.36339 -9.18559,6.34977 -1.60286,0.43153 -3.32901,0.61648 -5.2401,0.61648 -6.41142,0 -11.89812,-2.40428 -14.54899,-6.28812 -2.0344,-3.08242 -2.65088,-5.97988 -2.71253,-13.62427 l -0.12329,-6.10318 0,-22.43996 c 0,-4.37703 0.0616,-6.47307 0.24659,-8.69241 0.0616,-1.29461 0.24659,-2.46593 0.55483,-3.39065 0.49319,-1.72615 1.7878,-4.00714 3.02077,-5.42505 0.12329,-0.12329 0.30824,-0.30824 0.55483,-0.61648 l -24.16612,0 c 1.47956,1.23296 1.97275,1.7878 2.71253,3.02076 0.43154,0.80143 0.80143,1.66451 1.04802,2.58923 0.24659,1.10967 0.43154,2.28099 0.49318,3.39066 0,0.73977 0,2.28098 0,4.62361 l 0.0616,4.31538 0,21.3303 c 0,7.89098 0,9.92537 0.30824,13.13108 0.43154,5.42505 2.09605,9.80207 5.17846,13.68591 5.67164,7.08955 14.73393,10.8501 26.26216,10.8501 5.54834,0 10.91174,-0.86308 14.98052,-2.40429 4.31538,-1.5412 8.26087,-4.19208 11.09669,-7.39779 3.4523,-3.82219 5.42505,-8.5691 6.04153,-14.42569 0.30824,-3.39065 0.49319,-7.45944 0.49319,-13.31602 l 0,-21.39195 -0.0616,-4.25373 0,-0.86307 c 0,-3.20571 0.18494,-5.05516 0.61648,-6.78131 0.24659,-1.04802 0.67813,-2.09604 1.29461,-3.02077 0.80143,-1.29461 1.35626,-1.84945 2.89747,-3.08241"
         id="path11318"
         style="fill:#06065d;fill-opacity:1;fill-rule:nonzero;stroke:none" />
    </g>
  </g>
</svg>
